<svg width="800" height="290" viewBox="0 0 800 290" fill="none" xmlns="http://www.w3.org/2000/svg">
<path d="M223.229 144.902L433.731 144.902" stroke="#04412B" stroke-dasharray="6 6"/>
<path d="M51 126.218C69.0418 96.1373 83.0819 94.1363 101.128 96.1416C99.1226 78.0956 101.124 64.0564 131.204 46.0146L149.243 64.0547L169.298 44C199.378 62.0417 201.379 76.0819 199.374 94.1279C217.42 92.1227 231.459 94.1238 249.501 124.204L229.447 144.258L249.501 164.311C231.459 194.391 217.42 196.392 199.374 194.387C201.379 212.433 199.377 226.472 169.297 244.514L149.246 224.464L131.597 242.113C101.516 224.072 99.5143 210.032 101.52 191.986C83.4737 193.992 69.4342 191.989 51.3926 161.909L69.042 144.26L51 126.218Z" fill="#FBF9F0"/>
<path d="M51 126.218L50.5712 125.961L50.3704 126.295L50.6464 126.571L51 126.218ZM101.128 96.1416L101.073 96.6385L101.694 96.7076L101.625 96.0864L101.128 96.1416ZM131.204 46.0146L131.558 45.6611L131.282 45.3851L130.947 45.5859L131.204 46.0146ZM149.243 64.0547L148.89 64.4082L149.243 64.7618L149.597 64.4082L149.243 64.0547ZM169.298 44L169.555 43.5712L169.22 43.3704L168.944 43.6464L169.298 44ZM199.374 94.1279L198.877 94.0727L198.808 94.6939L199.429 94.6249L199.374 94.1279ZM249.501 124.204L249.855 124.558L250.131 124.282L249.93 123.947L249.501 124.204ZM229.447 144.258L229.094 143.904L228.74 144.258L229.094 144.611L229.447 144.258ZM249.501 164.311L249.93 164.568L250.131 164.233L249.855 163.957L249.501 164.311ZM199.374 194.387L199.429 193.89L198.808 193.821L198.877 194.442L199.374 194.387ZM169.297 244.514L168.943 244.867L169.219 245.143L169.554 244.942L169.297 244.514ZM149.246 224.464L149.6 224.11L149.246 223.757L148.893 224.11L149.246 224.464ZM131.597 242.113L131.339 242.542L131.674 242.743L131.95 242.467L131.597 242.113ZM101.52 191.986L102.016 192.042L102.085 191.42L101.464 191.489L101.52 191.986ZM51.3926 161.909L51.039 161.556L50.763 161.832L50.9638 162.166L51.3926 161.909ZM69.042 144.26L69.3955 144.613L69.7491 144.26L69.3955 143.906L69.042 144.26ZM50.6464 126.571L52.9017 128.827L53.6088 128.119L51.3535 125.864L50.6464 126.571ZM57.4122 133.337L61.9227 137.848L62.6298 137.14L58.1193 132.63L57.4122 133.337ZM66.4332 142.358L68.6884 144.613L69.3955 143.906L67.1403 141.651L66.4332 142.358ZM68.6884 143.906L66.4823 146.112L67.1894 146.819L69.3955 144.613L68.6884 143.906ZM62.0699 150.525L57.6576 154.937L58.3647 155.644L62.777 151.232L62.0699 150.525ZM53.2452 159.349L51.039 161.556L51.7461 162.263L53.9523 160.057L53.2452 159.349ZM50.9638 162.166C51.5182 163.091 52.069 163.989 52.6163 164.861L53.4634 164.33C52.9198 163.463 52.3725 162.571 51.8214 161.652L50.9638 162.166ZM56.1019 170.142C57.3778 171.973 58.6373 173.666 59.8834 175.231L60.6656 174.608C59.4339 173.061 58.1872 171.385 56.9223 169.57L56.1019 170.142ZM64.0234 180.018C65.575 181.657 67.1113 183.106 68.639 184.383L69.2806 183.616C67.7852 182.366 66.277 180.944 64.7496 179.33L64.0234 180.018ZM73.8201 188.1C75.7348 189.252 77.6458 190.164 79.5659 190.873L79.9127 189.935C78.052 189.248 76.1975 188.364 74.3356 187.244L73.8201 188.1ZM85.7388 192.5C87.8276 192.847 89.9379 193.01 92.0841 193.039L92.0975 192.039C89.993 192.011 87.9339 191.851 85.9026 191.514L85.7388 192.5ZM98.4246 192.791C99.4628 192.706 100.512 192.601 101.575 192.483L101.464 191.489C100.409 191.607 99.3694 191.71 98.3423 191.795L98.4246 192.791ZM101.023 191.931C100.905 192.993 100.8 194.043 100.715 195.081L101.711 195.164C101.796 194.136 101.899 193.096 102.016 192.042L101.023 191.931ZM100.467 201.422C100.496 203.568 100.659 205.678 101.006 207.767L101.992 207.603C101.655 205.572 101.495 203.513 101.467 201.408L100.467 201.422ZM102.632 213.94C103.342 215.86 104.254 217.771 105.405 219.686L106.262 219.17C105.142 217.308 104.258 215.454 103.57 213.593L102.632 213.94ZM109.122 224.867C110.4 226.395 111.849 227.931 113.488 229.482L114.176 228.756C112.562 227.229 111.14 225.721 109.889 224.225L109.122 224.867ZM118.275 233.622C119.84 234.869 121.533 236.128 123.364 237.404L123.936 236.584C122.121 235.319 120.445 234.072 118.898 232.84L118.275 233.622ZM128.645 240.89C129.517 241.437 130.415 241.988 131.339 242.542L131.854 241.684C130.935 241.133 130.043 240.586 129.176 240.042L128.645 240.89ZM131.95 242.467L134.156 240.261L133.449 239.554L131.243 241.76L131.95 242.467ZM138.569 235.848L142.981 231.436L142.274 230.729L137.862 235.141L138.569 235.848ZM147.393 227.024L149.6 224.817L148.893 224.11L146.686 226.316L147.393 227.024ZM148.893 224.817L151.399 227.324L152.106 226.617L149.6 224.11L148.893 224.817ZM156.412 232.336L161.424 237.349L162.131 236.641L157.119 231.629L156.412 232.336ZM166.437 242.361L168.943 244.867L169.65 244.16L167.144 241.654L166.437 242.361ZM169.554 244.942C170.478 244.388 171.377 243.837 172.249 243.29L171.718 242.443C170.851 242.986 169.959 243.534 169.04 244.085L169.554 244.942ZM177.53 239.804C179.36 238.528 181.054 237.269 182.619 236.023L181.996 235.241C180.449 236.472 178.773 237.719 176.958 238.984L177.53 239.804ZM187.405 231.883C189.045 230.331 190.494 228.795 191.771 227.267L191.004 226.626C189.754 228.121 188.332 229.629 186.718 231.157L187.405 231.883ZM195.488 222.086C196.64 220.171 197.551 218.26 198.261 216.34L197.323 215.994C196.635 217.854 195.751 219.709 194.631 221.571L195.488 222.086ZM199.888 210.167C200.235 208.079 200.398 205.968 200.427 203.822L199.427 203.809C199.398 205.913 199.239 207.972 198.901 210.004L199.888 210.167ZM200.179 197.482C200.093 196.443 199.989 195.394 199.871 194.331L198.877 194.442C198.994 195.497 199.098 196.537 199.182 197.564L200.179 197.482ZM199.319 194.884C200.381 195.002 201.431 195.106 202.469 195.192L202.551 194.195C201.524 194.11 200.484 194.007 199.429 193.89L199.319 194.884ZM208.809 195.439C210.956 195.411 213.066 195.248 215.155 194.901L214.991 193.914C212.96 194.252 210.9 194.411 208.796 194.439L208.809 195.439ZM221.327 193.274C223.248 192.565 225.159 191.653 227.073 190.501L226.558 189.644C224.696 190.764 222.841 191.649 220.981 192.336L221.327 193.274ZM232.254 186.785C233.782 185.507 235.319 184.058 236.87 182.419L236.144 181.731C234.617 183.345 233.108 184.767 231.613 186.017L232.254 186.785ZM241.01 177.632C242.256 176.067 243.516 174.374 244.792 172.543L243.971 171.972C242.706 173.786 241.46 175.462 240.228 177.009L241.01 177.632ZM248.277 167.263C248.825 166.39 249.375 165.492 249.93 164.568L249.072 164.053C248.521 164.972 247.974 165.865 247.43 166.731L248.277 167.263ZM249.855 163.957L247.348 161.45L246.641 162.158L249.147 164.664L249.855 163.957ZM242.334 156.437L237.321 151.424L236.614 152.131L241.627 157.144L242.334 156.437ZM232.308 146.411L229.801 143.904L229.094 144.611L231.6 147.118L232.308 146.411ZM229.801 144.611L232.308 142.105L231.6 141.398L229.094 143.904L229.801 144.611ZM237.321 137.091L242.334 132.078L241.627 131.371L236.614 136.384L237.321 137.091ZM247.348 127.064L249.855 124.558L249.147 123.851L246.641 126.357L247.348 127.064ZM249.93 123.947C249.375 123.023 248.825 122.124 248.277 121.252L247.43 121.783C247.974 122.65 248.521 123.542 249.072 124.461L249.93 123.947ZM244.792 115.971C243.516 114.141 242.256 112.447 241.01 110.883L240.228 111.505C241.46 113.052 242.706 114.728 243.971 116.543L244.792 115.971ZM236.87 106.096C235.319 104.457 233.782 103.008 232.254 101.73L231.613 102.497C233.108 103.748 234.617 105.17 236.144 106.783L236.87 106.096ZM227.073 98.0132C225.159 96.8614 223.248 95.95 221.328 95.2403L220.981 96.1783C222.841 96.866 224.696 97.7501 226.558 98.8701L227.073 98.0132ZM215.155 93.6138C213.066 93.2669 210.956 93.104 208.809 93.0753L208.796 94.0752C210.9 94.1034 212.96 94.2629 214.991 94.6002L215.155 93.6138ZM202.469 93.3229C201.431 93.4086 200.381 93.5129 199.319 93.631L199.429 94.6249C200.484 94.5076 201.524 94.4043 202.551 94.3196L202.469 93.3229ZM199.871 94.1831C199.989 93.1208 200.093 92.0712 200.179 91.0329L199.182 90.9507C199.098 91.9778 198.994 93.0178 198.877 94.0727L199.871 94.1831ZM200.427 84.6925C200.398 82.5462 200.235 80.4359 199.888 78.3471L198.902 78.5109C199.239 80.5421 199.399 82.6013 199.427 84.7058L200.427 84.6925ZM198.262 72.1741C197.552 70.2539 196.641 68.3429 195.489 66.4282L194.632 66.9436C195.752 68.8055 196.636 70.6601 197.324 72.5208L198.262 72.1741ZM191.772 61.2469C190.495 59.7191 189.046 58.1827 187.406 56.6311L186.719 57.3573C188.332 58.8847 189.754 60.393 191.005 61.8884L191.772 61.2469ZM182.62 52.4909C181.055 51.2448 179.361 49.9854 177.531 48.7094L176.959 49.5298C178.774 50.7947 180.45 52.0415 181.997 53.2732L182.62 52.4909ZM172.25 45.2237C171.377 44.6764 170.479 44.1256 169.555 43.5712L169.041 44.4288C169.96 44.9799 170.852 45.5272 171.719 46.0708L172.25 45.2237ZM168.944 43.6464L166.437 46.1533L167.145 46.8604L169.651 44.3535L168.944 43.6464ZM161.424 51.1669L156.41 56.1806L157.117 56.8877L162.131 51.8741L161.424 51.1669ZM151.396 61.1943L148.89 63.7011L149.597 64.4082L152.104 61.9014L151.396 61.1943ZM149.597 63.7011L147.342 61.4461L146.635 62.1532L148.89 64.4082L149.597 63.7011ZM142.832 56.9361L138.322 52.4261L137.615 53.1332L142.125 57.6432L142.832 56.9361ZM133.813 47.9161L131.558 45.6611L130.851 46.3682L133.105 48.6232L133.813 47.9161ZM130.947 45.5859C130.023 46.1403 129.124 46.691 128.252 47.2383L128.783 48.0855C129.65 47.5418 130.542 46.9945 131.461 46.4434L130.947 45.5859ZM122.971 50.7239C121.141 51.9999 119.447 53.2593 117.883 54.5054L118.505 55.2877C120.052 54.056 121.728 52.8092 123.543 51.5443L122.971 50.7239ZM113.096 58.6454C111.457 60.1971 110.008 61.7334 108.73 63.2611L109.497 63.9026C110.748 62.4073 112.17 60.899 113.783 59.3717L113.096 58.6454ZM105.013 68.4422C103.861 70.3569 102.95 72.2679 102.24 74.1881L103.178 74.5348C103.866 72.6741 104.75 70.8196 105.87 68.9577L105.013 68.4422ZM100.614 80.3609C100.267 82.4498 100.104 84.56 100.075 86.7063L101.075 86.7196C101.103 84.6151 101.263 82.556 101.6 80.5248L100.614 80.3609ZM100.323 93.0467C100.409 94.0849 100.513 95.1345 100.631 96.1968L101.625 96.0864C101.508 95.0315 101.404 93.9915 101.32 92.9644L100.323 93.0467ZM101.183 95.6447C100.121 95.5266 99.0712 95.4223 98.0329 95.3366L97.9507 96.3332C98.9778 96.418 100.018 96.5213 101.073 96.6385L101.183 95.6447ZM91.6925 95.0889C89.5462 95.1177 87.4359 95.2805 85.347 95.6274L85.5109 96.6139C87.5421 96.2766 89.6013 96.117 91.7058 96.0889L91.6925 95.0889ZM79.1741 97.2539C77.2539 97.9636 75.3428 98.875 73.4281 100.027L73.9436 100.884C75.8055 99.7637 77.6601 98.8796 79.5208 98.1919L79.1741 97.2539ZM68.2469 103.744C66.7191 105.021 65.1827 106.47 63.631 108.109L64.3573 108.797C65.8847 107.183 67.393 105.761 68.8884 104.511L68.2469 103.744ZM59.4909 112.896C58.2448 114.461 56.9853 116.154 55.7094 117.985L56.5298 118.557C57.7947 116.742 59.0414 115.066 60.2732 113.519L59.4909 112.896ZM52.2237 123.266C51.6764 124.138 51.1256 125.036 50.5712 125.961L51.4288 126.475C51.9799 125.556 52.5272 124.664 53.0708 123.797L52.2237 123.266Z" fill="#04412B"/>
<path d="M388.499 126.218C406.541 96.1373 420.581 94.1363 438.627 96.1416C436.622 78.0956 438.623 64.0564 468.703 46.0146L486.742 64.0547L506.796 44C536.876 62.0418 538.878 76.0819 536.873 94.1279C554.919 92.1227 568.958 94.1238 587 124.204L566.946 144.258L587 164.311C568.958 194.391 554.919 196.392 536.873 194.387C538.878 212.433 536.876 226.472 506.796 244.514L486.745 224.464L469.096 242.113C439.015 224.072 437.013 210.032 439.019 191.986C420.973 193.992 406.933 191.989 388.892 161.909L406.541 144.26L388.499 126.218Z" fill="#FBF9F0"/>
<path d="M388.499 126.218L388.07 125.961L387.869 126.295L388.145 126.571L388.499 126.218ZM438.627 96.1416L438.572 96.6385L439.193 96.7076L439.124 96.0864L438.627 96.1416ZM468.703 46.0146L469.057 45.6611L468.781 45.3851L468.446 45.5859L468.703 46.0146ZM486.742 64.0547L486.389 64.4082L486.742 64.7618L487.096 64.4082L486.742 64.0547ZM506.796 44L507.053 43.5712L506.718 43.3704L506.442 43.6465L506.796 44ZM536.873 94.1279L536.376 94.0727L536.307 94.6939L536.928 94.6249L536.873 94.1279ZM587 124.204L587.354 124.558L587.63 124.282L587.429 123.947L587 124.204ZM566.946 144.258L566.593 143.904L566.239 144.258L566.593 144.611L566.946 144.258ZM587 164.311L587.429 164.568L587.63 164.233L587.354 163.957L587 164.311ZM536.873 194.387L536.928 193.89L536.307 193.821L536.376 194.442L536.873 194.387ZM506.796 244.514L506.442 244.867L506.718 245.143L507.053 244.942L506.796 244.514ZM486.745 224.464L487.099 224.11L486.745 223.757L486.392 224.11L486.745 224.464ZM469.096 242.113L468.839 242.542L469.173 242.743L469.449 242.467L469.096 242.113ZM439.019 191.986L439.515 192.042L439.585 191.42L438.963 191.489L439.019 191.986ZM388.892 161.909L388.538 161.556L388.262 161.832L388.463 162.166L388.892 161.909ZM406.541 144.26L406.895 144.613L407.248 144.26L406.895 143.906L406.541 144.26ZM388.928 126.475C397.927 111.471 405.886 103.543 413.785 99.5948C421.674 95.651 429.577 95.639 438.572 96.6385L438.682 95.6447C429.631 94.6389 421.491 94.6248 413.338 98.7003C405.195 102.771 397.113 110.884 388.07 125.961L388.928 126.475ZM439.124 96.0864C438.124 87.0913 438.136 79.1891 442.08 71.3001C446.029 63.4016 453.957 55.4424 468.96 46.4434L468.446 45.5859C453.369 54.6286 445.256 62.7099 441.186 70.853C437.11 79.0055 437.124 87.1459 438.13 96.1968L439.124 96.0864ZM468.35 46.3682L486.389 64.4082L487.096 63.7011L469.057 45.6611L468.35 46.3682ZM487.096 64.4082L507.149 44.3535L506.442 43.6465L486.389 63.7011L487.096 64.4082ZM506.539 44.4288C521.542 53.4277 529.471 61.3872 533.419 69.2859C537.363 77.1752 537.376 85.0776 536.376 94.0727L537.37 94.1831C538.376 85.1322 538.39 76.9916 534.314 68.8388C530.243 60.6955 522.13 52.614 507.053 43.5712L506.539 44.4288ZM536.928 94.6249C545.923 93.6254 553.825 93.6374 561.715 97.5812C569.613 101.53 577.572 109.458 586.571 124.461L587.429 123.947C578.386 108.87 570.305 100.758 562.162 96.6867C554.009 92.6112 545.869 92.6253 536.818 93.631L536.928 94.6249ZM586.646 123.851L566.593 143.904L567.3 144.611L587.354 124.558L586.646 123.851ZM566.593 144.611L586.646 164.664L587.354 163.957L567.3 143.904L566.593 144.611ZM586.571 164.053C577.572 179.057 569.613 186.985 561.715 190.933C553.825 194.877 545.923 194.889 536.928 193.89L536.818 194.884C545.869 195.889 554.009 195.903 562.162 191.828C570.305 187.757 578.386 179.644 587.429 164.568L586.571 164.053ZM536.376 194.442C537.376 203.437 537.363 211.339 533.419 219.228C529.471 227.127 521.542 235.086 506.539 244.085L507.053 244.942C522.13 235.9 530.243 227.818 534.314 219.675C538.39 211.523 538.376 203.382 537.37 194.331L536.376 194.442ZM507.149 244.16L487.099 224.11L486.392 224.817L506.442 244.867L507.149 244.16ZM486.392 224.11L468.742 241.76L469.449 242.467L487.099 224.817L486.392 224.11ZM469.353 241.684C454.349 232.686 446.421 224.726 442.472 216.828C438.528 208.939 438.516 201.037 439.515 192.042L438.522 191.931C437.516 200.982 437.502 209.122 441.578 217.275C445.649 225.418 453.762 233.499 468.839 242.542L469.353 241.684ZM438.963 191.489C429.968 192.489 422.066 192.477 414.177 188.533C406.279 184.584 398.319 176.656 389.32 161.652L388.463 162.166C397.506 177.243 405.587 185.356 413.73 189.427C421.883 193.503 430.023 193.489 439.074 192.483L438.963 191.489ZM389.245 162.263L406.895 144.613L406.187 143.906L388.538 161.556L389.245 162.263ZM406.895 143.906L388.853 125.864L388.145 126.571L406.187 144.613L406.895 143.906Z" fill="#04412B"/>
</svg>
