<svg width="800" height="290" viewBox="0 0 800 290" fill="none" xmlns="http://www.w3.org/2000/svg"><path d="M140.809 134.103L398.706 75.68a10.001 10.001 0 012.209-.247h252.841m-512.947 58.67l188.496 35.865a10.01 10.01 0 001.869.176h210.27m-400.635-36.041l108.549 107.734a10.003 10.003 0 007.045 2.902h165.186" stroke="#04412B" stroke-dasharray="6 6"/><path d="M700.193 75.433c0 25.646-20.791 46.436-46.437 46.436-25.646 0-46.436-20.79-46.436-46.436s20.79-46.437 46.436-46.437 46.437 20.79 46.437 46.437zM587.88 169.306c0 25.646-20.79 46.436-46.436 46.436s-46.436-20.79-46.436-46.436 20.79-46.437 46.436-46.437 46.436 20.791 46.436 46.437zm-119.017 73.757c0 25.646-20.79 46.437-46.436 46.437s-46.436-20.791-46.436-46.437c0-25.646 20.79-46.436 46.436-46.436s46.436 20.79 46.436 46.436z" fill="#FBF9F0" stroke="#04412B"/><path d="M80.601 56.018c32.787-8.203 43.717 0 54.646 13.661 10.929-13.661 21.859-21.864 54.646-13.661V80.6h27.327c8.203 32.788 0 43.717-13.662 54.647 13.662 10.929 21.864 21.858 13.662 54.646h-27.328l.001 27.325c-32.788 8.203-43.717 0-54.646-13.661-10.929 13.661-21.859 21.864-54.647 13.662v-27.325H56.55c-8.203-32.787-.001-43.717 13.66-54.646-13.661-10.929-21.863-21.858-13.66-54.646H80.6l.001-24.585z" fill="#FBF9F0"/><path d="M80.601 56.018l-.121-.485-.379.094v.39h.5zm54.646 13.661l-.39.313.39.488.39-.488-.39-.313zm54.646-13.661h.5v-.39l-.379-.095-.121.485zm0 24.583h-.5v.5h.5v-.5zm27.327 0l.485-.121-.094-.38h-.391v.5zm-13.662 54.647l-.312-.391-.488.391.488.39.312-.39zm13.662 54.646v.5h.39l.095-.379-.485-.121zm-27.328 0v-.5h-.5v.5h.5zm.001 27.325l.121.485.379-.095v-.39h-.5zm-54.646-13.661l.39-.313-.39-.488-.39.488.39.313zM80.6 217.22h-.5v.39l.379.095.121-.485zm0-27.325h.5v-.5h-.5v.5zm-24.05 0l-.486.122.095.378h.39v-.5zm13.66-54.646l.313.391.488-.391-.488-.39-.312.39zM56.55 80.603v-.5h-.391l-.095.379.485.12zm24.05 0v.5h.5v-.5h-.5zm.122-24.1c16.353-4.09 27.173-4.069 35.241-1.38 8.057 2.687 13.447 8.06 18.894 14.869l.78-.625c-5.482-6.853-11.021-12.412-19.358-15.192-8.327-2.776-19.364-2.754-35.8 1.358l.243.97zm54.915 13.489c5.448-6.81 10.837-12.182 18.894-14.868 8.068-2.69 18.888-2.712 35.241 1.379l.242-.97c-16.435-4.112-27.472-4.134-35.799-1.358-8.337 2.78-13.876 8.34-19.358 15.192l.78.625zm53.756-13.974V80.6h1V56.018h-1zm.5 25.083h27.327v-1h-27.327v1zm26.842-.379c4.091 16.353 4.069 27.174 1.379 35.241-2.687 8.057-8.059 13.447-14.868 18.894l.624.781c6.853-5.482 12.413-11.022 15.193-19.359 2.776-8.326 2.754-19.364-1.358-35.8l-.97.243zm-13.489 54.916c6.809 5.447 12.181 10.837 14.867 18.894 2.69 8.067 2.712 18.888-1.379 35.241l.971.242c4.111-16.435 4.133-27.473 1.357-35.799-2.779-8.337-8.339-13.877-15.192-19.359l-.624.781zm13.974 53.756h-27.328v1h27.328v-1zm-27.828.5l.001 27.325h1l-.001-27.325h-1zm.38 26.84c-16.353 4.091-27.174 4.069-35.241 1.379-8.057-2.686-13.446-8.059-18.894-14.868l-.78.625c5.482 6.853 11.021 12.412 19.358 15.192 8.327 2.776 19.364 2.754 35.799-1.358l-.242-.97zm-54.915-13.489c-5.447 6.809-10.837 12.182-18.895 14.868-8.067 2.69-18.888 2.713-35.24-1.378l-.243.97c16.435 4.111 27.473 4.133 35.8 1.357 8.337-2.78 13.876-8.339 19.358-15.192l-.78-.625zM81.1 217.22v-27.325h-1v27.325h1zm-.5-27.825H56.55v1H80.6v-1zm-23.566.379c-4.09-16.352-4.069-27.173-1.379-35.24 2.687-8.058 8.059-13.447 14.868-18.894l-.625-.781c-6.852 5.482-12.412 11.022-15.191 19.358-2.777 8.327-2.754 19.365 1.357 35.8l.97-.243zm13.489-54.915c-6.809-5.447-12.181-10.837-14.868-18.894-2.69-8.067-2.712-18.888 1.38-35.24l-.97-.243c-4.112 16.435-4.135 27.473-1.358 35.799 2.779 8.337 8.338 13.876 15.191 19.359l.625-.781zM56.549 81.103H80.6v-1H56.55v1zm24.551-.5l.001-24.585h-1v24.585h1z" fill="#04412B"/></svg>