<svg width="800" height="290" viewBox="0 0 800 290" fill="none" xmlns="http://www.w3.org/2000/svg"><path d="M223.229 144.902h210.502" stroke="#04412B" stroke-dasharray="6 6"/><path d="M51 126.218c18.042-30.08 32.082-32.082 50.128-30.076-2.005-18.046-.004-32.086 30.076-50.127l18.039 18.04L169.298 44c30.08 18.042 32.081 32.082 30.076 50.128 18.046-2.005 32.085-.004 50.127 30.076l-20.054 20.054 20.054 20.053c-18.042 30.08-32.081 32.081-50.127 30.076 2.005 18.046.003 32.085-30.077 50.127l-20.051-20.05-17.649 17.649c-30.081-18.041-32.083-32.081-30.077-50.127-18.046 2.006-32.086.003-50.127-30.077l17.649-17.649L51 126.218z" fill="#FBF9F0"/><path d="M51 126.218l-.429-.257-.2.334.275.276.354-.353zm50.128-30.076l-.055.496.621.07-.069-.622-.497.056zm30.076-50.127l.354-.354-.276-.276-.335.2.257.43zm18.039 18.04l-.353.353.353.354.354-.354-.354-.353zM169.298 44l.257-.429-.335-.2-.276.275.354.354zm30.076 50.128l-.497-.055-.069.62.621-.068-.055-.497zm50.127 30.076l.354.354.276-.276-.201-.335-.429.257zm-20.054 20.054l-.353-.354-.354.354.354.353.353-.353zm20.054 20.053l.429.257.201-.335-.276-.276-.354.354zm-50.127 30.076l.055-.497-.621-.069.069.621.497-.055zm-30.077 50.127l-.354.353.276.276.335-.201-.257-.428zm-20.051-20.05l.354-.354-.354-.353-.353.353.353.354zm-17.649 17.649l-.258.429.335.201.276-.276-.353-.354zm-30.077-50.127l.496.056.069-.622-.621.069.056.497zm-50.127-30.077l-.354-.353-.276.276.2.334.43-.257zm17.649-17.649l.353.353.354-.353-.353-.354-.354.354zm-18.396-17.689l2.256 2.256.707-.708-2.256-2.255-.707.707zm6.766 6.766l4.51 4.511.708-.708-4.51-4.51-.708.707zm9.021 9.021l2.255 2.255.707-.707-2.255-2.255-.707.707zm2.255 1.548l-2.206 2.206.707.707 2.207-2.206-.708-.707zm-6.618 6.619l-4.412 4.412.707.707 4.412-4.412-.707-.707zm-8.825 8.824l-2.206 2.207.707.707 2.206-2.206-.707-.708zm-2.281 2.817c.554.925 1.105 1.823 1.652 2.695l.847-.531a158.22 158.22 0 01-1.642-2.678l-.857.514zm5.138 7.976a99.401 99.401 0 003.781 5.089l.783-.623a98.54 98.54 0 01-3.744-5.038l-.82.572zm7.921 9.876a54.546 54.546 0 004.616 4.365l.642-.767a53.47 53.47 0 01-4.531-4.286l-.727.688zm9.797 8.082a33.868 33.868 0 005.746 2.773l.347-.938a32.876 32.876 0 01-5.577-2.691l-.516.856zm11.919 4.4c2.089.347 4.199.51 6.345.539l.013-1c-2.104-.028-4.163-.188-6.194-.525l-.164.986zm12.686.291c1.038-.085 2.087-.19 3.15-.308l-.111-.994a108.88 108.88 0 01-3.122.306l.083.996zm2.598-.86a109.452 109.452 0 00-.308 3.15l.996.083c.085-1.028.188-2.068.305-3.122l-.993-.111zm-.556 9.491c.029 2.146.192 4.256.539 6.345l.986-.164c-.337-2.031-.497-4.09-.525-6.195l-1 .014zm2.165 12.518a34.036 34.036 0 002.773 5.746l.857-.516a32.95 32.95 0 01-2.692-5.577l-.938.347zm6.49 10.927a54.585 54.585 0 004.366 4.615l.688-.726a53.498 53.498 0 01-4.287-4.531l-.767.642zm9.153 8.755a98.929 98.929 0 005.089 3.782l.572-.82a98.419 98.419 0 01-5.038-3.744l-.623.782zm10.37 7.268c.872.547 1.77 1.098 2.694 1.652l.515-.858a155.04 155.04 0 01-2.678-1.642l-.531.848zm3.305 1.577l2.206-2.206-.707-.707-2.206 2.206.707.707zm6.619-6.619l4.412-4.412-.707-.707-4.412 4.412.707.707zm8.824-8.824l2.207-2.207-.707-.707-2.207 2.206.707.708zm1.5-2.207l2.506 2.507.707-.707-2.506-2.507-.707.707zm7.519 7.519l5.012 5.013.707-.708-5.012-5.012-.707.707zm10.025 10.025l2.506 2.506.707-.707-2.506-2.506-.707.707zm3.117 2.581c.924-.554 1.823-1.105 2.695-1.652l-.531-.847c-.867.543-1.759 1.091-2.678 1.642l.514.857zm7.976-5.138a99.965 99.965 0 005.089-3.781l-.623-.782a99.018 99.018 0 01-5.038 3.743l.572.82zm9.875-7.921a54.421 54.421 0 004.366-4.616l-.767-.641a53.621 53.621 0 01-4.286 4.531l.687.726zm8.083-9.797a33.96 33.96 0 002.773-5.746l-.938-.346a32.987 32.987 0 01-2.692 5.577l.857.515zm4.4-11.919c.347-2.088.51-4.199.539-6.345l-1-.013c-.029 2.104-.188 4.163-.526 6.195l.987.163zm.291-12.685c-.086-1.039-.19-2.088-.308-3.151l-.994.111c.117 1.055.221 2.095.305 3.122l.997-.082zm-.86-2.598c1.062.118 2.112.222 3.15.308l.082-.997a112.613 112.613 0 01-3.122-.305l-.11.994zm9.49.555c2.147-.028 4.257-.191 6.346-.538l-.164-.987c-2.031.338-4.091.497-6.195.525l.013 1zm12.518-2.165a33.811 33.811 0 005.746-2.773l-.515-.857a32.91 32.91 0 01-5.577 2.692l.346.938zm10.927-6.489a54.591 54.591 0 004.616-4.366l-.726-.688a53.47 53.47 0 01-4.531 4.286l.641.768zm8.756-9.153a99.518 99.518 0 003.782-5.089l-.821-.571a98.823 98.823 0 01-3.743 5.037l.782.623zm7.267-10.369c.548-.873 1.098-1.771 1.653-2.695l-.858-.515c-.551.919-1.098 1.812-1.642 2.678l.847.532zm1.578-3.306l-2.507-2.507-.707.708 2.506 2.506.708-.707zm-7.521-7.52l-5.013-5.013-.707.707 5.013 5.013.707-.707zm-10.026-10.026l-2.507-2.507-.707.707 2.506 2.507.708-.707zm-2.507-1.8l2.507-2.506-.708-.707-2.506 2.506.707.707zm7.52-7.52l5.013-5.013-.707-.707-5.013 5.013.707.707zm10.027-10.027l2.507-2.506-.708-.707-2.506 2.506.707.707zm2.582-3.117a156.99 156.99 0 00-1.653-2.695l-.847.531a155.04 155.04 0 011.642 2.678l.858-.514zm-5.138-7.976a99.477 99.477 0 00-3.782-5.088l-.782.622a98.422 98.422 0 013.743 5.038l.821-.572zm-7.922-9.875a54.591 54.591 0 00-4.616-4.366l-.641.767a53.792 53.792 0 014.531 4.286l.726-.687zm-9.797-8.083a33.907 33.907 0 00-5.745-2.773l-.347.938a32.963 32.963 0 015.577 2.692l.515-.857zm-11.918-4.4c-2.089-.346-4.199-.509-6.346-.538l-.013 1c2.104.028 4.164.188 6.195.525l.164-.986zm-12.686-.29c-1.038.086-2.088.19-3.15.308l.11.994c1.055-.117 2.095-.22 3.122-.305l-.082-.997zm-2.598.86c.118-1.062.222-2.112.308-3.15l-.997-.082a108.822 108.822 0 01-.305 3.122l.994.11zm.556-9.49c-.029-2.147-.192-4.257-.539-6.346l-.986.164c.337 2.031.497 4.09.525 6.195l1-.014zm-2.165-12.519a33.94 33.94 0 00-2.773-5.746l-.857.516a32.96 32.96 0 012.692 5.577l.938-.347zm-6.49-10.927a54.39 54.39 0 00-4.366-4.616l-.687.726a53.793 53.793 0 014.286 4.531l.767-.641zm-9.152-8.756a99.903 99.903 0 00-5.089-3.782l-.572.82a98.54 98.54 0 015.038 3.744l.623-.782zm-10.37-7.267a161.645 161.645 0 00-2.695-1.653l-.514.858a158.22 158.22 0 012.678 1.642l.531-.847zm-3.306-1.578l-2.507 2.507.708.707 2.506-2.507-.707-.707zm-7.52 7.52l-5.014 5.015.707.707 5.014-5.014-.707-.707zm-10.028 10.028l-2.506 2.507.707.707 2.507-2.507-.708-.707zm-1.799 2.507l-2.255-2.255-.707.707 2.255 2.255.707-.707zm-6.765-6.765l-4.51-4.51-.707.707 4.51 4.51.707-.707zm-9.019-9.02l-2.255-2.255-.707.707 2.254 2.255.708-.707zm-2.866-2.33a157.65 157.65 0 00-2.695 1.652l.531.848a161.48 161.48 0 012.678-1.643l-.514-.857zm-7.976 5.138a99.42 99.42 0 00-5.088 3.781l.622.783a98.54 98.54 0 015.038-3.744l-.572-.82zm-9.875 7.921a54.741 54.741 0 00-4.366 4.616l.767.642a53.792 53.792 0 014.286-4.531l-.687-.727zm-8.083 9.797a33.94 33.94 0 00-2.773 5.746l.938.347a32.959 32.959 0 012.692-5.577l-.857-.516zm-4.399 11.919c-.347 2.089-.51 4.199-.539 6.345l1 .014c.028-2.105.188-4.164.525-6.195l-.986-.164zm-.291 12.686c.086 1.038.19 2.088.308 3.15l.994-.11a108.822 108.822 0 01-.305-3.123l-.997.083zm.86 2.598a111.54 111.54 0 00-3.15-.308l-.082.996c1.027.085 2.067.188 3.122.305l.11-.993zm-9.49-.556c-2.147.029-4.257.192-6.346.538l.164.987c2.031-.337 4.09-.497 6.195-.525l-.014-1zm-12.519 2.165a33.92 33.92 0 00-5.746 2.773l.516.857a32.914 32.914 0 015.577-2.692l-.347-.938zm-10.927 6.49a54.547 54.547 0 00-4.616 4.365l.726.688a53.47 53.47 0 014.531-4.286l-.641-.767zm-8.756 9.152a99.401 99.401 0 00-3.782 5.089l.82.572a98.48 98.48 0 013.744-5.038l-.782-.623zm-7.267 10.37c-.548.872-1.098 1.77-1.653 2.695l.858.514a158.22 158.22 0 011.642-2.678l-.847-.531z" fill="#04412B"/><path d="M388.499 126.218c18.042-30.08 32.082-32.082 50.128-30.076-2.005-18.046-.004-32.086 30.076-50.127l18.039 18.04L506.796 44c30.08 18.042 32.082 32.082 30.077 50.128 18.046-2.005 32.085-.004 50.127 30.076l-20.054 20.054L587 164.311c-18.042 30.08-32.081 32.081-50.127 30.076 2.005 18.046.003 32.085-30.077 50.127l-20.051-20.05-17.649 17.649c-30.081-18.041-32.083-32.081-30.077-50.127-18.046 2.006-32.086.003-50.127-30.077l17.649-17.649-18.042-18.042z" fill="#FBF9F0"/><path d="M388.499 126.218l-.429-.257-.201.334.276.276.354-.353zm50.128-30.076l-.055.496.621.07-.069-.622-.497.056zm30.076-50.127l.354-.354-.276-.276-.335.2.257.43zm18.039 18.04l-.353.353.353.354.354-.354-.354-.353zM506.796 44l.257-.429-.335-.2-.276.276.354.353zm30.077 50.128l-.497-.055-.069.62.621-.068-.055-.497zM587 124.204l.354.354.276-.276-.201-.335-.429.257zm-20.054 20.054l-.353-.354-.354.354.354.353.353-.353zM587 164.311l.429.257.201-.335-.276-.276-.354.354zm-50.127 30.076l.055-.497-.621-.069.069.621.497-.055zm-30.077 50.127l-.354.353.276.276.335-.201-.257-.428zm-20.051-20.05l.354-.354-.354-.353-.353.353.353.354zm-17.649 17.649l-.257.429.334.201.276-.276-.353-.354zm-30.077-50.127l.496.056.07-.622-.622.069.056.497zm-50.127-30.077l-.354-.353-.276.276.201.334.429-.257zm17.649-17.649l.354.353.353-.353-.353-.354-.354.354zm-17.613-17.785c8.999-15.004 16.958-22.932 24.857-26.88 7.889-3.944 15.792-3.956 24.787-2.957l.11-.993c-9.051-1.006-17.191-1.02-25.344 3.055-8.143 4.071-16.225 12.184-25.268 27.261l.858.514zm50.196-30.389c-1-8.995-.988-16.897 2.956-24.786 3.949-7.898 11.877-15.858 26.88-24.857l-.514-.857c-15.077 9.043-23.19 17.124-27.26 25.267-4.076 8.153-4.062 16.293-3.056 25.344l.994-.11zm29.226-49.718l18.039 18.04.707-.707-18.039-18.04-.707.707zm18.746 18.04l20.053-20.055-.707-.706L486.389 63.7l.707.707zm19.443-19.98c15.003 9 22.932 16.96 26.88 24.858 3.944 7.89 3.957 15.792 2.957 24.787l.994.11c1.006-9.05 1.02-17.191-3.056-25.344-4.071-8.143-12.184-16.225-27.261-25.268l-.514.858zm30.389 50.197c8.995-1 16.897-.988 24.787 2.956 7.898 3.949 15.857 11.877 24.856 26.88l.858-.514c-9.043-15.077-17.124-23.189-25.267-27.26-8.153-4.076-16.293-4.062-25.344-3.056l.11.994zm49.718 29.226l-20.053 20.053.707.707 20.054-20.053-.708-.707zm-20.053 20.76l20.053 20.053.708-.707-20.054-20.053-.707.707zm19.978 19.442c-8.999 15.004-16.958 22.932-24.856 26.88-7.89 3.944-15.792 3.956-24.787 2.957l-.11.994c9.051 1.005 17.191 1.019 25.344-3.056 8.143-4.071 16.224-12.184 25.267-27.26l-.858-.515zm-50.195 30.389c1 8.995.987 16.897-2.957 24.786-3.948 7.899-11.877 15.858-26.88 24.857l.514.857c15.077-9.042 23.19-17.124 27.261-25.267 4.076-8.152 4.062-16.293 3.056-25.344l-.994.111zm-29.227 49.718l-20.05-20.05-.707.707 20.05 20.05.707-.707zm-20.757-20.05l-17.65 17.65.707.707 17.65-17.65-.707-.707zm-17.039 17.574c-15.004-8.998-22.932-16.958-26.881-24.856-3.944-7.889-3.956-15.791-2.957-24.786l-.993-.111c-1.006 9.051-1.02 17.191 3.056 25.344 4.071 8.143 12.184 16.224 27.261 25.267l.514-.858zm-30.39-50.195c-8.995 1-16.897.988-24.786-2.956-7.898-3.949-15.858-11.877-24.857-26.881l-.857.514c9.043 15.077 17.124 23.19 25.267 27.261 8.153 4.076 16.293 4.062 25.344 3.056l-.111-.994zm-49.718-29.226l17.65-17.65-.708-.707-17.649 17.65.707.707zm17.65-18.357l-18.042-18.042-.708.707 18.042 18.042.708-.707z" fill="#04412B"/></svg>