<svg width="800" height="290" viewBox="0 0 800 290" fill="none" xmlns="http://www.w3.org/2000/svg"><path d="M387.737 88.52c26.67-6.673 35.561-.001 44.451 11.111 8.89-11.112 17.781-17.784 44.451-11.112l-.001 19.996h22.23c6.672 26.67-.001 35.561-11.114 44.451 11.113 8.89 17.785 17.78 11.113 44.451h-22.228v22.228c-26.67 6.672-35.56 0-44.45-11.113-8.89 11.113-17.781 17.786-44.451 11.114V197.42h-19.566c-6.672-26.67 0-35.56 11.113-44.45-11.113-8.891-17.784-17.781-11.112-44.452h19.564V88.519z" fill="#FBF9F0"/><path d="M387.737 88.52l-.121-.486-.379.095v.39h.5zm44.451 11.111l-.39.313.39.488.39-.488-.39-.313zm44.451-11.112h.5v-.39l-.379-.095-.121.485zm-.001 19.996h-.5v.5h.5v-.5zm22.23 0l.485-.121-.095-.379h-.39v.5zm-11.114 44.451l-.312-.39-.488.39.488.391.312-.391zm11.113 44.451v.5h.391l.094-.379-.485-.121zm-22.228 0v-.5h-.5v.5h.5zm0 22.228l.121.485.379-.095v-.39h-.5zm-44.45-11.113l.39-.312-.39-.488-.391.488.391.312zm-44.451 11.114h-.5v.39l.378.095.122-.485zm0-22.226h.5v-.5h-.5v.5zm-19.566 0l-.485.121.095.379h.39v-.5zm11.113-44.45l.312.39.488-.39-.488-.391-.312.391zm-11.112-44.452v-.5h-.391l-.094.379.485.121zm19.564 0v.5h.5v-.5h-.5zm-.5-19.999v2.5h1v-2.5h-1zm0 7.5v5h1v-5h-1zm0 10v2.499h1v-2.499h-1zm.5 1.999h-2.446v1h2.446v-1zm-7.337 0h-4.891v1h4.891v-1zm-9.782 0h-2.445v1h2.445v-1zm-2.93.379a119.614 119.614 0 00-.717 3.025l.976.218c.217-.974.454-1.974.711-3l-.97-.243zm-1.882 9.111a67.628 67.628 0 00-.692 6.176l.998.063c.118-1.891.343-3.914.682-6.085l-.988-.154zm-.688 12.417c.163 2.248.51 4.291 1.022 6.171l.964-.263c-.493-1.812-.83-3.791-.989-5.98l-.997.072zm3.37 11.991c1.025 1.856 2.249 3.535 3.631 5.107l.751-.661c-1.342-1.525-2.521-3.146-3.507-4.93l-.875.484zm8.092 9.462a82.894 82.894 0 002.393 1.982l.624-.781a80.34 80.34 0 01-2.363-1.958l-.654.757zm2.393 1.201a82.894 82.894 0 00-2.393 1.982l.654.757a81.954 81.954 0 012.363-1.958l-.624-.781zm-6.854 6.337c-1.382 1.572-2.606 3.251-3.631 5.107l.875.484c.985-1.784 2.165-3.405 3.507-4.93l-.751-.661zm-5.98 10.927c-.511 1.879-.858 3.923-1.022 6.17l.998.073c.159-2.189.496-4.168.989-5.98l-.965-.263zm-1.026 12.412a67.57 67.57 0 00.692 6.175l.988-.154a66.558 66.558 0 01-.682-6.084l-.998.063zm1.857 12.261c.219.983.458 1.991.717 3.025l.97-.242a118.707 118.707 0 01-.711-3.001l-.976.218zm1.202 3.404h2.446v-1h-2.446v1zm7.337 0h4.892v-1h-4.892v1zm9.783 0h2.446v-1h-2.446v1zm1.946-.5v2.778h1v-2.778h-1zm0 8.335v5.556h1v-5.556h-1zm0 11.112v2.779h1v-2.779h-1zm.378 3.264c1.035.258 2.043.497 3.025.717l.218-.976a127.98 127.98 0 01-3-.711l-.243.97zm9.111 1.881a66.93 66.93 0 006.176.692l.063-.998a66.207 66.207 0 01-6.084-.682l-.155.988zm12.418.688c2.247-.163 4.291-.51 6.17-1.022l-.263-.965c-1.812.494-3.791.831-5.98.99l.073.997zm11.99-3.371c1.856-1.025 3.535-2.248 5.107-3.631l-.661-.751c-1.525 1.342-3.145 2.522-4.929 3.507l.483.875zm9.462-8.092a81.282 81.282 0 001.982-2.393l-.781-.624a80.34 80.34 0 01-1.958 2.363l.757.654zm1.201-2.393a82.894 82.894 0 001.982 2.393l.757-.654a81.954 81.954 0 01-1.958-2.363l-.781.624zm6.337 6.854c1.572 1.383 3.251 2.606 5.107 3.631l.484-.875c-1.784-.985-3.405-2.165-4.93-3.507l-.661.751zm10.927 5.98c1.879.511 3.923.858 6.17 1.022l.073-.998c-2.189-.159-4.168-.496-5.98-.989l-.263.965zm12.412 1.026a67.57 67.57 0 006.175-.692l-.154-.988c-2.17.339-4.193.563-6.084.682l.063.998zm12.261-1.857c.983-.219 1.991-.458 3.025-.717l-.242-.97c-1.027.257-2.027.494-3.001.711l.218.976zm3.404-1.202v-2.779h-1v2.779h1zm0-8.336v-5.557h-1v5.557h1zm0-11.114v-2.778h-1v2.778h1zm-.5-2.278h2.778v-1h-2.778v1zm8.336 0h5.557v-1h-5.557v1zm11.114 0h2.778v-1h-2.778v1zm3.263-.379c.259-1.034.498-2.043.717-3.025l-.976-.218c-.217.974-.454 1.974-.711 3l.97.243zm1.882-9.111a67.59 67.59 0 00.692-6.176l-.998-.062a66.246 66.246 0 01-.682 6.084l.988.154zm.688-12.417c-.163-2.248-.51-4.291-1.022-6.17l-.965.262c.493 1.812.831 3.792.99 5.98l.997-.072zm-3.37-11.99c-1.026-1.857-2.249-3.536-3.632-5.107l-.751.66c1.343 1.526 2.522 3.146 3.507 4.93l.876-.483zm-8.093-9.462a82.558 82.558 0 00-2.392-1.982l-.625.781a81.731 81.731 0 012.364 1.958l.653-.757zm-2.392-1.201a85.955 85.955 0 002.392-1.982l-.653-.757a85.143 85.143 0 01-2.364 1.958l.625.781zm6.853-6.338c1.383-1.571 2.606-3.25 3.632-5.107l-.876-.483c-.985 1.784-2.164 3.404-3.507 4.93l.751.66zm5.98-10.927c.512-1.879.859-3.922 1.022-6.17l-.997-.072c-.159 2.188-.496 4.168-.989 5.98l.964.262zm1.027-12.411a67.59 67.59 0 00-.692-6.176l-.988.154c.339 2.171.563 4.193.682 6.084l.998-.062zm-1.857-12.262c-.219-.983-.458-1.991-.717-3.025l-.97.242c.257 1.027.494 2.027.711 3.001l.976-.218zm-1.202-3.404h-2.779v1h2.779v-1zm-8.336 0h-5.558v1h5.558v-1zm-11.115 0h-2.779v1h2.779v-1zm-2.279.5v-2.499h-1v2.499h1zm.001-7.498v-5h-1v5h1zm0-9.998v-2.5h-1v2.5h1zm-.379-2.985a121.65 121.65 0 00-3.025-.717l-.218.976c.974.218 1.974.454 3.001.711l.242-.97zm-9.111-1.882a67.4 67.4 0 00-6.175-.692l-.063.998a66.46 66.46 0 016.084.682l.154-.988zm-12.417-.688c-2.247.164-4.291.51-6.17 1.022l.263.965c1.812-.493 3.791-.83 5.98-.99l-.073-.997zm-11.99 3.37c-1.857 1.026-3.535 2.249-5.107 3.632l.66.75c1.526-1.342 3.146-2.521 4.93-3.506l-.483-.876zm-9.463 8.093a83.519 83.519 0 00-1.981 2.392l.78.625a84.094 84.094 0 011.958-2.364l-.757-.653zm-1.201 2.392a83.519 83.519 0 00-1.981-2.392l-.757.653c.656.76 1.306 1.55 1.958 2.364l.78-.625zm-6.337-6.853c-1.572-1.383-3.25-2.606-5.107-3.632l-.483.876c1.784.985 3.404 2.164 4.93 3.507l.66-.751zm-10.927-5.98c-1.879-.511-3.923-.858-6.17-1.022l-.073.998c2.189.159 4.168.496 5.98.989l.263-.965zm-12.412-1.026a67.57 67.57 0 00-6.175.692l.154.988a66.421 66.421 0 016.084-.682l-.063-.998zm-12.261 1.857c-.983.22-1.991.458-3.025.717l.242.97c1.027-.257 2.027-.493 3.001-.71l-.218-.977z" fill="#04412B"/><path d="M290.924 114.427c26.67-6.672 35.56 0 44.45 11.113 8.89-11.113 17.78-17.784 44.45-11.113v19.994h22.23c6.672 26.671 0 35.561-11.113 44.451 11.113 8.89 17.784 17.78 11.112 44.451h-22.227v22.228c-26.67 6.672-35.56 0-44.45-11.113-8.89 11.113-17.781 17.785-44.451 11.112v-22.224h-19.564c-6.672-26.67 0-35.56 11.113-44.45-11.113-8.89-17.785-17.78-11.113-44.451h19.563v-19.998z" fill="#FBF9F0"/><path d="M290.924 114.427l-.122-.485-.378.095v.39h.5zm44.45 11.113l-.391.313.391.488.39-.488-.39-.313zm44.45-11.113h.5v-.39l-.378-.095-.122.485zm0 19.994h-.5v.5h.5v-.5zm22.23 0l.485-.121-.095-.379h-.39v.5zm-11.113 44.451l-.312-.391-.488.391.488.39.312-.39zm11.112 44.451v.5h.39l.095-.379-.485-.121zm-22.227 0v-.5h-.5v.5h.5zm0 22.228l.122.485.378-.095v-.39h-.5zm-44.45-11.113l.39-.312-.39-.488-.39.488.39.312zm-44.451 11.112h-.5v.391l.379.095.121-.486zm0-22.224h.5v-.5h-.5v.5zm-19.564 0l-.485.122.094.378h.391v-.5zm11.113-44.45l.312.39.488-.39-.488-.391-.312.391zm-11.113-44.451v-.5h-.391l-.094.379.485.121zm19.563 0v.5h.5v-.5h-.5zm-.5-19.998v2.5h1v-2.5h-1zm0 7.5v4.999h1v-4.999h-1zm0 9.999v2.499h1v-2.499h-1zm.5 1.999h-2.446v1h2.446v-1zm-7.336 0h-4.891v1h4.891v-1zm-9.782 0h-2.445v1h2.445v-1zm-2.93.379a118.599 118.599 0 00-.717 3.025l.976.218c.217-.974.454-1.974.711-3l-.97-.243zm-1.882 9.111a67.59 67.59 0 00-.692 6.176l.998.062c.119-1.891.343-3.913.682-6.084l-.988-.154zm-.688 12.417c.163 2.248.51 4.291 1.022 6.17l.965-.262c-.493-1.812-.831-3.792-.99-5.98l-.997.072zm3.37 11.99c1.026 1.857 2.249 3.536 3.632 5.107l.751-.66c-1.343-1.526-2.522-3.146-3.507-4.93l-.876.483zm8.093 9.462a82.558 82.558 0 002.392 1.982l.625-.781a81.731 81.731 0 01-2.364-1.958l-.653.757zm2.392 1.201a85.955 85.955 0 00-2.392 1.982l.653.757a85.143 85.143 0 012.364-1.958l-.625-.781zm-6.853 6.338c-1.383 1.571-2.606 3.25-3.632 5.106l.876.484c.985-1.784 2.164-3.404 3.507-4.93l-.751-.66zm-5.98 10.926c-.512 1.88-.859 3.923-1.022 6.171l.997.072c.16-2.189.497-4.168.99-5.98l-.965-.263zm-1.026 12.412c.121 1.925.349 3.978.692 6.176l.988-.155a66.558 66.558 0 01-.682-6.084l-.998.063zm1.857 12.261c.219.983.458 1.991.717 3.026l.97-.243a118.652 118.652 0 01-.711-3l-.976.217zm1.202 3.404h2.445v-1h-2.445v1zm7.336 0h4.891v-1h-4.891v1zm9.782 0h2.446v-1h-2.446v1zm1.946-.5v2.778h1v-2.778h-1zm0 8.334v5.556h1v-5.556h-1zm0 11.112v2.778h1v-2.778h-1zm.379 3.264c1.034.258 2.042.497 3.025.717l.218-.976c-.974-.218-1.974-.455-3.001-.712l-.242.971zm9.111 1.881c2.197.344 4.25.572 6.175.693l.063-.998a66.578 66.578 0 01-6.084-.683l-.154.988zm12.417.688c2.247-.163 4.291-.51 6.17-1.021l-.263-.965c-1.812.493-3.791.83-5.98.989l.073.997zm11.99-3.37c1.857-1.025 3.535-2.248 5.107-3.631l-.66-.751c-1.526 1.342-3.146 2.522-4.93 3.507l.483.875zm9.463-8.092a84.205 84.205 0 001.981-2.392l-.78-.625a85.143 85.143 0 01-1.958 2.364l.757.653zm1.201-2.392c.657.821 1.315 1.62 1.981 2.392l.757-.653a85.143 85.143 0 01-1.958-2.364l-.78.625zm6.337 6.853c1.571 1.383 3.25 2.606 5.106 3.631l.484-.875c-1.784-.985-3.404-2.165-4.93-3.507l-.66.751zm10.927 5.98c1.879.512 3.922.859 6.17 1.022l.072-.997c-2.188-.16-4.168-.497-5.98-.99l-.262.965zm12.411 1.026a67.628 67.628 0 006.176-.692l-.155-.988c-2.17.339-4.193.563-6.084.682l.063.998zm12.261-1.857a119.67 119.67 0 003.026-.717l-.243-.97c-1.027.257-2.026.494-3 .711l.217.976zm3.404-1.202v-2.778h-1v2.778h1zm0-8.335v-5.558h-1v5.558h1zm0-11.115v-2.778h-1v2.778h1zm-.5-2.278h2.779v-1h-2.779v1zm8.335 0h5.557v-1h-5.557v1zm11.114 0h2.778v-1h-2.778v1zm3.263-.379c.259-1.034.498-2.042.717-3.025l-.976-.218c-.217.974-.454 1.974-.711 3l.97.243zm1.882-9.111a67.59 67.59 0 00.692-6.176l-.998-.062a66.246 66.246 0 01-.682 6.084l.988.154zm.688-12.417c-.163-2.248-.51-4.291-1.022-6.17l-.965.262c.494 1.812.831 3.792.99 5.98l.997-.072zm-3.37-11.991c-1.025-1.856-2.249-3.535-3.631-5.106l-.751.66c1.342 1.526 2.521 3.146 3.507 4.93l.875-.484zm-8.092-9.462a82.894 82.894 0 00-2.393-1.982l-.624.781a81.954 81.954 0 012.363 1.958l.654-.757zm-2.393-1.201a81.282 81.282 0 002.393-1.982l-.654-.757a80.34 80.34 0 01-2.363 1.958l.624.781zm6.854-6.337c1.382-1.572 2.606-3.25 3.631-5.107l-.875-.483c-.985 1.784-2.165 3.404-3.507 4.929l.751.661zm5.98-10.927c.511-1.879.858-3.923 1.022-6.17l-.998-.073c-.159 2.189-.496 4.168-.989 5.98l.965.263zm1.026-12.411a67.59 67.59 0 00-.692-6.176l-.988.154c.339 2.171.563 4.193.682 6.084l.998-.062zm-1.857-12.262c-.22-.983-.458-1.991-.717-3.025l-.97.243c.257 1.026.493 2.026.711 3l.976-.218zm-1.202-3.404h-2.779v1h2.779v-1zm-8.336 0h-5.558v1h5.558v-1zm-11.115 0h-2.779v1h2.779v-1zm-2.279.5v-2.499h-1v2.499h1zm0-7.497v-4.999h-1v4.999h1zm0-9.997v-2.5h-1v2.5h1zm-.378-2.985a128.99 128.99 0 00-3.026-.717l-.218.976c.975.218 1.974.455 3.001.712l.243-.971zm-9.111-1.881a67.277 67.277 0 00-6.176-.692l-.063.998c1.891.118 3.914.343 6.084.682l.155-.988zm-12.417-.688c-2.248.163-4.291.51-6.171 1.022l.263.965c1.812-.494 3.791-.831 5.98-.99l-.072-.997zm-11.991 3.37c-1.856 1.025-3.535 2.249-5.106 3.632l.66.75c1.526-1.342 3.146-2.521 4.93-3.506l-.484-.876zm-9.462 8.093a84.514 84.514 0 00-1.982 2.392l.781.625a83.695 83.695 0 011.958-2.364l-.757-.653zm-1.201 2.392a81.228 81.228 0 00-1.982-2.392l-.757.653a80.396 80.396 0 011.958 2.364l.781-.625zm-6.337-6.853c-1.571-1.383-3.25-2.607-5.107-3.632l-.483.876c1.784.985 3.404 2.164 4.93 3.506l.66-.75zm-10.927-5.98c-1.879-.512-3.922-.859-6.17-1.022l-.072.997c2.188.159 4.168.496 5.98.989l.262-.964zm-12.411-1.026a66.93 66.93 0 00-6.176.692l.154.988a66.284 66.284 0 016.084-.682l-.062-.998zm-12.262 1.856c-.982.22-1.99.459-3.025.717l.243.971c1.026-.257 2.026-.494 3-.712l-.218-.976z" fill="#04412B"/><path d="M181.841 88.519c26.67-6.672 35.56 0 44.45 11.112 8.89-11.112 17.781-17.784 44.451-11.112v19.996h22.229c6.672 26.671 0 35.561-11.112 44.451 11.112 8.89 17.784 17.78 11.112 44.45h-22.227v22.23c-26.67 6.672-35.561 0-44.451-11.112-8.89 11.112-17.78 17.784-44.451 11.112v-22.225l-19.565-.001c-6.672-26.67 0-35.56 11.113-44.45-11.113-8.89-17.785-17.78-11.113-44.451h19.564v-20z" fill="#FBF9F0"/><path d="M181.841 88.519l-.121-.485-.379.094v.39h.5zm44.45 11.112l-.39.313.39.488.391-.488-.391-.313zm44.451-11.112h.5v-.39l-.378-.095-.122.485zm0 19.996h-.5v.5h.5v-.5zm22.229 0l.485-.121-.094-.379h-.391v.5zm-11.112 44.451l-.313-.391-.488.391.488.39.313-.39zm11.112 44.45v.5h.391l.094-.379-.485-.121zm-22.227 0v-.5h-.5v.5h.5zm0 22.23l.122.485.378-.095v-.39h-.5zm-44.451-11.112l.391-.313-.391-.488-.39.488.39.313zm-44.451 11.112h-.5v.39l.379.095.121-.485zm0-22.225h.5v-.5h-.5v.5zm-19.565-.001l-.485.122.095.378h.39v-.5zm11.113-44.45l.312.39.488-.39-.488-.391-.312.391zm-11.113-44.451v-.5h-.39l-.095.379.485.121zm19.564 0v.5h.5v-.5h-.5zm-.5-20v2.5h1v-2.5h-1zm0 7.5v5h1v-5h-1zm0 10v2.5h1v-2.5h-1zm.5 2h-2.445v1h2.445v-1zm-7.337 0h-4.891v1h4.891v-1zm-9.782 0h-2.445v1h2.445v-1zm-2.93.379a118.599 118.599 0 00-.717 3.025l.976.218c.217-.974.454-1.974.711-3l-.97-.243zm-1.882 9.111a67.59 67.59 0 00-.692 6.176l.998.062c.119-1.891.343-3.913.682-6.084l-.988-.154zm-.688 12.417c.163 2.248.51 4.291 1.022 6.17l.965-.262c-.493-1.812-.831-3.792-.99-5.98l-.997.072zm3.37 11.99c1.026 1.857 2.249 3.535 3.632 5.107l.751-.66c-1.343-1.526-2.522-3.146-3.507-4.93l-.876.483zm8.093 9.462a82.558 82.558 0 002.392 1.982l.625-.781a81.731 81.731 0 01-2.364-1.958l-.653.757zm2.392 1.201a85.955 85.955 0 00-2.392 1.982l.653.757a85.143 85.143 0 012.364-1.958l-.625-.781zm-6.853 6.337c-1.383 1.572-2.606 3.251-3.631 5.107l.875.484c.985-1.784 2.165-3.404 3.507-4.93l-.751-.661zm-5.98 10.927c-.512 1.88-.858 3.923-1.022 6.171l.997.072c.16-2.189.497-4.168.99-5.98l-.965-.263zm-1.026 12.412c.121 1.925.349 3.978.692 6.176l.988-.155a66.558 66.558 0 01-.682-6.084l-.998.063zm1.857 12.261c.219.983.458 1.991.717 3.026l.97-.243a117.692 117.692 0 01-.711-3.001l-.976.218zm1.202 3.404h2.445v-1h-2.445v1zm7.337 0l4.891.001v-1l-4.891-.001v1zm9.782.001h2.446v-1h-2.446v1zm1.946-.5v2.778h1v-2.778h-1zm0 8.334v5.556h1v-5.556h-1zm0 11.113v2.778h1v-2.778h-1zm.379 3.263c1.034.259 2.042.497 3.025.717l.218-.976a126.8 126.8 0 01-3-.711l-.243.97zm9.111 1.882a67.59 67.59 0 006.176.692l.062-.998a66.597 66.597 0 01-6.084-.682l-.154.988zm12.417.688c2.248-.164 4.291-.511 6.17-1.022l-.262-.965c-1.812.493-3.792.83-5.98.989l.072.998zm11.991-3.371c1.856-1.025 3.535-2.248 5.107-3.631l-.661-.751c-1.526 1.343-3.146 2.522-4.93 3.507l.484.875zm9.462-8.092a84.222 84.222 0 001.982-2.392l-.781-.625a83.402 83.402 0 01-1.958 2.364l.757.653zm1.201-2.392c.657.821 1.316 1.62 1.982 2.392l.757-.653a81.731 81.731 0 01-1.958-2.364l-.781.625zm6.337 6.853c1.572 1.383 3.251 2.606 5.107 3.631l.484-.875c-1.784-.985-3.405-2.164-4.93-3.507l-.661.751zm10.927 5.98c1.88.511 3.923.858 6.171 1.022l.072-.998c-2.188-.159-4.168-.496-5.98-.989l-.263.965zm12.412 1.026a67.628 67.628 0 006.176-.692l-.155-.988c-2.17.339-4.193.563-6.084.682l.063.998zm12.262-1.857c.982-.22 1.99-.458 3.025-.717l-.243-.97a126.8 126.8 0 01-3 .711l.218.976zm3.403-1.202v-2.779h-1v2.779h1zm0-8.336v-5.558h-1v5.558h1zm0-11.115v-2.779h-1v2.779h1zm-.5-2.279h2.779v-1h-2.779v1zm8.336 0h5.556v-1h-5.556v1zm11.113 0h2.778v-1h-2.778v1zm3.263-.379c.259-1.034.498-2.042.717-3.025l-.976-.218c-.217.974-.454 1.974-.711 3.001l.97.242zm1.882-9.111c.343-2.197.572-4.25.692-6.175l-.998-.063a66.207 66.207 0 01-.682 6.084l.988.154zm.688-12.417c-.163-2.247-.51-4.291-1.022-6.17l-.965.263c.494 1.812.831 3.791.99 5.98l.997-.073zm-3.37-11.99c-1.026-1.856-2.249-3.535-3.632-5.107l-.751.661c1.343 1.525 2.522 3.146 3.507 4.93l.876-.484zm-8.093-9.462a84.222 84.222 0 00-2.392-1.982l-.625.781a83.402 83.402 0 012.364 1.958l.653-.757zm-2.392-1.201a82.558 82.558 0 002.392-1.982l-.653-.757a81.731 81.731 0 01-2.364 1.958l.625.781zm6.853-6.337c1.383-1.572 2.606-3.25 3.632-5.107l-.876-.483c-.985 1.784-2.164 3.404-3.507 4.929l.751.661zm5.98-10.927c.512-1.879.859-3.923 1.022-6.17l-.997-.073c-.159 2.189-.496 4.168-.99 5.98l.965.263zm1.026-12.411a67.239 67.239 0 00-.692-6.176l-.988.154c.339 2.171.564 4.193.682 6.084l.998-.062zm-1.857-12.262c-.219-.983-.458-1.991-.717-3.025l-.97.243c.257 1.026.494 2.026.711 3l.976-.218zm-1.202-3.404h-2.778v1h2.778v-1zm-8.336 0h-5.557v1h5.557v-1zm-11.115 0h-2.778v1h2.778v-1zm-2.278.5v-2.499h-1v2.499h1zm0-7.498v-5h-1v5h1zm0-9.998v-2.5h-1v2.5h1zm-.378-2.985a123.343 123.343 0 00-3.025-.717l-.218.976a126.8 126.8 0 013 .711l.243-.97zm-9.111-1.881a67.491 67.491 0 00-6.176-.693l-.063.998c1.891.12 3.914.344 6.084.683l.155-.988zm-12.417-.689c-2.248.164-4.291.51-6.171 1.022l.263.965c1.812-.493 3.791-.83 5.98-.99l-.072-.996zm-11.991 3.37c-1.856 1.026-3.535 2.25-5.107 3.632l.661.75c1.525-1.341 3.146-2.52 4.93-3.506l-.484-.875zm-9.462 8.093a81.904 81.904 0 00-1.982 2.392l.781.625a80.632 80.632 0 011.958-2.364l-.757-.653zm-1.201 2.392a83.398 83.398 0 00-1.982-2.392l-.757.653c.656.76 1.307 1.55 1.958 2.364l.781-.625zm-6.337-6.853c-1.572-1.383-3.251-2.606-5.107-3.631l-.484.875c1.784.985 3.405 2.164 4.93 3.507l.661-.751zm-10.927-5.98c-1.879-.512-3.923-.859-6.17-1.022l-.073.997c2.189.16 4.168.497 5.98.99l.263-.965zm-12.412-1.026c-1.925.12-3.978.349-6.175.692l.154.988a66.456 66.456 0 016.084-.682l-.063-.998zm-12.261 1.857c-.983.22-1.991.458-3.025.717l.242.97c1.027-.257 2.027-.494 3.001-.711l-.218-.976z" fill="#04412B"/><path d="M86.391 45.568c26.671-6.672 35.561 0 44.452 11.114 8.89-11.113 17.78-17.785 44.45-11.113l-.001 19.995 22.231-.001c6.672 26.67-.001 35.561-11.114 44.451 11.113 8.89 17.785 17.78 11.113 44.45h-22.228v22.23c-26.67 6.672-35.561 0-44.451-11.113-8.89 11.113-17.78 17.784-44.45 11.112l-.002-22.228-19.566.001c-6.672-26.67 0-35.561 11.114-44.451-11.113-8.89-17.786-17.78-11.114-44.45h19.566V45.567z" fill="#FBF9F0"/><path d="M86.391 45.568l-.12-.485-.38.095v.39h.5zm44.452 11.114l-.391.312.391.488.39-.488-.39-.312zm44.45-11.113h.5v-.39l-.379-.095-.121.485zm-.001 19.995h-.5v.5h.5v-.5zm22.231-.001l.485-.122-.095-.378h-.39v.5zm-11.114 44.451l-.312-.391-.488.391.488.39.312-.39zm11.113 44.45v.5h.39l.095-.379-.485-.121zm-22.228 0v-.5h-.5v.5h.5zm0 22.23l.121.485.379-.095v-.39h-.5zm-44.451-11.113l.391-.312-.391-.488-.39.488.39.312zm-44.45 11.112h-.5v.39l.378.095.121-.485zm-.002-22.228h.5v-.5h-.5v.5zm-19.566.001l-.485.122.095.378h.39v-.5zm11.114-44.451l.312.391.488-.391-.488-.39-.312.39zm-11.114-44.45v-.5h-.39l-.095.378.485.121zm19.566 0v.5h.5v-.5h-.5zm.122-19.512c13.294-3.325 22.075-3.303 28.613-1.123 6.528 2.177 10.899 6.53 15.326 12.064l.781-.624c-4.463-5.579-8.983-10.119-15.79-12.389-6.798-2.266-15.796-2.244-29.173 1.102l.243.97zm44.72 10.941c4.428-5.534 8.798-9.887 15.325-12.064 6.538-2.18 15.32-2.202 28.614 1.124l.242-.97c-13.376-3.346-22.375-3.369-29.172-1.102-6.807 2.27-11.327 6.81-15.79 12.388l.781.624zm43.56-11.425l-.001 19.994h1l.001-19.994h-1zm.499 20.495l22.231-.001v-1h-22.231v1zm21.746-.38c3.325 13.294 3.303 22.076 1.123 28.614-2.177 6.528-6.53 10.898-12.064 15.325l.624.781c5.579-4.462 10.119-8.983 12.389-15.79 2.266-6.797 2.244-15.796-1.102-29.173l-.97.243zm-10.941 44.72c5.534 4.428 9.887 8.798 12.064 15.326 2.179 6.537 2.202 15.319-1.124 28.613l.97.242c3.346-13.376 3.369-22.375 1.102-29.172-2.269-6.807-6.809-11.327-12.388-15.79l-.624.781zm11.425 43.56h-22.228v1h22.228v-1zm-22.728.5v22.23h1v-22.23h-1zm.378 21.745c-13.293 3.325-22.075 3.303-28.613 1.123-6.528-2.176-10.898-6.529-15.325-12.063l-.781.624c4.462 5.579 8.982 10.118 15.79 12.388 6.797 2.266 15.796 2.244 29.172-1.102l-.243-.97zm-44.719-10.94c-4.428 5.534-8.798 9.887-15.326 12.063-6.538 2.18-15.32 2.202-28.614-1.124l-.242.97c13.376 3.347 22.375 3.369 29.172 1.103 6.808-2.27 11.328-6.809 15.791-12.388l-.781-.624zm-43.56 11.424l-.002-22.228-1 .001.001 22.227h1zm-.502-22.728l-19.566.001v1l19.566-.001v-1zm-19.08.38c-3.327-13.294-3.304-22.076-1.124-28.614 2.177-6.528 6.53-10.898 12.064-15.325l-.625-.781c-5.578 4.462-10.118 8.982-12.388 15.79-2.266 6.797-2.244 15.796 1.102 29.173l.97-.243zm10.94-44.72c-5.535-4.428-9.888-8.798-12.064-15.326-2.18-6.538-2.203-15.32 1.123-28.614l-.97-.242c-3.346 13.376-3.368 22.375-1.102 29.172 2.27 6.808 6.81 11.328 12.388 15.791l.625-.781zm-11.426-43.56h19.566v-1H66.825v1zm20.066-.5V45.567h-1v19.996h1z" fill="#04412B"/></svg>