<svg width="800" height="290" viewBox="0 0 800 290" fill="none" xmlns="http://www.w3.org/2000/svg">
<path d="M133.357 151.97L416.832 151.97M416.832 151.97L506.65 243.467C508.531 245.383 511.102 246.462 513.786 246.462L800 246.462M416.832 151.97L506.645 59.6392C508.528 57.7037 511.113 56.6118 513.813 56.6118L800 56.6118" stroke="#04412B" stroke-dasharray="6 6"/>
<path d="M32 135.017C49.9806 105.038 63.9732 103.044 81.958 105.043C79.9595 87.0581 81.9541 73.0656 111.933 55.085L129.91 73.0644L149.896 53.0781C179.875 71.0586 181.869 85.0505 179.871 103.035C197.856 101.037 211.848 103.032 229.828 133.01L209.843 152.996L229.828 172.98C211.848 202.959 197.856 204.954 179.871 202.955C181.87 220.94 179.875 234.932 149.896 252.912L129.913 232.93L112.323 250.52C82.3449 232.539 80.3502 218.547 82.3486 200.562C64.3638 202.561 50.3722 200.566 32.3916 170.588L49.9814 152.998L32 135.017Z" fill="#FBF9F0"/>
<path d="M32 135.017L31.5712 134.759L31.3704 135.094L31.6464 135.37L32 135.017ZM81.958 105.043L81.9028 105.54L82.524 105.609L82.4549 104.988L81.958 105.043ZM111.933 55.085L112.286 54.7314L112.01 54.4554L111.675 54.6562L111.933 55.085ZM129.91 73.0644L129.557 73.418L129.91 73.7716L130.264 73.418L129.91 73.0644ZM149.896 53.0781L150.154 52.6493L149.819 52.4486L149.543 52.7246L149.896 53.0781ZM179.871 103.035L179.374 102.98L179.305 103.601L179.926 103.532L179.871 103.035ZM229.828 133.01L230.182 133.363L230.458 133.087L230.257 132.753L229.828 133.01ZM209.843 152.996L209.489 152.643L209.136 152.996L209.489 153.35L209.843 152.996ZM229.828 172.98L230.257 173.238L230.458 172.903L230.182 172.627L229.828 172.98ZM179.871 202.955L179.926 202.458L179.305 202.389L179.374 203.01L179.871 202.955ZM149.896 252.912L149.543 253.266L149.819 253.542L150.154 253.341L149.896 252.912ZM129.913 232.93L130.267 232.576L129.913 232.223L129.56 232.576L129.913 232.93ZM112.323 250.52L112.066 250.948L112.401 251.149L112.677 250.873L112.323 250.52ZM82.3486 200.562L82.8456 200.618L82.9146 199.997L82.2934 200.066L82.3486 200.562ZM32.3916 170.588L32.038 170.234L31.762 170.51L31.9628 170.845L32.3916 170.588ZM49.9814 152.998L50.335 153.352L50.6885 152.998L50.335 152.644L49.9814 152.998ZM32.4288 135.274C41.3971 120.321 49.3294 112.421 57.201 108.486C65.063 104.556 72.9383 104.544 81.9028 105.54L82.0132 104.546C72.9929 103.544 64.8794 103.529 56.7538 107.591C48.6377 111.648 40.5834 119.734 31.5712 134.759L32.4288 135.274ZM82.4549 104.988C81.4588 96.0232 81.4709 88.148 85.4012 80.2859C89.3362 72.4144 97.2371 64.4821 112.19 55.5137L111.675 54.6562C96.6496 63.6684 88.564 71.7227 84.5067 79.8388C80.4447 87.9644 80.4587 96.0779 81.4611 105.098L82.4549 104.988ZM111.579 55.4385L129.557 73.418L130.264 72.7109L112.286 54.7314L111.579 55.4385ZM130.264 73.418L150.25 53.4317L149.543 52.7246L129.557 72.7109L130.264 73.418ZM149.639 53.5069C164.592 62.4752 172.493 70.4073 176.428 78.2786C180.358 86.1405 180.37 94.0155 179.374 102.98L180.368 103.09C181.37 94.0701 181.384 85.9569 177.322 77.8315C173.265 69.7156 165.179 61.6615 150.154 52.6493L149.639 53.5069ZM179.926 103.532C188.891 102.536 196.766 102.548 204.628 106.478C212.499 110.414 220.431 118.314 229.399 133.267L230.257 132.753C221.245 117.727 213.191 109.641 205.075 105.584C196.949 101.522 188.836 101.536 179.816 102.538L179.926 103.532ZM229.475 132.656L209.489 152.643L210.196 153.35L230.182 133.363L229.475 132.656ZM209.489 153.35L229.475 173.334L230.182 172.627L210.196 152.643L209.489 153.35ZM229.399 172.723C220.431 187.676 212.499 195.577 204.628 199.512C196.766 203.442 188.891 203.454 179.926 202.458L179.816 203.452C188.836 204.454 196.949 204.468 205.075 200.406C213.191 196.349 221.245 188.263 230.257 173.238L229.399 172.723ZM179.374 203.01C180.37 211.975 180.358 219.85 176.428 227.712C172.493 235.583 164.592 243.515 149.639 252.483L150.154 253.341C165.179 244.329 173.265 236.275 177.322 228.159C181.384 220.033 181.37 211.92 180.368 202.9L179.374 203.01ZM150.25 252.559L130.267 232.576L129.56 233.283L149.543 253.266L150.25 252.559ZM129.56 232.576L111.97 250.166L112.677 250.873L130.267 233.283L129.56 232.576ZM112.58 250.091C97.6278 241.122 89.7269 233.19 85.7919 225.319C81.8616 217.457 81.8494 209.582 82.8456 200.618L81.8517 200.507C80.8494 209.528 80.8354 217.641 84.8974 225.766C88.9547 233.882 97.0403 241.936 112.066 250.948L112.58 250.091ZM82.2934 200.066C73.3289 201.062 65.4539 201.05 57.5921 197.119C49.7208 193.184 41.7887 185.283 32.8204 170.331L31.9628 170.845C40.975 185.871 49.0291 193.956 57.1449 198.014C65.2703 202.076 73.3836 202.062 82.4039 201.059L82.2934 200.066ZM32.7452 170.941L50.335 153.352L49.6279 152.644L32.038 170.234L32.7452 170.941ZM50.335 152.644L32.3535 134.663L31.6464 135.37L49.6279 153.352L50.335 152.644Z" fill="#04412B"/>
<path d="M365.902 146.351C373.525 133.641 379.458 132.795 387.083 133.642C386.236 126.017 387.081 120.085 399.791 112.462L407.412 120.084L415.885 111.611C428.595 119.234 429.442 125.167 428.594 132.792C436.219 131.944 442.151 132.79 449.774 145.5L441.301 153.973L449.774 162.446C442.151 175.156 436.219 176.001 428.594 175.154C429.442 182.779 428.596 188.711 415.886 196.334L407.414 187.863L399.956 195.32C387.246 187.697 386.401 181.765 387.248 174.14C379.623 174.987 373.69 174.142 366.067 161.432L373.525 153.974L365.902 146.351Z" fill="#FBF9F0"/>
<path d="M365.902 146.351L365.473 146.094L365.273 146.429L365.549 146.705L365.902 146.351ZM387.083 133.642L387.028 134.139L387.649 134.208L387.58 133.587L387.083 133.642ZM399.791 112.462L400.144 112.109L399.868 111.833L399.534 112.034L399.791 112.462ZM407.412 120.084L407.058 120.438L407.412 120.792L407.765 120.438L407.412 120.084ZM415.885 111.611L416.143 111.182L415.808 110.981L415.532 111.257L415.885 111.611ZM428.594 132.792L428.098 132.736L428.029 133.357L428.65 133.288L428.594 132.792ZM449.774 145.5L450.128 145.853L450.404 145.577L450.203 145.242L449.774 145.5ZM441.301 153.973L440.947 153.62L440.593 153.973L440.947 154.327L441.301 153.973ZM449.774 162.446L450.203 162.703L450.404 162.368L450.128 162.092L449.774 162.446ZM428.594 175.154L428.65 174.657L428.029 174.588L428.098 175.209L428.594 175.154ZM415.886 196.334L415.533 196.688L415.809 196.964L416.144 196.763L415.886 196.334ZM407.414 187.863L407.767 187.509L407.414 187.156L407.06 187.509L407.414 187.863ZM399.956 195.32L399.699 195.749L400.033 195.949L400.309 195.673L399.956 195.32ZM387.248 174.14L387.745 174.195L387.814 173.574L387.193 173.643L387.248 174.14ZM366.067 161.432L365.714 161.079L365.438 161.355L365.638 161.689L366.067 161.432ZM373.525 153.974L373.879 154.328L374.232 153.974L373.879 153.621L373.525 153.974ZM366.331 146.608C370.121 140.29 373.448 136.993 376.715 135.36C379.973 133.731 383.243 133.718 387.028 134.139L387.138 133.145C383.298 132.718 379.789 132.705 376.268 134.465C372.757 136.221 369.307 139.702 365.473 146.094L366.331 146.608ZM387.58 133.587C387.159 129.802 387.172 126.532 388.8 123.275C390.433 120.008 393.73 116.681 400.048 112.891L399.534 112.034C393.142 115.867 389.661 119.317 387.906 122.828C386.146 126.349 386.159 129.857 386.586 133.697L387.58 133.587ZM399.437 112.816L407.058 120.438L407.765 119.731L400.144 112.109L399.437 112.816ZM407.765 120.438L416.239 111.964L415.532 111.257L407.058 119.731L407.765 120.438ZM415.628 112.04C421.947 115.829 425.243 119.157 426.877 122.424C428.505 125.681 428.518 128.952 428.098 132.736L429.091 132.847C429.518 129.006 429.531 125.498 427.771 121.977C426.016 118.466 422.534 115.016 416.143 111.182L415.628 112.04ZM428.65 133.288C432.434 132.868 435.704 132.881 438.961 134.509C442.228 136.142 445.556 139.438 449.345 145.757L450.203 145.242C446.37 138.851 442.92 135.37 439.409 133.615C435.888 131.854 432.38 131.868 428.539 132.295L428.65 133.288ZM449.421 145.146L440.947 153.62L441.654 154.327L450.128 145.853L449.421 145.146ZM440.947 154.327L449.421 162.799L450.128 162.092L441.654 153.62L440.947 154.327ZM449.345 162.189C445.556 168.507 442.228 171.803 438.961 173.436C435.704 175.065 432.434 175.077 428.65 174.657L428.539 175.651C432.38 176.077 435.888 176.091 439.409 174.331C442.92 172.576 446.369 169.094 450.203 162.703L449.345 162.189ZM428.098 175.209C428.518 178.994 428.505 182.264 426.877 185.521C425.244 188.788 421.948 192.116 415.629 195.906L416.144 196.763C422.535 192.93 426.016 189.48 427.772 185.968C429.532 182.447 429.518 178.939 429.091 175.099L428.098 175.209ZM416.24 195.981L407.767 187.509L407.06 188.216L415.533 196.688L416.24 195.981ZM407.06 187.509L399.602 194.966L400.309 195.673L407.767 188.216L407.06 187.509ZM400.213 194.891C393.895 191.101 390.598 187.774 388.965 184.507C387.337 181.25 387.324 177.98 387.745 174.195L386.751 174.085C386.324 177.925 386.311 181.434 388.071 184.954C389.826 188.465 393.307 191.915 399.699 195.749L400.213 194.891ZM387.193 173.643C383.408 174.064 380.138 174.051 376.88 172.423C373.613 170.79 370.286 167.493 366.496 161.175L365.638 161.689C369.472 168.081 372.922 171.562 376.433 173.317C379.954 175.077 383.463 175.064 387.303 174.637L387.193 173.643ZM366.421 161.786L373.879 154.328L373.172 153.621L365.714 161.079L366.421 161.786ZM373.879 153.621L366.256 145.998L365.549 146.705L373.172 154.328L373.879 153.621Z" fill="#04412B"/>
<path d="M663.031 49.7405C670.654 37.0306 676.586 36.1842 684.211 37.0315C683.364 29.4067 684.21 23.4748 696.919 15.8518L704.54 23.4739L713.014 15.0002C725.724 22.6234 726.57 28.5559 725.723 36.1809C733.348 35.3337 739.28 36.1794 746.903 48.8889L738.429 57.3625L746.903 65.8352C739.279 78.5449 733.348 79.3905 725.723 78.5432C726.57 86.1682 725.725 92.1007 713.015 99.7239L704.542 91.2522L697.084 98.7092C684.375 91.0862 683.529 85.1544 684.376 77.5295C676.751 78.3768 670.819 77.5313 663.196 64.8215L670.654 57.3635L663.031 49.7405Z" fill="#FBF9F0"/>
<path d="M663.031 49.7405L662.602 49.4833L662.401 49.818L662.677 50.094L663.031 49.7405ZM684.211 37.0315L684.156 37.5284L684.777 37.5975L684.708 36.9763L684.211 37.0315ZM696.919 15.8518L697.273 15.4983L696.997 15.2222L696.662 15.423L696.919 15.8518ZM704.54 23.4739L704.187 23.8274L704.54 24.181L704.894 23.8274L704.54 23.4739ZM713.014 15.0002L713.271 14.5715L712.936 14.3707L712.66 14.6467L713.014 15.0002ZM725.723 36.1809L725.226 36.1257L725.157 36.7469L725.778 36.6778L725.723 36.1809ZM746.903 48.8889L747.256 49.2425L747.532 48.9665L747.331 48.6317L746.903 48.8889ZM738.429 57.3625L738.075 57.009L737.722 57.3626L738.075 57.7161L738.429 57.3625ZM746.903 65.8352L747.331 66.0924L747.532 65.7576L747.256 65.4816L746.903 65.8352ZM725.723 78.5432L725.778 78.0463L725.157 77.9772L725.226 78.5984L725.723 78.5432ZM713.015 99.7239L712.661 100.077L712.937 100.353L713.272 100.153L713.015 99.7239ZM704.542 91.2522L704.896 90.8986L704.542 90.5451L704.189 90.8986L704.542 91.2522ZM697.084 98.7092L696.827 99.138L697.162 99.3388L697.438 99.0628L697.084 98.7092ZM684.376 77.5295L684.873 77.5848L684.942 76.9636L684.321 77.0326L684.376 77.5295ZM663.196 64.8215L662.842 64.468L662.566 64.744L662.767 65.0787L663.196 64.8215ZM670.654 57.3635L671.007 57.7171L671.361 57.3635L671.007 57.01L670.654 57.3635ZM663.459 49.9977C667.249 43.6793 670.577 40.3826 673.844 38.7493C677.101 37.1207 680.371 37.1079 684.156 37.5284L684.266 36.5346C680.426 36.1078 676.917 36.0945 673.397 37.8548C669.885 39.6104 666.435 43.0918 662.602 49.4833L663.459 49.9977ZM684.708 36.9763C684.288 33.1918 684.3 29.9218 685.929 26.6646C687.562 23.3979 690.858 20.0702 697.176 16.2806L696.662 15.423C690.271 19.2565 686.789 22.7062 685.034 26.2174C683.274 29.7381 683.288 33.2464 683.714 37.0867L684.708 36.9763ZM696.566 16.2053L704.187 23.8274L704.894 23.1203L697.273 15.4983L696.566 16.2053ZM704.894 23.8274L713.367 15.3538L712.66 14.6467L704.187 23.1203L704.894 23.8274ZM712.757 15.429C719.075 19.2187 722.372 22.5466 724.005 25.8135C725.634 29.0709 725.646 32.3411 725.226 36.1257L726.22 36.2361C726.647 32.3957 726.66 28.8872 724.9 25.3663C723.144 21.8549 719.663 18.405 713.271 14.5715L712.757 15.429ZM725.778 36.6778C729.563 36.2573 732.833 36.27 736.09 37.8984C739.357 39.5315 742.684 42.8279 746.474 49.1461L747.331 48.6317C743.498 42.2404 740.048 38.7593 736.537 37.0039C733.016 35.2438 729.508 35.2573 725.668 35.684L725.778 36.6778ZM746.549 48.5354L738.075 57.009L738.783 57.7161L747.256 49.2425L746.549 48.5354ZM738.075 57.7161L746.549 66.1888L747.256 65.4816L738.782 57.009L738.075 57.7161ZM746.474 65.578C742.684 71.8963 739.356 75.1928 736.09 76.8258C732.833 78.4542 729.563 78.4668 725.778 78.0463L725.668 79.0402C729.508 79.4669 733.016 79.4804 736.537 77.7203C740.048 75.965 743.498 72.4838 747.331 66.0924L746.474 65.578ZM725.226 78.5984C725.647 82.383 725.634 85.6533 724.006 88.9107C722.372 92.1775 719.076 95.5054 712.758 99.2951L713.272 100.153C719.663 96.3192 723.145 92.8692 724.9 89.3578C726.66 85.8369 726.647 82.3284 726.22 78.488L725.226 78.5984ZM713.368 99.3703L704.896 90.8986L704.189 91.6058L712.661 100.077L713.368 99.3703ZM704.189 90.8986L696.731 98.3557L697.438 99.0628L704.896 91.6058L704.189 90.8986ZM697.341 98.2804C691.023 94.4909 687.727 91.1632 686.094 87.8965C684.465 84.6393 684.453 81.3693 684.873 77.5848L683.879 77.4743C683.453 81.3146 683.439 84.8229 685.199 88.3436C686.955 91.8548 690.436 95.3046 696.827 99.138L697.341 98.2804ZM684.321 77.0326C680.536 77.4531 677.266 77.4405 674.009 75.8122C670.742 74.1791 667.414 70.8827 663.624 64.5644L662.767 65.0787C666.6 71.4702 670.05 74.9513 673.562 76.7067C677.083 78.4667 680.591 78.4532 684.431 78.0265L684.321 77.0326ZM663.549 65.1751L671.007 57.7171L670.3 57.01L662.842 64.468L663.549 65.1751ZM671.007 57.01L663.384 49.3869L662.677 50.094L670.3 57.7171L671.007 57.01Z" fill="#04412B"/>
<path d="M555.535 238.724C563.159 226.014 569.091 225.168 576.716 226.016C575.869 218.391 576.714 212.458 589.424 204.835L597.045 212.458L605.52 203.983C618.229 211.607 619.075 217.539 618.228 225.164C625.853 224.317 631.784 225.163 639.407 237.872L630.934 246.346L639.408 254.818C631.785 267.528 625.853 268.374 618.228 267.526C619.075 275.151 618.23 281.084 605.52 288.707L597.047 280.235L589.589 287.692C576.88 280.069 576.034 274.138 576.881 266.513C569.256 267.36 563.324 266.514 555.701 253.805L563.158 246.348L555.535 238.724Z" fill="#FBF9F0"/>
<path d="M555.535 238.724L555.107 238.466L554.906 238.801L555.182 239.077L555.535 238.724ZM576.716 226.016L576.661 226.513L577.282 226.582L577.213 225.96L576.716 226.016ZM589.424 204.835L589.778 204.481L589.502 204.205L589.167 204.406L589.424 204.835ZM597.045 212.458L596.692 212.812L597.045 213.165L597.399 212.812L597.045 212.458ZM605.52 203.983L605.777 203.555L605.442 203.354L605.166 203.63L605.52 203.983ZM618.228 225.164L617.731 225.109L617.662 225.73L618.283 225.661L618.228 225.164ZM639.407 237.872L639.761 238.226L640.037 237.95L639.836 237.615L639.407 237.872ZM630.934 246.346L630.58 245.992L630.227 246.346L630.58 246.699L630.934 246.346ZM639.408 254.818L639.837 255.076L640.038 254.741L639.762 254.465L639.408 254.818ZM618.228 267.526L618.283 267.029L617.662 266.96L617.731 267.582L618.228 267.526ZM605.52 288.707L605.166 289.061L605.442 289.337L605.777 289.136L605.52 288.707ZM597.047 280.235L597.401 279.882L597.047 279.528L596.694 279.882L597.047 280.235ZM589.589 287.692L589.332 288.121L589.667 288.322L589.943 288.046L589.589 287.692ZM576.881 266.513L577.378 266.568L577.447 265.947L576.826 266.016L576.881 266.513ZM555.701 253.805L555.348 253.451L555.072 253.727L555.273 254.062L555.701 253.805ZM563.158 246.348L563.512 246.701L563.866 246.348L563.512 245.994L563.158 246.348ZM555.964 238.981C559.754 232.662 563.082 229.366 566.349 227.733C569.606 226.105 572.876 226.092 576.661 226.513L576.771 225.519C572.931 225.092 569.422 225.078 565.901 226.838C562.39 228.594 558.94 232.075 555.107 238.466L555.964 238.981ZM577.213 225.96C576.792 222.176 576.805 218.906 578.433 215.648C580.066 212.381 583.363 209.053 589.681 205.264L589.167 204.406C582.775 208.24 579.294 211.69 577.539 215.201C575.779 218.722 575.792 222.23 576.219 226.071L577.213 225.96ZM589.07 205.188L596.692 212.812L597.399 212.104L589.778 204.481L589.07 205.188ZM597.399 212.812L605.873 204.337L605.166 203.63L596.692 212.104L597.399 212.812ZM605.263 204.412C611.581 208.202 614.877 211.53 616.51 214.797C618.139 218.054 618.151 221.324 617.731 225.109L618.725 225.219C619.151 221.379 619.165 217.87 617.405 214.349C615.65 210.838 612.168 207.388 605.777 203.555L605.263 204.412ZM618.283 225.661C622.067 225.24 625.338 225.253 628.595 226.882C631.861 228.515 635.189 231.811 638.979 238.129L639.836 237.615C636.003 231.224 632.553 227.742 629.042 225.987C625.521 224.227 622.013 224.24 618.173 224.667L618.283 225.661ZM639.054 237.519L630.58 245.992L631.287 246.699L639.761 238.226L639.054 237.519ZM630.58 246.699L639.055 255.172L639.762 254.465L631.287 245.992L630.58 246.699ZM638.98 254.561C635.19 260.88 631.862 264.176 628.595 265.809C625.338 267.437 622.068 267.45 618.283 267.029L618.173 268.023C622.013 268.45 625.521 268.464 629.042 266.704C632.554 264.948 636.004 261.467 639.837 255.076L638.98 254.561ZM617.731 267.582C618.151 271.366 618.139 274.636 616.51 277.894C614.877 281.161 611.581 284.489 605.263 288.278L605.777 289.136C612.168 285.302 615.65 281.852 617.405 278.341C619.165 274.82 619.151 271.312 618.725 267.471L617.731 267.582ZM605.873 288.353L597.401 279.882L596.694 280.589L605.166 289.061L605.873 288.353ZM596.694 279.882L589.236 287.339L589.943 288.046L597.401 280.589L596.694 279.882ZM589.846 287.264C583.528 283.474 580.232 280.146 578.599 276.88C576.97 273.622 576.958 270.352 577.378 266.568L576.384 266.457C575.957 270.298 575.944 273.806 577.704 277.327C579.459 280.838 582.941 284.288 589.332 288.121L589.846 287.264ZM576.826 266.016C573.041 266.436 569.771 266.424 566.514 264.795C563.247 263.162 559.92 259.866 556.13 253.548L555.273 254.062C559.106 260.453 562.556 263.934 566.067 265.69C569.588 267.45 573.096 267.436 576.936 267.01L576.826 266.016ZM556.055 254.158L563.512 246.701L562.805 245.994L555.348 253.451L556.055 254.158ZM563.512 245.994L555.889 238.37L555.182 239.077L562.805 246.701L563.512 245.994Z" fill="#04412B"/>
</svg>
