<svg width="800" height="291" viewBox="0 0 800 291" fill="none" xmlns="http://www.w3.org/2000/svg"><path d="M135.707 115.603v147.486c0 5.523 4.477 10 10 10h245.55c5.522 0 10-4.477 10-10V87.102c0-9.15 11.273-13.495 17.414-6.71L575.675 253.85c6.141 6.784 17.414 2.44 17.414-6.711V71.152c0-5.523 4.477-10 10-10H800" stroke="#04412B" stroke-dasharray="6 6"/><path d="M80.556 55.989c32.77-8.198 43.693 0 54.617 13.654 10.923-13.655 21.847-21.852 54.616-13.654v24.569h27.313c8.199 32.77 0 43.694-13.654 54.617 13.654 10.923 21.852 21.846 13.654 54.616H189.79v27.312c-32.769 8.198-43.693 0-54.616-13.654-10.923 13.654-21.847 21.851-54.616 13.654l-.001-27.309H56.518c-8.198-32.769 0-43.693 13.654-54.616-13.654-10.924-21.852-21.847-13.654-54.617h24.038V55.99z" fill="#FBF9F0"/><path d="M80.556 55.989l-.121-.485-.379.094v.39h.5zm54.617 13.654l-.391.312.391.488.39-.488-.39-.313zm54.616-13.654h.5v-.39l-.379-.095-.121.485zm0 24.569h-.5v.5h.5v-.5zm27.313 0l.486-.122-.095-.378h-.391v.5zm-13.654 54.617l-.312-.391-.489.391.489.39.312-.39zm13.654 54.616v.5h.39l.095-.378-.485-.122zm-27.312 0v-.5h-.5v.5h.5zm0 27.312l.122.485.379-.095-.001-.39h-.5zm-54.616-13.654l.391-.313-.391-.488-.39.488.39.313zm-54.616 13.654h-.5v.39l.378.095.122-.485zm-.001-27.309h.5v-.5h-.5v.5zm-24.039 0l-.485.121.095.379h.39v-.5zm13.654-54.616l.312.39.489-.39-.489-.391-.312.391zM56.518 80.561v-.5h-.39l-.095.379.485.121zm24.038 0v.5h.5v-.5h-.5zm.122-24.087c16.343-4.089 27.158-4.067 35.221-1.379 8.053 2.685 13.439 8.055 18.883 14.86l.781-.625c-5.479-6.849-11.016-12.405-19.348-15.183-8.322-2.775-19.354-2.753-35.78 1.357l.243.97zm54.885 13.48c5.444-6.804 10.831-12.174 18.884-14.859 8.063-2.688 18.877-2.71 35.221 1.379l.242-.97c-16.426-4.11-27.457-4.132-35.78-1.357-8.332 2.778-13.869 8.334-19.348 15.183l.781.625zm53.726-13.965v24.569h1v-24.57h-1zm.5 25.069h27.313v-1h-27.313v1zm26.828-.379c4.089 16.344 4.067 27.159 1.379 35.222-2.685 8.053-8.055 13.439-14.86 18.883l.624.781c6.849-5.479 12.406-11.016 15.184-19.348 2.775-8.322 2.753-19.354-1.356-35.78l-.971.242zm-13.481 54.886c6.805 5.444 12.174 10.831 14.859 18.884 2.688 8.063 2.71 18.877-1.378 35.221l.97.243c4.109-16.427 4.131-27.458 1.357-35.78-2.778-8.333-8.335-13.869-15.184-19.349l-.624.781zm13.966 53.726H189.79v1h27.312v-1zm-27.812.5v27.312h1v-27.312h-1zm.379 26.827c-16.343 4.088-27.158 4.066-35.221 1.378-8.053-2.685-13.439-8.054-18.883-14.86l-.781.625c5.479 6.849 11.015 12.406 19.348 15.184 8.322 2.774 19.354 2.752 35.78-1.357l-.243-.97zm-54.885-13.482c-5.444 6.806-10.831 12.175-18.884 14.86-8.063 2.688-18.878 2.71-35.221-1.378l-.243.97c16.426 4.109 27.458 4.131 35.78 1.357 8.333-2.778 13.869-8.335 19.349-15.184l-.781-.625zm-53.726 13.967l-.001-27.309h-1v27.309h1zm-.501-27.809H56.518v1h24.039v-1zm-23.554.379c-4.088-16.344-4.066-27.158-1.378-35.221 2.685-8.053 8.054-13.44 14.86-18.884l-.625-.781c-6.85 5.479-12.406 11.016-15.184 19.348-2.774 8.323-2.752 19.354 1.357 35.78l.97-.242zm13.481-54.886c-6.805-5.444-12.174-10.831-14.86-18.883-2.687-8.063-2.71-18.878 1.38-35.221l-.97-.243c-4.11 16.426-4.132 27.458-1.358 35.78 2.778 8.332 8.335 13.869 15.184 19.348l.624-.781zM56.518 81.061h24.038v-1H56.518v1zm24.538-.5V55.99h-1v24.57h1z" fill="#04412B"/><circle cx="403.77" cy="89.634" r="46.411" fill="#FBF9F0" stroke="#04412B"/><circle cx="579.686" cy="243.77" r="46.411" fill="#FBF9F0" stroke="#04412B"/></svg>