<svg width="800" height="290" viewBox="0 0 800 290" fill="none" xmlns="http://www.w3.org/2000/svg"><path d="M133.357 151.97h283.475m0 0l89.818 91.497a10 10 0 007.136 2.995H800M416.832 151.97l89.813-92.33a10 10 0 017.168-3.028H800" stroke="#04412B" stroke-dasharray="6 6"/><path d="M32 135.017c17.98-29.979 31.973-31.973 49.958-29.974-1.998-17.985-.004-31.977 29.975-49.958l17.977 17.98 19.986-19.987c29.979 17.98 31.973 31.972 29.975 49.957 17.985-1.998 31.977-.003 49.957 29.975l-19.985 19.986 19.985 19.984c-17.98 29.979-31.972 31.974-49.957 29.975 1.999 17.985.004 31.977-29.975 49.957l-19.983-19.982-17.59 17.59c-29.978-17.981-31.973-31.973-29.974-49.958-17.985 1.999-31.977.004-49.957-29.974l17.59-17.59L32 135.017z" fill="#FBF9F0"/><path d="M32 135.017l-.429-.258-.2.335.275.276.354-.353zm49.958-29.974l-.055.497.621.069-.07-.621-.496.055zm29.975-49.958l.353-.354-.276-.276-.335.201.258.429zm17.977 17.98l-.353.353.353.354.354-.354-.354-.354zm19.986-19.987l.258-.429-.335-.2-.276.276.353.353zm29.975 49.957l-.497-.055-.069.621.621-.069-.055-.497zm49.957 29.975l.354.353.276-.276-.201-.334-.429.257zm-19.985 19.986l-.354-.353-.353.353.353.354.354-.354zm19.985 19.984l.429.258.201-.335-.276-.276-.354.353zm-49.957 29.975l.055-.497-.621-.069.069.621.497-.055zm-29.975 49.957l-.353.354.276.276.335-.201-.258-.429zm-19.983-19.982l.354-.354-.354-.353-.353.353.353.354zm-17.59 17.59l-.257.428.335.201.276-.276-.354-.353zm-29.974-49.958l.497.056.069-.621-.622.069.056.496zm-49.957-29.974l-.354-.354-.276.276.2.335.43-.257zm17.59-17.59l.353.354.353-.354-.353-.354-.354.354zm-17.553-17.724c8.968-14.953 16.9-22.853 24.772-26.788 7.862-3.93 15.737-3.942 24.702-2.946l.11-.994c-9.02-1.002-17.134-1.017-25.26 3.045-8.115 4.057-16.17 12.143-25.182 27.168l.858.515zm50.026-30.286c-.996-8.965-.984-16.84 2.946-24.702 3.935-7.872 11.836-15.804 26.789-24.772l-.515-.858C96.65 63.668 88.564 71.723 84.507 79.84c-4.062 8.125-4.048 16.239-3.046 25.259l.994-.11zm29.124-49.55l17.978 17.98.707-.707-17.978-17.98-.707.707zm18.685 17.98l19.986-19.986-.707-.707-19.986 19.986.707.707zm19.375-19.911c14.953 8.968 22.854 16.9 26.789 24.772 3.93 7.862 3.942 15.737 2.946 24.701l.994.11c1.002-9.02 1.016-17.133-3.046-25.258-4.057-8.116-12.143-16.17-27.168-25.183l-.515.858zm30.287 50.025c8.965-.996 16.84-.984 24.702 2.946 7.871 3.936 15.803 11.836 24.771 26.789l.858-.514c-9.012-15.026-17.066-23.112-25.182-27.169-8.126-4.062-16.239-4.048-25.259-3.046l.11.994zm49.549 29.124l-19.986 19.987.707.707 19.986-19.987-.707-.707zm-19.986 20.694l19.986 19.984.707-.707-19.986-19.984-.707.707zm19.91 19.373c-8.968 14.953-16.9 22.854-24.771 26.789-7.862 3.93-15.737 3.942-24.702 2.946l-.11.994c9.02 1.002 17.133 1.016 25.259-3.046 8.116-4.057 16.17-12.143 25.182-27.168l-.858-.515zm-50.025 30.287c.996 8.965.984 16.84-2.946 24.702-3.935 7.871-11.836 15.803-26.789 24.771l.515.858c15.025-9.012 23.111-17.066 27.168-25.182 4.062-8.126 4.048-16.239 3.046-25.259l-.994.11zm-29.124 49.549l-19.983-19.983-.707.707 19.983 19.983.707-.707zm-20.69-19.983l-17.59 17.59.707.707 17.59-17.59-.707-.707zm-16.98 17.515c-14.952-8.969-22.853-16.901-26.788-24.772-3.93-7.862-3.943-15.737-2.946-24.701l-.994-.111c-1.003 9.021-1.017 17.134 3.045 25.259 4.058 8.116 12.143 16.17 27.169 25.182l.514-.857zm-30.287-50.025c-8.964.996-16.84.984-24.7-2.947-7.872-3.935-15.804-11.836-24.773-26.788l-.857.514c9.012 15.026 17.066 23.111 25.182 27.169 8.125 4.062 16.239 4.048 25.259 3.045l-.11-.993zm-49.548-29.125l17.59-17.589-.707-.708-17.59 17.59.707.707zm17.59-18.297l-17.982-17.981-.707.707 17.982 17.982.707-.708z" fill="#04412B"/><path d="M365.902 146.351c7.623-12.71 13.556-13.556 21.181-12.709-.847-7.625-.002-13.557 12.708-21.18l7.621 7.622 8.473-8.473c12.71 7.623 13.557 13.556 12.709 21.181 7.625-.848 13.557-.002 21.18 12.708l-8.473 8.473 8.473 8.473c-7.623 12.71-13.555 13.555-21.18 12.708.848 7.625.002 13.557-12.708 21.18l-8.472-8.471-7.458 7.457c-12.71-7.623-13.555-13.555-12.708-21.18-7.625.847-13.558.002-21.181-12.708l7.458-7.458-7.623-7.623z" fill="#FBF9F0"/><path d="M365.902 146.351l-.429-.257-.2.335.276.276.353-.354zm21.181-12.709l-.055.497.621.069-.069-.621-.497.055zm12.708-21.18l.353-.353-.276-.276-.334.201.257.428zm7.621 7.622l-.354.354.354.354.353-.354-.353-.354zm8.473-8.473l.258-.429-.335-.201-.276.276.353.354zm12.709 21.181l-.496-.056-.069.621.621-.069-.056-.496zm21.18 12.708l.354.353.276-.276-.201-.335-.429.258zm-8.473 8.473l-.354-.353-.354.353.354.354.354-.354zm8.473 8.473l.429.257.201-.335-.276-.276-.354.354zm-21.18 12.708l.056-.497-.621-.069.069.621.496-.055zm-12.708 21.18l-.353.354.276.276.335-.201-.258-.429zm-8.472-8.471l.353-.354-.353-.353-.354.353.354.354zm-7.458 7.457l-.257.429.334.2.276-.276-.353-.353zm-12.708-21.18l.497.055.069-.621-.621.069.055.497zm-21.181-12.708l-.353-.353-.276.276.2.334.429-.257zm7.458-7.458l.354.354.353-.354-.353-.353-.354.353zm-7.194-7.366c3.79-6.318 7.117-9.615 10.384-11.248 3.258-1.629 6.528-1.642 10.313-1.221l.11-.994c-3.84-.427-7.349-.44-10.87 1.32-3.511 1.756-6.961 5.237-10.795 11.629l.858.514zm21.249-13.021c-.421-3.785-.408-7.055 1.22-10.312 1.633-3.267 4.93-6.594 11.248-10.384l-.514-.857c-6.392 3.833-9.873 7.283-11.628 10.794-1.76 3.521-1.747 7.029-1.32 10.869l.994-.11zm11.857-20.771l7.621 7.622.707-.707-7.621-7.622-.707.707zm8.328 7.622l8.474-8.474-.707-.707-8.474 8.474.707.707zm7.863-8.398c6.319 3.789 9.615 7.117 11.249 10.384 1.628 3.257 1.641 6.528 1.221 10.312l.993.111c.427-3.841.44-7.349-1.32-10.87-1.755-3.511-5.237-6.961-11.628-10.795l-.515.858zm13.022 21.248c3.784-.42 7.054-.407 10.311 1.221 3.267 1.633 6.595 4.929 10.384 11.248l.858-.515c-3.833-6.391-7.283-9.872-10.794-11.627-3.521-1.761-7.029-1.747-10.87-1.32l.111.993zm20.771 11.858l-8.474 8.474.707.707 8.474-8.474-.707-.707zm-8.474 9.181l8.474 8.472.707-.707-8.474-8.472-.707.707zm8.398 7.862c-3.789 6.318-7.117 9.614-10.384 11.247-3.257 1.629-6.527 1.641-10.311 1.221l-.111.994c3.841.426 7.349.44 10.87-1.32 3.511-1.755 6.96-5.237 10.794-11.628l-.858-.514zm-21.247 13.02c.42 3.785.407 7.055-1.221 10.312-1.633 3.267-4.929 6.595-11.248 10.385l.515.857c6.391-3.833 9.872-7.283 11.628-10.795 1.76-3.521 1.746-7.029 1.319-10.869l-.993.11zm-11.858 20.772l-8.473-8.472-.707.707 8.473 8.472.707-.707zm-9.18-8.472l-7.458 7.457.707.707 7.458-7.457-.707-.707zm-6.847 7.382c-6.318-3.79-9.615-7.117-11.248-10.384-1.628-3.257-1.641-6.527-1.22-10.312l-.994-.11c-.427 3.84-.44 7.349 1.32 10.869 1.755 3.511 5.236 6.961 11.628 10.795l.514-.858zm-13.02-21.248c-3.785.421-7.055.408-10.313-1.22-3.267-1.633-6.594-4.93-10.384-11.248l-.858.514c3.834 6.392 7.284 9.873 10.795 11.628 3.521 1.76 7.03 1.747 10.87 1.32l-.11-.994zm-20.772-11.857l7.458-7.458-.707-.707-7.458 7.458.707.707zm7.458-8.165l-7.623-7.623-.707.707 7.623 7.623.707-.707z" fill="#04412B"/><path d="M663.031 49.74c7.623-12.71 13.555-13.556 21.18-12.709-.847-7.624-.001-13.556 12.708-21.18l7.621 7.623L713.014 15c12.71 7.623 13.556 13.556 12.709 21.18 7.625-.846 13.557 0 21.18 12.709l-8.474 8.473 8.474 8.473c-7.624 12.71-13.555 13.556-21.18 12.708.847 7.625.002 13.558-12.708 21.18l-8.473-8.47-7.458 7.456c-12.709-7.623-13.555-13.555-12.708-21.18-7.625.848-13.557.002-21.18-12.707l7.458-7.459-7.623-7.623z" fill="#FBF9F0"/><path d="M663.031 49.74l-.429-.257-.201.335.276.276.354-.354zm21.18-12.709l-.055.497.621.07-.069-.622-.497.056zm12.708-21.18l.354-.353-.276-.276-.335.201.257.429zm7.621 7.623l-.353.353.353.354.354-.354-.354-.353zM713.014 15l.257-.428-.335-.201-.276.276.354.353zm12.709 21.18l-.497-.054-.069.62.621-.068-.055-.497zm21.18 12.709l.353.353.276-.275-.201-.335-.428.257zm-8.474 8.473l-.354-.353-.353.354.353.353.354-.354zm8.474 8.473l.428.257.201-.334-.276-.276-.353.353zm-21.18 12.708l.055-.497-.621-.069.069.621.497-.055zm-12.708 21.18l-.354.354.276.276.335-.2-.257-.43zm-8.473-8.47l.354-.354-.354-.354-.353.354.353.353zm-7.458 7.456l-.257.429.335.2.276-.275-.354-.354zm-12.708-21.18l.497.056.069-.621-.621.069.055.496zm-21.18-12.707l-.354-.354-.276.276.201.335.429-.257zm7.458-7.459l.353.354.354-.353-.354-.354-.353.354zm-7.195-7.365c3.79-6.319 7.118-9.615 10.385-11.249 3.257-1.628 6.527-1.641 10.312-1.22l.11-.994c-3.84-.427-7.349-.44-10.869 1.32-3.512 1.755-6.962 5.237-10.795 11.628l.857.515zm21.249-13.022c-.42-3.784-.408-7.054 1.221-10.311 1.633-3.267 4.929-6.595 11.247-10.384l-.514-.858c-6.391 3.833-9.873 7.283-11.628 10.794-1.76 3.521-1.746 7.03-1.32 10.87l.994-.11zm11.858-20.77l7.621 7.621.707-.707-7.621-7.622-.707.707zm8.328 7.621l8.473-8.473-.707-.707-8.473 8.473.707.707zm7.863-8.398c6.318 3.79 9.615 7.118 11.248 10.385 1.629 3.257 1.641 6.527 1.221 10.312l.994.11c.427-3.84.44-7.349-1.32-10.87-1.756-3.511-5.237-6.961-11.629-10.794l-.514.857zm13.021 21.249c3.785-.42 7.055-.408 10.312 1.22 3.267 1.633 6.594 4.93 10.384 11.248l.857-.514c-3.833-6.392-7.283-9.873-10.794-11.628-3.521-1.76-7.029-1.747-10.869-1.32l.11.994zm20.771 11.857l-8.474 8.474.708.707 8.473-8.474-.707-.707zm-8.474 9.181l8.474 8.473.707-.707-8.474-8.473-.707.707zm8.399 7.862c-3.79 6.318-7.118 9.615-10.384 11.248-3.257 1.628-6.527 1.64-10.312 1.22l-.11.994c3.84.427 7.348.44 10.869-1.32 3.511-1.755 6.961-5.236 10.794-11.628l-.857-.514zm-21.248 13.02c.421 3.785.408 7.055-1.22 10.313-1.634 3.266-4.93 6.594-11.248 10.384l.514.858c6.391-3.834 9.873-7.284 11.628-10.795 1.76-3.521 1.747-7.03 1.32-10.87l-.994.11zM713.368 99.37l-8.472-8.471-.707.707 8.472 8.471.707-.707zm-9.179-8.471l-7.458 7.457.707.707 7.458-7.457-.707-.707zm-6.848 7.381c-6.318-3.79-9.614-7.117-11.247-10.383-1.629-3.258-1.641-6.528-1.221-10.312l-.994-.11c-.426 3.84-.44 7.348 1.32 10.869 1.756 3.51 5.237 6.96 11.628 10.794l.514-.858zm-13.02-21.247c-3.785.42-7.055.407-10.312-1.22-3.267-1.634-6.595-4.93-10.385-11.249l-.857.515c3.833 6.391 7.283 9.872 10.795 11.628 3.521 1.76 7.029 1.746 10.869 1.32l-.11-.994zm-20.772-11.858l7.458-7.458-.707-.707-7.458 7.458.707.707zm7.458-8.165l-7.623-7.623-.707.707 7.623 7.623.707-.707z" fill="#04412B"/><path d="M555.535 238.724c7.624-12.71 13.556-13.556 21.181-12.708-.847-7.625-.002-13.558 12.708-21.181l7.621 7.623 8.475-8.475c12.709 7.624 13.555 13.556 12.708 21.181 7.625-.847 13.556-.001 21.179 12.708l-8.473 8.474 8.474 8.472c-7.623 12.71-13.555 13.556-21.18 12.708.847 7.625.002 13.558-12.708 21.181l-8.473-8.472-7.458 7.457c-12.709-7.623-13.555-13.554-12.708-21.179-7.625.847-13.557.001-21.18-12.708l7.457-7.457-7.623-7.624z" fill="#FBF9F0"/><path d="M555.535 238.724l-.428-.258-.201.335.276.276.353-.353zm21.181-12.708l-.055.497.621.069-.069-.622-.497.056zm12.708-21.181l.354-.354-.276-.276-.335.201.257.429zm7.621 7.623l-.353.354.353.353.354-.353-.354-.354zm8.475-8.475l.257-.428-.335-.201-.276.276.354.353zm12.708 21.181l-.497-.055-.069.621.621-.069-.055-.497zm21.179 12.708l.354.354.276-.276-.201-.335-.429.257zm-8.473 8.474l-.354-.354-.353.354.353.353.354-.353zm8.474 8.472l.429.258.201-.335-.276-.276-.354.353zm-21.18 12.708l.055-.497-.621-.069.069.622.497-.056zm-12.708 21.181l-.354.354.276.276.335-.201-.257-.429zm-8.473-8.472l.354-.353-.354-.354-.353.354.353.353zm-7.458 7.457l-.257.429.335.201.276-.276-.354-.354zm-12.708-21.179l.497.055.069-.621-.621.069.055.497zm-21.18-12.708l-.353-.354-.276.276.201.335.428-.257zm7.457-7.457l.354.353.354-.353-.354-.354-.354.354zm-7.194-7.367c3.79-6.319 7.118-9.615 10.385-11.248 3.257-1.628 6.527-1.641 10.312-1.22l.11-.994c-3.84-.427-7.349-.441-10.87 1.319-3.511 1.756-6.961 5.237-10.794 11.628l.857.515zm21.249-13.021c-.421-3.784-.408-7.054 1.22-10.312 1.633-3.267 4.93-6.595 11.248-10.384l-.514-.858c-6.392 3.834-9.873 7.284-11.628 10.795-1.76 3.521-1.747 7.029-1.32 10.87l.994-.111zm11.857-20.772l7.622 7.624.707-.708-7.621-7.623-.708.707zm8.329 7.624l8.474-8.475-.707-.707-8.474 8.474.707.708zm7.864-8.4c6.318 3.79 9.614 7.118 11.247 10.385 1.629 3.257 1.641 6.527 1.221 10.312l.994.11c.426-3.84.44-7.349-1.32-10.87-1.755-3.511-5.237-6.961-11.628-10.794l-.514.857zm13.02 21.249c3.784-.421 7.055-.408 10.312 1.221 3.266 1.633 6.594 4.929 10.384 11.247l.857-.514c-3.833-6.391-7.283-9.873-10.794-11.628-3.521-1.76-7.029-1.747-10.869-1.32l.11.994zm20.771 11.858l-8.474 8.473.707.707 8.474-8.473-.707-.707zm-8.474 9.18l8.475 8.473.707-.707-8.475-8.473-.707.707zm8.4 7.862c-3.79 6.319-7.118 9.615-10.385 11.248-3.257 1.628-6.527 1.641-10.312 1.22l-.11.994c3.84.427 7.348.441 10.869-1.319 3.512-1.756 6.962-5.237 10.795-11.628l-.857-.515zm-21.249 13.021c.42 3.784.408 7.054-1.221 10.312-1.633 3.267-4.929 6.595-11.247 10.384l.514.858c6.391-3.834 9.873-7.284 11.628-10.795 1.76-3.521 1.746-7.029 1.32-10.87l-.994.111zm-11.858 20.771l-8.472-8.471-.707.707 8.472 8.472.707-.708zm-9.179-8.471l-7.458 7.457.707.707 7.458-7.457-.707-.707zm-6.848 7.382c-6.318-3.79-9.614-7.118-11.247-10.384-1.629-3.258-1.641-6.528-1.221-10.312l-.994-.111c-.427 3.841-.44 7.349 1.32 10.87 1.755 3.511 5.237 6.961 11.628 10.794l.514-.857zm-13.02-21.248c-3.785.42-7.055.408-10.312-1.221-3.267-1.633-6.594-4.929-10.384-11.247l-.857.514c3.833 6.391 7.283 9.872 10.794 11.628 3.521 1.76 7.029 1.746 10.869 1.32l-.11-.994zm-20.771-11.858l7.457-7.457-.707-.707-7.457 7.457.707.707zm7.457-8.164l-7.623-7.624-.707.707 7.623 7.624.707-.707z" fill="#04412B"/></svg>