<svg width="347" height="63" viewBox="0 0 347 63" fill="none" xmlns="http://www.w3.org/2000/svg">
<path d="M86.0687 -50.8973C106.029 -55.8908 112.683 -50.8969 119.337 -42.5798C125.99 -50.8969 132.644 -55.8908 152.604 -50.8973L152.604 -35.9314H169.24C174.234 -15.9709 169.241 -9.317 160.924 -2.6635C169.241 3.98999 174.234 10.6439 169.24 30.6044H152.604L152.604 47.24C132.644 52.2334 125.99 47.2396 119.337 38.9225C112.683 47.2396 106.029 52.2336 86.0687 47.24L86.068 30.6057L71.4252 30.6064C66.4317 10.6458 71.4249 3.99143 79.742 -2.66212C71.4251 -9.31555 66.4319 -15.9692 71.4252 -35.9293L86.068 -35.93L86.0687 -50.8973Z" fill="#EDFAEC"/>
<path d="M86.0687 -50.8973L85.9473 -51.3823L85.5687 -51.2876L85.5687 -50.8973L86.0687 -50.8973ZM119.337 -42.5798L118.946 -42.2675L119.337 -41.7794L119.727 -42.2675L119.337 -42.5798ZM152.604 -50.8973L153.104 -50.8973L153.104 -51.2876L152.726 -51.3823L152.604 -50.8973ZM152.604 -35.9314L152.104 -35.9314L152.104 -35.4314H152.604V-35.9314ZM169.24 -35.9314L169.725 -36.0527L169.63 -36.4314H169.24V-35.9314ZM160.924 -2.6635L160.612 -3.05394L160.124 -2.6635L160.612 -2.27306L160.924 -2.6635ZM169.24 30.6044V31.1044H169.63L169.725 30.7257L169.24 30.6044ZM152.604 30.6044V30.1044H152.104L152.104 30.6044L152.604 30.6044ZM152.604 47.24L152.726 47.7251L153.104 47.6303L153.104 47.24L152.604 47.24ZM119.337 38.9225L119.727 38.6102L119.337 38.1221L118.946 38.6102L119.337 38.9225ZM86.0687 47.24L85.5687 47.24L85.5687 47.6303L85.9473 47.7251L86.0687 47.24ZM86.068 30.6057L86.568 30.6057L86.5679 30.1057L86.0679 30.1057L86.068 30.6057ZM71.4252 30.6064L70.9401 30.7278L71.0349 31.1064L71.4252 31.1064L71.4252 30.6064ZM79.742 -2.66212L80.0543 -2.27168L80.5424 -2.66212L80.0543 -3.05255L79.742 -2.66212ZM71.4252 -35.9293L71.4252 -36.4293L71.0349 -36.4293L70.9401 -36.0506L71.4252 -35.9293ZM86.068 -35.93L86.068 -35.43L86.5679 -35.43L86.568 -35.93L86.068 -35.93ZM86.0687 -50.8973L86.19 -50.4122C96.129 -52.8987 102.674 -52.8764 107.535 -51.2557C112.385 -49.6384 115.637 -46.4041 118.946 -42.2675L119.337 -42.5798L119.727 -42.8922C116.383 -47.0726 112.981 -50.4939 107.851 -52.2044C102.731 -53.9116 95.969 -53.8895 85.9473 -51.3823L86.0687 -50.8973ZM119.337 -42.5798L119.727 -42.2675C123.036 -46.4041 126.288 -49.6384 131.138 -51.2557C135.999 -52.8764 142.544 -52.8987 152.483 -50.4122L152.604 -50.8973L152.726 -51.3823C142.704 -53.8894 135.942 -53.9115 130.822 -52.2044C125.692 -50.4938 122.29 -47.0726 118.946 -42.8922L119.337 -42.5798ZM152.604 -50.8973L152.104 -50.8973L152.104 -35.9314L152.604 -35.9314L153.104 -35.9313L153.104 -50.8973L152.604 -50.8973ZM152.604 -35.9314V-35.4314H169.24V-35.9314V-36.4314H152.604V-35.9314ZM169.24 -35.9314L168.755 -35.81C171.241 -25.8711 171.219 -19.326 169.599 -14.4654C167.982 -9.61498 164.748 -6.36314 160.612 -3.05394L160.924 -2.6635L161.236 -2.27306C165.417 -5.61736 168.838 -9.0192 170.548 -14.1492C172.255 -19.2691 172.232 -26.0311 169.725 -36.0527L169.24 -35.9314ZM160.924 -2.6635L160.612 -2.27306C164.748 1.03614 167.982 4.28798 169.599 9.13843C171.219 13.999 171.241 20.5441 168.755 30.483L169.24 30.6044L169.725 30.7257C172.232 20.7041 172.255 13.9421 170.548 8.82217C168.838 3.6922 165.417 0.290357 161.236 -3.05394L160.924 -2.6635ZM169.24 30.6044V30.1044H152.604V30.6044V31.1044H169.24V30.6044ZM152.604 30.6044L152.104 30.6044L152.104 47.24L152.604 47.24L153.104 47.24L153.104 30.6043L152.604 30.6044ZM152.604 47.24L152.483 46.755C142.544 49.2413 135.999 49.219 131.139 47.5984C126.288 45.981 123.036 42.7468 119.727 38.6102L119.337 38.9225L118.946 39.2349C122.29 43.4153 125.692 46.8365 130.822 48.547C135.942 50.2542 142.704 50.2321 152.726 47.7251L152.604 47.24ZM119.337 38.9225L118.946 38.6102C115.637 42.7468 112.385 45.9811 107.535 47.5984C102.674 49.2191 96.129 49.2414 86.19 46.755L86.0687 47.24L85.9473 47.7251C95.969 50.2322 102.731 50.2543 107.851 48.5471C112.981 46.8366 116.383 43.4153 119.727 39.2349L119.337 38.9225ZM86.0687 47.24L86.5687 47.24L86.568 30.6057L86.068 30.6057L85.568 30.6058L85.5687 47.24L86.0687 47.24ZM86.068 30.6057L86.0679 30.1057L71.4252 30.1064L71.4252 30.6064L71.4252 31.1064L86.068 31.1057L86.068 30.6057ZM71.4252 30.6064L71.9102 30.4851C69.4238 20.5461 69.4459 14.0008 71.0664 9.14013C72.6836 4.28952 75.9177 1.03755 80.0543 -2.27168L79.742 -2.66212L79.4296 -3.05255C75.2492 0.291763 71.8281 3.69374 70.1178 8.82385C68.4108 13.9439 68.433 20.7061 70.9401 30.7278L71.4252 30.6064ZM79.742 -2.66212L80.0543 -3.05255C75.9178 -6.36173 72.6838 -9.6135 71.0666 -14.4639C69.4461 -19.3243 69.4239 -25.8692 71.9102 -35.8079L71.4252 -35.9293L70.9401 -36.0506C68.4332 -26.0292 68.411 -19.2673 70.1179 -14.1476C71.8283 -9.01771 75.2493 -5.61594 79.4296 -2.27168L79.742 -2.66212ZM71.4252 -35.9293L71.4252 -35.4293L86.068 -35.43L86.068 -35.93L86.0679 -36.43L71.4252 -36.4293L71.4252 -35.9293ZM86.068 -35.93L86.568 -35.93L86.5687 -50.8973L86.0687 -50.8973L85.5687 -50.8973L85.568 -35.93L86.068 -35.93Z" fill="#04412B"/>
<path d="M149.322 -20.1032C169.283 -25.0968 175.937 -20.1035 182.591 -11.7864C189.244 -20.1033 195.898 -25.0965 215.858 -20.1032L215.857 -5.13728H232.498C237.491 14.8234 232.498 21.4777 224.181 28.1313C232.498 34.7847 237.491 41.4381 232.498 61.3984H215.86L215.861 78.0341C195.9 83.0274 189.247 78.0342 182.593 69.7173C175.94 78.0344 169.286 83.0276 149.325 78.0341L149.324 61.3998L134.681 61.4005C129.688 41.4398 134.681 34.7855 142.998 28.132C134.681 21.4785 129.688 14.825 134.681 -5.13521H149.322V-20.1032Z" fill="#EDFAEC"/>
<path d="M149.322 -20.1032L149.201 -20.5883L148.822 -20.4935L148.822 -20.1032L149.322 -20.1032ZM182.591 -11.7864L182.2 -11.4741L182.591 -10.986L182.981 -11.4741L182.591 -11.7864ZM215.858 -20.1032L216.358 -20.1032L216.358 -20.4935L215.979 -20.5883L215.858 -20.1032ZM215.857 -5.13728L215.357 -5.1373L215.357 -4.63728H215.857V-5.13728ZM232.498 -5.13728L232.983 -5.25862L232.888 -5.63728H232.498V-5.13728ZM224.181 28.1313L223.869 27.7408L223.38 28.1313L223.869 28.5217L224.181 28.1313ZM232.498 61.3984V61.8984H232.888L232.983 61.5198L232.498 61.3984ZM215.86 61.3984V60.8984H215.36L215.36 61.3985L215.86 61.3984ZM215.861 78.0341L215.982 78.5191L216.361 78.4244L216.361 78.0341L215.861 78.0341ZM182.593 69.7173L182.984 69.4049L182.593 68.9169L182.203 69.4049L182.593 69.7173ZM149.325 78.0341L148.825 78.0341L148.825 78.4244L149.204 78.5191L149.325 78.0341ZM149.324 61.3998L149.824 61.3998L149.824 60.8998L149.324 60.8998L149.324 61.3998ZM134.681 61.4005L134.196 61.5218L134.291 61.9005L134.681 61.9005L134.681 61.4005ZM142.998 28.132L143.311 28.5224L143.799 28.132L143.311 27.7415L142.998 28.132ZM134.681 -5.13521L134.681 -5.63521L134.291 -5.63521L134.196 -5.25655L134.681 -5.13521ZM149.322 -5.13521V-4.63521L149.822 -4.63521L149.822 -5.13521H149.322ZM149.322 -20.1032L149.443 -19.6182C159.382 -22.1046 165.928 -22.0825 170.788 -20.462C175.639 -18.8448 178.891 -15.6107 182.2 -11.4741L182.591 -11.7864L182.981 -12.0988C179.637 -16.2793 176.235 -19.7003 171.105 -21.4106C165.985 -23.1176 159.222 -23.0954 149.201 -20.5883L149.322 -20.1032ZM182.591 -11.7864L182.981 -11.4741C186.29 -15.6106 189.542 -18.8447 194.392 -20.4618C199.253 -22.0823 205.798 -22.1045 215.737 -19.6182L215.858 -20.1032L215.979 -20.5883C205.958 -23.0953 199.196 -23.1175 194.076 -21.4105C188.946 -19.7001 185.545 -16.2792 182.2 -12.0988L182.591 -11.7864ZM215.858 -20.1032L215.358 -20.1032L215.357 -5.1373L215.857 -5.13728L216.357 -5.13726L216.358 -20.1032L215.858 -20.1032ZM215.857 -5.13728V-4.63728H232.498V-5.13728V-5.63728H215.857V-5.13728ZM232.498 -5.13728L232.013 -5.01593C234.499 4.92308 234.477 11.4684 232.856 16.329C231.239 21.1796 228.005 24.4316 223.869 27.7408L224.181 28.1313L224.493 28.5217C228.674 25.1774 232.095 21.7754 233.805 16.6453C235.512 11.5253 235.49 4.76308 232.983 -5.25862L232.498 -5.13728ZM224.181 28.1313L223.869 28.5217C228.005 31.8309 231.239 35.0826 232.856 39.9329C234.477 44.7933 234.499 51.3383 232.013 61.2771L232.498 61.3984L232.983 61.5198C235.49 51.4983 235.512 44.7364 233.805 39.6166C232.095 34.4868 228.674 31.0851 224.493 27.7408L224.181 28.1313ZM232.498 61.3984V60.8984H215.86V61.3984V61.8984H232.498V61.3984ZM215.86 61.3984L215.36 61.3985L215.361 78.0341L215.861 78.0341L216.361 78.0341L216.36 61.3984L215.86 61.3984ZM215.861 78.0341L215.739 77.549C205.801 80.0354 199.256 80.0132 194.395 78.3927C189.545 76.7755 186.293 73.5415 182.984 69.4049L182.593 69.7173L182.203 70.0296C185.547 74.21 188.949 77.631 194.079 79.3414C199.199 81.0483 205.961 81.0262 215.982 78.5191L215.861 78.0341ZM182.593 69.7173L182.203 69.4049C178.894 73.5416 175.642 76.7757 170.791 78.3929C165.931 80.0134 159.385 80.0355 149.446 77.549L149.325 78.0341L149.204 78.5191C159.225 81.0263 165.987 81.0485 171.108 79.3415C176.238 77.6312 179.64 74.2101 182.984 70.0296L182.593 69.7173ZM149.325 78.0341L149.825 78.0341L149.824 61.3998L149.324 61.3998L148.824 61.3998L148.825 78.0341L149.325 78.0341ZM149.324 61.3998L149.324 60.8998L134.681 60.9005L134.681 61.4005L134.681 61.9005L149.324 61.8998L149.324 61.3998ZM134.681 61.4005L135.167 61.2792C132.68 51.3401 132.702 44.7949 134.323 39.9342C135.94 35.0836 139.174 31.8316 143.311 28.5224L142.998 28.132L142.686 27.7415C138.505 31.0859 135.084 34.4878 133.374 39.6179C131.667 44.7379 131.689 51.5001 134.196 61.5218L134.681 61.4005ZM142.998 28.132L143.311 27.7415C139.174 24.4323 135.94 21.1806 134.323 16.3303C132.702 11.4699 132.68 4.9249 135.167 -5.01386L134.681 -5.13521L134.196 -5.25655C131.689 4.7649 131.667 11.5268 133.374 16.6466C135.085 21.7764 138.506 25.1781 142.686 28.5224L142.998 28.132ZM134.681 -5.13521L134.681 -4.63521L149.322 -4.63521V-5.13521V-5.63521L134.681 -5.63521L134.681 -5.13521ZM149.322 -5.13521H149.822L149.822 -20.1032L149.322 -20.1032L148.822 -20.1032L148.822 -5.13521H149.322Z" fill="#04412B"/>
<path d="M210.581 28.3889C230.542 23.3955 237.195 28.3888 243.849 36.7057C250.502 28.3885 257.156 23.3953 277.117 28.3889L277.116 43.3548H293.754C298.748 63.3155 293.754 69.9691 285.437 76.6227C293.754 83.2762 298.748 89.93 293.754 109.891H277.116L277.117 126.526C257.156 131.52 250.503 126.526 243.849 118.209C237.196 126.526 230.542 131.52 210.581 126.526L210.581 109.892H195.939C190.945 89.9315 195.939 83.2776 204.256 76.624C195.939 69.9705 190.945 63.3169 195.939 43.3562H210.581L210.581 28.3889Z" fill="#EDFAEC"/>
<path d="M210.581 28.3889L210.46 27.9038L210.081 27.9985L210.081 28.3888L210.581 28.3889ZM243.849 36.7057L243.458 37.018L243.849 37.5061L244.239 37.018L243.849 36.7057ZM277.117 28.3889L277.617 28.3889L277.617 27.9985L277.238 27.9038L277.117 28.3889ZM277.116 43.3548L276.616 43.3548L276.616 43.8548H277.116V43.3548ZM293.754 43.3548L294.239 43.2335L294.144 42.8548H293.754V43.3548ZM285.437 76.6227L285.124 76.2322L284.636 76.6227L285.124 77.0131L285.437 76.6227ZM293.754 109.891V110.391H294.144L294.239 110.012L293.754 109.891ZM277.116 109.891V109.391H276.616L276.616 109.891L277.116 109.891ZM277.117 126.526L277.238 127.011L277.617 126.916L277.617 126.526L277.117 126.526ZM243.849 118.209L244.24 117.896L243.849 117.408L243.459 117.896L243.849 118.209ZM210.581 126.526L210.081 126.526L210.081 126.917L210.46 127.011L210.581 126.526ZM210.581 109.892L211.081 109.892L211.081 109.392H210.581V109.892ZM195.939 109.892L195.454 110.013L195.548 110.392L195.939 110.392L195.939 109.892ZM204.256 76.624L204.568 77.0145L205.056 76.624L204.568 76.2336L204.256 76.624ZM195.939 43.3562L195.939 42.8562L195.548 42.8562L195.454 43.2348L195.939 43.3562ZM210.581 43.3562V43.8562L211.081 43.8562L211.081 43.3562L210.581 43.3562ZM210.581 28.3889L210.703 28.8739C220.641 26.3876 227.186 26.4097 232.047 28.0303C236.897 29.6474 240.149 32.8815 243.458 37.018L243.849 36.7057L244.239 36.3933C240.895 32.213 237.493 28.7919 232.363 27.0816C227.243 25.3746 220.481 25.3968 210.46 27.9038L210.581 28.3889ZM243.849 36.7057L244.239 37.018C247.548 32.8814 250.8 29.6473 255.651 28.0301C260.511 26.4096 267.057 26.3875 276.996 28.8739L277.117 28.3889L277.238 27.9038C267.217 25.3967 260.454 25.3744 255.334 27.0814C250.204 28.7918 246.802 32.2128 243.458 36.3933L243.849 36.7057ZM277.117 28.3889L276.617 28.3888L276.616 43.3548L277.116 43.3548L277.616 43.3548L277.617 28.3889L277.117 28.3889ZM277.116 43.3548V43.8548H293.754V43.3548V42.8548H277.116V43.3548ZM293.754 43.3548L293.269 43.4762C295.755 53.4152 295.733 59.9603 294.113 64.8208C292.495 69.6712 289.261 72.923 285.124 76.2322L285.437 76.6227L285.749 77.0131C289.929 73.6688 293.351 70.267 295.061 65.1371C296.768 60.0172 296.746 53.2552 294.239 43.2335L293.754 43.3548ZM285.437 76.6227L285.124 77.0131C289.261 80.3223 292.495 83.5742 294.112 88.4246C295.733 93.2851 295.755 99.8302 293.269 109.769L293.754 109.891L294.239 110.012C296.746 99.9902 296.768 93.2282 295.061 88.1083C293.351 82.9784 289.929 79.5765 285.749 76.2322L285.437 76.6227ZM293.754 109.891V109.391H277.116V109.891V110.391H293.754V109.891ZM277.116 109.891L276.616 109.891L276.617 126.526L277.117 126.526L277.617 126.526L277.616 109.89L277.116 109.891ZM277.117 126.526L276.996 126.041C267.057 128.528 260.512 128.505 255.651 126.885C250.801 125.267 247.549 122.033 244.24 117.896L243.849 118.209L243.459 118.521C246.803 122.702 250.205 126.123 255.335 127.833C260.455 129.54 267.217 129.518 277.238 127.011L277.117 126.526ZM243.849 118.209L243.459 117.896C240.15 122.033 236.898 125.267 232.047 126.885C227.187 128.505 220.642 128.528 210.703 126.041L210.581 126.526L210.46 127.011C220.482 129.518 227.244 129.54 232.364 127.833C237.494 126.123 240.895 122.702 244.24 118.521L243.849 118.209ZM210.581 126.526L211.081 126.526L211.081 109.892L210.581 109.892L210.081 109.892L210.081 126.526L210.581 126.526ZM210.581 109.892V109.392L195.939 109.392L195.939 109.892L195.939 110.392L210.581 110.392V109.892ZM195.939 109.892L196.424 109.771C193.937 99.8317 193.96 93.2866 195.58 88.4261C197.198 83.5756 200.432 80.3237 204.568 77.0145L204.256 76.624L203.944 76.2336C199.763 79.5779 196.342 82.9798 194.632 88.1097C192.924 93.2296 192.946 99.9917 195.454 110.013L195.939 109.892ZM204.256 76.624L204.568 76.2336C200.432 72.9244 197.197 69.6726 195.58 64.8221C193.959 59.9616 193.937 53.4165 196.424 43.4775L195.939 43.3562L195.454 43.2348C192.946 53.2566 192.924 60.0186 194.631 65.1385C196.342 70.2684 199.763 73.6702 203.944 77.0145L204.256 76.624ZM195.939 43.3562L195.939 43.8562L210.581 43.8562V43.3562V42.8562L195.939 42.8562L195.939 43.3562ZM210.581 43.3562L211.081 43.3562L211.081 28.3889L210.581 28.3889L210.081 28.3888L210.081 43.3562L210.581 43.3562Z" fill="#04412B"/>
<circle cx="173.5" cy="30.5" r="173" stroke="#04412B" stroke-dasharray="6 6"/>
<circle cx="173.5" cy="30.5" r="140" stroke="#04412B" stroke-dasharray="6 6"/>
</svg>
