<svg width="242" height="57" viewBox="0 0 242 57" fill="none" xmlns="http://www.w3.org/2000/svg">
<g clip-path="url(#clip0_513_442)">
<path d="M44.3598 13.8834C44.3598 6.36455 38.2439 0.249221 30.7201 0.2349C30.7201 0.2349 30.7115 0.2349 30.7086 0.2349C30.7058 0.2349 30.7 0.2349 30.6972 0.2349C30.6914 0.2349 30.6857 0.2349 30.6828 0.2349C28.2571 0.194799 25.8916 0.561432 23.6551 1.32621C18.7893 2.98465 14.5457 6.56791 11.7013 11.4201C6.83549 19.718 8.07417 29.9035 11.7558 37.8291L-0.0517578 54.2044H3.30298L13.1579 40.5388C13.7858 41.6358 14.4596 42.6727 15.1679 43.6322C18.2588 47.8342 21.9548 50.5553 24.5067 52.0963C32.4032 56.8683 42.5735 56.9198 43.0036 56.9198H44.3656V36.5144H32.0677V27.4603C38.9636 26.7757 44.3656 20.9468 44.3656 13.8805L44.3598 13.8834ZM13.6138 35.2484C10.7293 28.1105 10.1157 19.5003 14.0496 12.7921C15.3514 10.5722 16.98 8.65887 18.8351 7.12359C17.6911 9.11716 17.0345 11.4229 17.0345 13.8805C17.0345 17.945 18.8237 21.597 21.6537 24.0976L13.6138 35.2455V35.2484ZM29.3381 51.4776C28.1682 50.9964 27.0098 50.435 25.9116 49.7705C23.569 48.3555 20.1828 45.8635 17.3556 42.0225C16.7162 41.1517 16.1083 40.2208 15.5463 39.2384H29.3381V51.4776ZM29.3381 36.5201H16.0539L23.8615 25.693C25.5045 26.6439 27.3596 27.2684 29.3381 27.4631V36.5173V36.5201ZM29.3381 24.7191C27.9503 24.5473 26.6371 24.1205 25.4586 23.476L29.3381 18.0997V24.722V24.7191ZM41.6359 39.2384V54.15C39.7091 54.0297 35.9845 53.6459 32.0591 52.4429V39.2384H41.6359ZM23.2565 21.8748C21.1089 19.8784 19.7555 17.0399 19.7555 13.8834C19.7555 7.85686 24.6644 2.95314 30.6972 2.95314C36.7299 2.95314 41.6388 7.85686 41.6388 13.8834C41.6388 19.4488 37.4525 24.046 32.062 24.7191V9.66997L23.2594 21.8777L23.2565 21.8748Z" fill="#6ECE7A"/>
<path d="M68.354 46.8344C67.8235 46.3131 67.2071 45.9092 66.5046 45.6285C65.8021 45.3449 65.0308 45.2046 64.1907 45.2046C63.3506 45.2046 62.5936 45.3449 61.8854 45.6285C61.1771 45.9121 60.5607 46.3131 60.036 46.8344C59.5112 47.3557 59.1012 47.9715 58.8088 48.6819C58.5134 49.3894 58.3672 50.1713 58.3672 51.0249C58.3672 51.8785 58.5077 52.6461 58.7916 53.3679C59.0754 54.0869 59.4797 54.7141 60.0044 55.2469C60.5291 55.7797 61.1456 56.1921 61.8538 56.4843C62.562 56.7765 63.3419 56.9254 64.1907 56.9254C65.0394 56.9254 65.8193 56.7793 66.5275 56.4843C67.2357 56.1921 67.8493 55.7797 68.3683 55.2469C68.8873 54.7141 69.2916 54.0869 69.5812 53.3679C69.8708 52.649 70.0142 51.867 70.0142 51.0249C70.0142 50.1828 69.8708 49.3922 69.5812 48.6819C69.2916 47.9744 68.8816 47.3586 68.354 46.8344ZM67.1899 52.9239C66.9003 53.4767 66.4988 53.915 65.9856 54.2358C65.4724 54.5566 64.8731 54.7141 64.1907 54.7141C63.5083 54.7141 62.909 54.5537 62.3957 54.2358C61.8825 53.915 61.4753 53.4796 61.1829 52.9239C60.8904 52.3711 60.7413 51.7352 60.7413 51.022C60.7413 50.3088 60.8875 49.6729 61.1829 49.1201C61.4753 48.5673 61.8825 48.1291 62.3957 47.8083C62.909 47.4875 63.5083 47.3299 64.1907 47.3299C64.8731 47.3299 65.4867 47.4903 65.9999 47.8083C66.5132 48.1291 66.9146 48.5644 67.1956 49.1201C67.4795 49.6729 67.62 50.3088 67.62 51.022C67.62 51.7352 67.4766 52.3711 67.187 52.9239H67.1899Z" fill="#6ECE7A"/>
<path d="M80.3507 49.633H75.201V45.4282H72.9502V56.6191H75.201V51.6954H80.3507V56.6191H82.6015V45.4282H80.3507V49.633Z" fill="#6ECE7A"/>
<path d="M86.7336 52.1736C86.7336 52.546 86.6963 52.8869 86.6247 53.1962C86.5501 53.5055 86.4469 53.7719 86.3093 53.9953C86.1716 54.2188 86.0053 54.3906 85.8046 54.5081C85.6039 54.6255 85.3803 54.6828 85.1279 54.6828V56.6162C86.0197 56.6162 86.7508 56.4415 87.3157 56.0892C87.8834 55.7369 88.2992 55.2299 88.5687 54.5625C88.8353 53.898 88.9701 53.0959 88.9701 52.1564V47.4876H93.0015V56.6162H95.2839V45.4253H86.7336V52.1708V52.1736Z" fill="#6ECE7A"/>
<path d="M97.7441 56.6188H100.279L101.431 54.0782H105.213L106.375 56.6188H108.927L103.338 44.772L97.7499 56.6188H97.7441ZM104.7 52.2708H101.953L103.333 49.057L104.7 52.2708Z" fill="#6ECE7A"/>
<path d="M117.353 42.8957C117.184 42.996 116.969 43.0476 116.708 43.0476C116.447 43.0476 116.247 42.996 116.077 42.8957C115.908 42.7955 115.785 42.6637 115.699 42.5033C115.616 42.3429 115.573 42.1768 115.573 42.0078H114.156C114.156 42.4231 114.254 42.807 114.449 43.1593C114.644 43.5116 114.93 43.7923 115.315 44.0071C115.699 44.2191 116.163 44.3279 116.708 44.3279C117.253 44.3279 117.732 44.2219 118.11 44.0071C118.489 43.7951 118.775 43.5116 118.976 43.1593C119.174 42.807 119.274 42.4231 119.274 42.0078H117.841C117.841 42.1797 117.801 42.3429 117.723 42.5033C117.646 42.6637 117.52 42.7926 117.353 42.8957Z" fill="#6ECE7A"/>
<path d="M121.321 45.4282V56.6191H119.145V49.8135L111.902 56.6191H111.306V45.4282H113.479V52.2396L120.725 45.4282H121.321Z" fill="#6ECE7A"/>
<path d="M132.301 49.633H127.154V45.4282H124.9V56.6191H127.154V51.6954H132.301V56.6191H134.552V45.4282H132.301V49.633Z" fill="#6ECE7A"/>
<path d="M142.253 51.9185H138.961V53.7258H142.253V51.9185Z" fill="#6ECE7A"/>
<path d="M146.74 56.6191H148.991V47.4905H152.942V45.4282H146.74V56.6191Z" fill="#6ECE7A"/>
<path d="M165.498 45.4282V56.6191H163.324V49.8135L156.079 56.6191H155.482V45.4282H157.656V52.2396L164.901 45.4282H165.498Z" fill="#6ECE7A"/>
<path d="M180.947 56.6191H178.601L177.896 50.3377L174.696 55.5794L171.502 50.3377L170.791 56.6191H168.448L170.008 45.4282H170.441L174.696 52.0935L178.954 45.4282H179.39L180.947 56.6191Z" fill="#6ECE7A"/>
<path d="M191.298 49.633H186.151V45.4282H183.9V56.6191H186.151V51.6954H191.298V56.6191H193.552V45.4282H191.298V49.633Z" fill="#6ECE7A"/>
<path d="M195.935 56.6188H198.469L199.622 54.0782H203.404L204.565 56.6188H207.117L201.529 44.772L195.94 56.6188H195.935ZM202.891 52.2708H200.144L201.523 49.057L202.891 52.2708Z" fill="#6ECE7A"/>
<path d="M215.581 50.7555C215.844 50.6581 216.091 50.5464 216.315 50.4175C216.733 50.1711 217.066 49.8704 217.307 49.5152C217.548 49.1572 217.668 48.7504 217.668 48.2921C217.668 47.7279 217.51 47.2151 217.195 46.7569C216.88 46.2986 216.427 45.9319 215.833 45.6541C215.239 45.3763 214.508 45.2388 213.637 45.2388C212.765 45.2388 212.057 45.382 211.449 45.6713C210.841 45.9577 210.377 46.3501 210.055 46.8456C209.734 47.3412 209.577 47.9083 209.577 48.5471H211.67C211.67 48.2692 211.75 48.0229 211.913 47.8023C212.077 47.5847 212.303 47.4128 212.599 47.2896C212.891 47.1665 213.238 47.1063 213.637 47.1063C214.035 47.1063 214.353 47.1636 214.62 47.281C214.887 47.3985 215.087 47.5617 215.219 47.768C215.351 47.9771 215.417 48.2177 215.417 48.4955C215.417 48.7733 215.325 49.0483 215.142 49.2861C214.958 49.5267 214.689 49.7157 214.331 49.8532C213.972 49.9907 213.528 50.0623 212.992 50.0623V51.6291C213.591 51.6291 214.093 51.6978 214.503 51.8382C214.913 51.9757 215.219 52.1762 215.423 52.4368C215.627 52.6975 215.73 53.0039 215.73 53.3563C215.73 53.8776 215.546 54.2757 215.179 54.5478C214.812 54.8199 214.288 54.9545 213.605 54.9545C213.155 54.9545 212.762 54.8887 212.432 54.754C212.103 54.6223 211.842 54.4275 211.652 54.1697C211.463 53.9148 211.357 53.6055 211.337 53.2417H209.101C209.101 53.72 209.195 54.1755 209.384 54.608C209.574 55.0405 209.855 55.4243 210.227 55.7594C210.6 56.0946 211.073 56.3581 211.644 56.55C212.214 56.7419 212.891 56.8364 213.668 56.8364C214.603 56.8364 215.391 56.7018 216.037 56.4297C216.682 56.1576 217.166 55.7766 217.493 55.2868C217.817 54.797 217.981 54.2327 217.981 53.5911C217.981 52.835 217.763 52.2248 217.327 51.7608C216.897 51.3025 216.312 50.9674 215.578 50.7469L215.581 50.7555Z" fill="#6ECE7A"/>
<path d="M230.918 45.4282V56.6191H228.744V49.8135L221.499 56.6191H220.902V45.4282H223.076V52.2396L230.321 45.4282H230.918Z" fill="#6ECE7A"/>
<path d="M239.612 45.4281H238.164C237.304 45.4281 236.567 45.577 235.95 45.8749C235.337 46.1728 234.866 46.5881 234.542 47.1209C234.218 47.6537 234.055 48.2781 234.055 48.9913C234.055 49.7045 234.218 50.3146 234.542 50.8531C234.866 51.3916 235.337 51.8098 235.95 52.1077C236.085 52.1736 236.231 52.228 236.377 52.2795L233.393 56.6133H236.053L238.628 52.5517H239.612V56.6133H241.863V45.4224H239.612V45.4281ZM238.304 50.7357C237.917 50.7357 237.573 50.6698 237.281 50.5352C236.985 50.4034 236.762 50.2115 236.604 49.9595C236.446 49.7103 236.369 49.4066 236.369 49.0572C236.369 48.7077 236.446 48.4041 236.604 48.1549C236.762 47.9057 236.988 47.7138 237.281 47.5792C237.573 47.4474 237.914 47.3787 238.304 47.3787H239.612V50.7357H238.304Z" fill="#6ECE7A"/>
<path d="M129.9 30.6223H127.102V8.25195H112.794C104.903 8.25195 98.486 14.6652 98.486 22.5449V30.6194H95.6875V36.8379H129.903V30.6194L129.9 30.6223ZM120.877 30.6223H104.711V22.5478C104.711 18.0966 108.338 14.4733 112.794 14.4733H120.877V30.6223Z" fill="#6ECE7A"/>
<path d="M138.603 36.8407H167.221V30.6223H144.83V25.6556H157.426V19.4371H144.83V14.4704H167.221V8.25195H138.603V36.8407Z" fill="#6ECE7A"/>
<path d="M190.235 14.4704H198.318V36.8407H204.542V8.25195H190.235C182.344 8.25195 175.927 14.6652 175.927 22.5449V36.8379H182.152V22.5449C182.152 18.0938 185.779 14.4704 190.235 14.4704Z" fill="#6ECE7A"/>
<path d="M64.5892 28.4511H80.755V36.8407H86.9799V8.25195H72.6721C64.7813 8.25195 58.3643 14.6652 58.3643 22.5449V36.8379H64.5892V28.4483V28.4511ZM72.6721 14.4704H80.755V22.2327H64.6035C64.7698 17.9248 68.3195 14.4704 72.6721 14.4704Z" fill="#6ECE7A"/>
<path d="M241.866 26.7411C241.866 21.1729 237.33 16.6416 231.756 16.6416H219.475V8.25195H213.25V36.8407H231.758C237.332 36.8407 241.869 32.3094 241.869 26.7411H241.866ZM231.756 30.6223H219.475V22.86H231.756C233.897 22.86 235.641 24.6015 235.641 26.7411C235.641 28.8808 233.897 30.6223 231.756 30.6223Z" fill="#6ECE7A"/>
</g>
<defs>
<clipPath id="clip0_513_442">
<rect width="242" height="57" fill="white"/>
</clipPath>
</defs>
</svg>
