<svg width="50" height="50" viewBox="0 0 50 50" fill="none" xmlns="http://www.w3.org/2000/svg">
<g opacity="0.1">
<path d="M13.5414 20.8333C13.0768 20.8333 12.6309 20.9041 12.1872 20.9687C12.3309 20.4853 12.4789 19.9937 12.7164 19.552C12.9539 18.9103 13.3247 18.3541 13.6934 17.7937C14.0018 17.1874 14.5455 16.777 14.9455 16.2583C15.3643 15.7541 15.9351 15.4187 16.3872 14.9999C16.8309 14.5624 17.4122 14.3437 17.8747 14.0353C18.358 13.7583 18.7789 13.452 19.2289 13.3062L20.3518 12.8437L21.3393 12.4333L20.3289 8.39575L19.0851 8.69575C18.6872 8.79575 18.2018 8.91242 17.6497 9.052C17.0851 9.15617 16.483 9.44158 15.8122 9.702C15.1497 9.99783 14.383 10.1978 13.6705 10.6728C12.9539 11.127 12.1268 11.5062 11.3976 12.1145C10.6914 12.7416 9.83928 13.2853 9.21011 14.0833C8.52261 14.8291 7.84344 15.6124 7.31636 16.5041C6.70594 17.3541 6.29136 18.2874 5.85386 19.2103C5.45803 20.1333 5.13928 21.077 4.87886 21.9937C4.38511 23.8312 4.16428 25.577 4.07886 27.0708C4.00803 28.5666 4.04969 29.8103 4.13719 30.7103C4.16844 31.1353 4.22678 31.5478 4.26844 31.8333L4.32053 32.1833L4.37469 32.1708C4.74524 33.9016 5.59824 35.4923 6.83503 36.7586C8.07182 38.025 9.64186 38.9153 11.3635 39.3266C13.0852 39.738 14.8881 39.6535 16.5638 39.0829C18.2394 38.5124 19.7193 37.4791 20.8322 36.1026C21.9451 34.7261 22.6456 33.0627 22.8526 31.3047C23.0597 29.5467 22.7648 27.7661 22.0021 26.1687C21.2393 24.5713 20.04 23.2226 18.5427 22.2784C17.0455 21.3342 15.3115 20.8331 13.5414 20.8333ZM36.458 20.8333C35.9934 20.8333 35.5476 20.9041 35.1039 20.9687C35.2476 20.4853 35.3955 19.9937 35.633 19.552C35.8705 18.9103 36.2414 18.3541 36.6101 17.7937C36.9184 17.1874 37.4622 16.777 37.8622 16.2583C38.2809 15.7541 38.8518 15.4187 39.3039 14.9999C39.7476 14.5624 40.3289 14.3437 40.7914 14.0353C41.2747 13.7583 41.6955 13.452 42.1455 13.3062L43.2684 12.8437L44.2559 12.4333L43.2455 8.39575L42.0018 8.69575C41.6039 8.79575 41.1184 8.91242 40.5664 9.052C40.0018 9.15617 39.3997 9.44158 38.7289 9.702C38.0684 9.99992 37.2997 10.1978 36.5872 10.6749C35.8705 11.1291 35.0434 11.5083 34.3143 12.1166C33.608 12.7437 32.7559 13.2874 32.1268 14.0833C31.4393 14.8291 30.7601 15.6124 30.233 16.5041C29.6226 17.3541 29.208 18.2874 28.7705 19.2103C28.3747 20.1333 28.0559 21.077 27.7955 21.9937C27.3018 23.8312 27.0809 25.577 26.9955 27.0708C26.9247 28.5666 26.9664 29.8103 27.0539 30.7103C27.0851 31.1353 27.1434 31.5478 27.1851 31.8333L27.2372 32.1833L27.2914 32.1708C27.6619 33.9016 28.5149 35.4923 29.7517 36.7586C30.9885 38.025 32.5585 38.9153 34.2802 39.3266C36.0019 39.738 37.8048 39.6535 39.4804 39.0829C41.1561 38.5124 42.6359 37.4791 43.7489 36.1026C44.8618 34.7261 45.5623 33.0627 45.7693 31.3047C45.9763 29.5467 45.6814 27.7661 44.9187 26.1687C44.156 24.5713 42.9566 23.2226 41.4594 22.2784C39.9621 21.3342 38.2281 20.8331 36.458 20.8333Z" fill="#04412B"/>
</g>
</svg>
