<svg width="25" height="24" viewBox="0 0 25 24" fill="none" xmlns="http://www.w3.org/2000/svg"><path fill-rule="evenodd" clip-rule="evenodd" d="M2.153 10.523l4.965-4.881a.5.5 0 01.701 0l.998.98-5.63 5.63-1.034-1.016a.5.5 0 010-.713zm2.104 2.781l5.285 5.195a3.5 3.5 0 004.6.27l2.573-1.998a1.5 1.5 0 00.132-2.255l-1.054-1.035a1 1 0 00-.995-.185l-.51-1.41a2.5 2.5 0 012.61.574l-.002.002 1.002.985c.44.432.716.963.833 1.518l1.916-1.757-5.506-5.506-4.741 4.66a.458.458 0 00.476.757l3.411-1.234.51 1.41-3.41 1.235a1.958 1.958 0 01-2.039-3.238l2.11-2.073-1.571-1.545-5.63 5.63zm8.27-5.137L8.871 4.572a2 2 0 00-2.804 0L1.102 9.453a2 2 0 000 2.853l7.388 7.263a5 5 0 006.571.384l2.574-1.997c.16-.124.303-.26.43-.407l-.012.074 5.799-5.32a2 2 0 00.05-2.9l-4.914-4.83a2 2 0 00-2.805 0l-3.655 3.594zm9.226 4.026L16.21 6.65l1.025-1.007a.5.5 0 01.701 0l4.914 4.83a.5.5 0 01-.012.725l-1.085.995z" fill="currentColor"/></svg>