<svg width="16" height="17" viewBox="0 0 16 17" fill="none" xmlns="http://www.w3.org/2000/svg"><path d="M8 11.833a.646.646 0 00.476-.192.643.643 0 00.19-.474V8.5a.643.643 0 00-.191-.475A.648.648 0 008 7.833a.641.641 0 00-.474.192.646.646 0 00-.192.475v2.667c0 .189.064.347.192.475a.643.643 0 00.474.191zM8 6.5a.646.646 0 00.476-.192.643.643 0 00.19-.475.648.648 0 00-.191-.474A.643.643 0 008 5.167a.643.643 0 00-.474.192.648.648 0 00-.192.474c0 .189.063.347.192.476A.64.64 0 008 6.5zm0 8.667a6.489 6.489 0 01-2.6-.526 6.742 6.742 0 01-2.117-1.424A6.717 6.717 0 011.86 11.1a6.506 6.506 0 01-.526-2.6c0-.922.175-1.788.526-2.6a6.748 6.748 0 011.425-2.117 6.705 6.705 0 012.116-1.424A6.494 6.494 0 018 1.833c.921 0 1.788.175 2.6.526.812.35 1.518.825 2.117 1.424.599.6 1.074 1.305 1.425 2.117s.526 1.678.525 2.6a6.536 6.536 0 01-.525 2.6 6.687 6.687 0 01-1.425 2.117 6.77 6.77 0 01-2.117 1.425c-.81.35-1.677.526-2.6.525zm0-1.334c1.49 0 2.75-.516 3.784-1.55 1.033-1.033 1.55-2.294 1.55-3.783 0-1.489-.517-2.75-1.55-3.783C10.75 3.683 9.489 3.167 8 3.167c-1.489 0-2.75.516-3.783 1.55C3.184 5.75 2.667 7.01 2.667 8.5c0 1.489.517 2.75 1.55 3.783C5.25 13.317 6.51 13.833 8 13.833z" fill="#04412B" opacity=".4"/></svg>