<svg width="695" height="360" viewBox="0 0 695 360" fill="none" xmlns="http://www.w3.org/2000/svg"><path d="M-127.558 101.37l-11.577 11.577c-19.73-11.834-21.043-21.043-19.728-32.88-11.837 1.316-21.046.003-32.88-19.727l11.577-11.577L-192 36.929c11.834-19.73 21.043-21.043 32.88-19.728-1.316-11.837-.003-21.046 19.728-32.88l11.832 11.833L-114.406-17c19.73 11.834 21.043 21.043 19.728 32.88 11.837-1.316 21.046-.003 32.88 19.728L-74.951 48.76l13.153 13.153c-11.834 19.73-21.043 21.043-32.88 19.728 1.316 11.837.003 21.046-19.728 32.88l-13.152-13.152zm150.202 0l-11.577 11.577c-19.73-11.834-21.043-21.043-19.728-32.88-11.837 1.316-21.046.003-32.88-19.727l11.577-11.577-11.834-11.834c11.834-19.73 21.043-21.043 32.88-19.728-1.316-11.837-.003-21.046 19.727-32.88L22.642-3.846 35.796-17C55.526-5.166 56.84 4.043 55.524 15.88c11.837-1.316 21.046-.003 32.88 19.728L75.25 48.76l13.153 13.153C76.57 81.644 67.36 82.957 55.524 81.642c1.315 11.837.003 21.046-19.728 32.88L22.644 101.37zm150.202 0l-11.577 11.577c-19.731-11.834-21.043-21.043-19.728-32.88-11.837 1.316-21.046.003-32.88-19.727l11.577-11.577-11.834-11.834c11.834-19.73 21.043-21.043 32.88-19.728-1.316-11.837-.003-21.046 19.727-32.88l11.833 11.833L185.998-17c19.731 11.834 21.043 21.043 19.728 32.88 11.837-1.316 21.046-.003 32.88 19.728L225.452 48.76l13.154 13.153c-11.834 19.73-21.043 21.043-32.88 19.728 1.315 11.837.003 21.046-19.728 32.88l-13.152-13.152zm150.202 0l-11.577 11.577c-19.731-11.834-21.043-21.043-19.728-32.88-11.837 1.316-21.046.003-32.88-19.727l11.577-11.577-11.834-11.834c11.834-19.73 21.043-21.043 32.88-19.728-1.316-11.837-.003-21.046 19.727-32.88l11.833 11.833L336.2-17c19.731 11.834 21.043 21.043 19.728 32.88 11.837-1.316 21.046-.003 32.88 19.728L375.654 48.76l13.154 13.153c-11.834 19.73-21.043 21.043-32.88 19.728 1.315 11.837.003 21.046-19.728 32.88l-13.152-13.152zm150.202 0l-11.577 11.577c-19.731-11.834-21.043-21.043-19.728-32.88-11.837 1.316-21.046.003-32.88-19.727l11.577-11.577-11.834-11.834c11.834-19.73 21.043-21.043 32.88-19.728-1.316-11.837-.003-21.046 19.727-32.88l11.833 11.833L486.402-17c19.73 11.834 21.043 21.043 19.728 32.88 11.837-1.316 21.046-.003 32.88 19.728L525.856 48.76l13.154 13.153c-11.834 19.73-21.043 21.043-32.88 19.728 1.315 11.837.003 21.046-19.728 32.88L473.25 101.37zm150.202 0l-11.577 11.577c-19.731-11.834-21.043-21.043-19.728-32.88-11.837 1.316-21.046.003-32.88-19.727l11.577-11.577-11.834-11.834c11.834-19.73 21.043-21.043 32.879-19.728-1.315-11.837-.002-21.046 19.728-32.88L623.45-3.846 636.604-17c19.73 11.834 21.043 21.043 19.728 32.88 11.837-1.316 21.045-.003 32.879 19.728L676.058 48.76l13.154 13.153c-11.834 19.73-21.043 21.043-32.88 19.728 1.315 11.837.003 21.046-19.728 32.88l-13.152-13.152zm150.202 0l-11.577 11.577c-19.731-11.834-21.044-21.043-19.728-32.88-11.837 1.316-21.046.003-32.88-19.727l11.577-11.577-11.834-11.834c11.834-19.73 21.042-21.043 32.879-19.728-1.315-11.837-.002-21.046 19.728-32.88l11.833 11.833L786.806-17c19.73 11.834 21.043 21.043 19.728 32.88 11.836-1.316 21.045-.003 32.879 19.728L826.26 48.76l13.153 13.153c-11.834 19.73-21.042 21.043-32.879 19.728 1.315 11.837.002 21.046-19.728 32.88l-13.152-13.152zm150.202 0l-11.578 11.577c-19.73-11.834-21.043-21.043-19.727-32.88-11.837 1.316-21.046.003-32.88-19.727l11.577-11.577-11.835-11.834c11.834-19.73 21.043-21.043 32.88-19.728-1.315-11.837-.003-21.046 19.728-32.88l11.833 11.833L937.008-17c19.73 11.834 21.043 21.043 19.728 32.88 11.836-1.316 21.045-.003 32.879 19.728L976.462 48.76l13.153 13.153c-11.834 19.73-21.043 21.043-32.879 19.728 1.315 11.837.002 21.046-19.728 32.88l-13.152-13.152zm150.204 0l-11.58 11.577c-19.73-11.834-21.04-21.043-19.73-32.88-11.83 1.316-21.04.003-32.88-19.727l11.58-11.577-11.83-11.834c11.83-19.73 21.04-21.043 32.88-19.728-1.32-11.837-.01-21.046 19.72-32.88l11.84 11.833L1087.21-17c19.73 11.834 21.04 21.043 19.73 32.88 11.83-1.316 21.04-.003 32.88 19.728l-13.16 13.153 13.16 13.153c-11.84 19.73-21.05 21.043-32.88 19.728 1.31 11.837 0 21.046-19.73 32.88l-13.15-13.152zm150.2 0l-11.58 11.577c-19.73-11.834-21.04-21.043-19.73-32.88-11.83 1.316-21.04.003-32.88-19.727l11.58-11.577-11.83-11.834c11.83-19.73 21.04-21.043 32.88-19.728-1.32-11.837-.01-21.046 19.72-32.88l11.84 11.833L1237.41-17c19.73 11.834 21.04 21.043 19.73 32.88 11.84-1.316 21.05-.003 32.88 19.728l-13.15 13.153 13.15 13.153c-11.83 19.73-21.04 21.043-32.88 19.728 1.31 11.837 0 21.046-19.73 32.88l-13.15-13.152zm150.2 0l-11.58 11.577c-19.73-11.834-21.04-21.043-19.72-32.88-11.84 1.316-21.05.003-32.88-19.727l11.57-11.577-11.83-11.834c11.83-19.73 21.04-21.043 32.88-19.728-1.32-11.837 0-21.046 19.73-32.88l11.83 11.833L1387.61-17c19.73 11.834 21.05 21.043 19.73 32.88 11.84-1.316 21.05-.003 32.88 19.728l-13.15 13.153 13.15 13.153c-11.83 19.73-21.04 21.043-32.88 19.728 1.32 11.837 0 21.046-19.73 32.88l-13.15-13.152zm-1423.018 126l-11.577 11.577c-19.73-11.834-21.043-21.043-19.728-32.879-11.837 1.315-21.046.002-32.88-19.728l11.577-11.577L-113 162.929c11.834-19.731 21.043-21.043 32.88-19.728-1.316-11.837-.003-21.046 19.728-32.88l11.832 11.833L-35.406 109c19.73 11.834 21.043 21.043 19.728 32.88 11.837-1.316 21.046-.003 32.88 19.728L4.049 174.761l13.153 13.153c-11.834 19.731-21.043 21.043-32.88 19.728 1.316 11.837.003 21.046-19.728 32.88l-13.152-13.152zm150.202 0l-11.577 11.577c-19.73-11.834-21.043-21.043-19.728-32.879-11.837 1.315-21.046.002-32.88-19.728l11.577-11.577-11.834-11.834c11.834-19.731 21.043-21.043 32.88-19.728-1.316-11.837-.003-21.046 19.728-32.88l11.832 11.833L114.796 109c19.731 11.834 21.043 21.043 19.728 32.88 11.837-1.316 21.046-.003 32.88 19.728l-13.153 13.153 13.153 13.153c-11.834 19.731-21.043 21.043-32.88 19.728 1.315 11.837.003 21.046-19.728 32.88l-13.152-13.152zm150.202 0l-11.577 11.577c-19.731-11.834-21.043-21.043-19.728-32.879-11.837 1.315-21.046.002-32.88-19.728l11.577-11.577-11.834-11.834c11.834-19.731 21.043-21.043 32.88-19.728-1.316-11.837-.003-21.046 19.727-32.88l11.833 11.833L264.998 109c19.731 11.834 21.043 21.043 19.728 32.88 11.837-1.316 21.046-.003 32.88 19.728l-13.154 13.153 13.154 13.153c-11.834 19.731-21.043 21.043-32.88 19.728 1.315 11.837.003 21.046-19.728 32.88l-13.152-13.152zm150.202 0l-11.577 11.577c-19.731-11.834-21.043-21.043-19.728-32.879-11.837 1.315-21.046.002-32.88-19.728l11.577-11.577-11.834-11.834c11.834-19.731 21.043-21.043 32.88-19.728-1.316-11.837-.003-21.046 19.727-32.88l11.833 11.833L415.2 109c19.731 11.834 21.043 21.043 19.728 32.88 11.837-1.316 21.046-.003 32.88 19.728l-13.154 13.153 13.154 13.153c-11.834 19.731-21.043 21.043-32.88 19.728 1.315 11.837.003 21.046-19.728 32.88l-13.152-13.152zm150.202 0l-11.577 11.577c-19.731-11.834-21.043-21.043-19.728-32.879-11.837 1.315-21.046.002-32.88-19.728l11.577-11.577-11.834-11.834c11.834-19.731 21.043-21.043 32.88-19.728-1.316-11.837-.003-21.046 19.727-32.88l11.833 11.833L565.402 109c19.73 11.834 21.043 21.043 19.728 32.88 11.837-1.316 21.046-.003 32.88 19.728l-13.154 13.153 13.154 13.153c-11.834 19.731-21.043 21.043-32.88 19.728 1.315 11.837.003 21.046-19.728 32.88L552.25 227.37zm150.202 0l-11.577 11.577c-19.731-11.834-21.043-21.043-19.728-32.879-11.837 1.315-21.046.002-32.88-19.728l11.577-11.577-11.834-11.834c11.834-19.731 21.043-21.043 32.879-19.728-1.315-11.837-.002-21.046 19.728-32.88l11.833 11.833L715.604 109c19.73 11.834 21.043 21.043 19.728 32.88 11.837-1.316 21.045-.003 32.879 19.728l-13.153 13.153 13.154 13.153c-11.834 19.731-21.043 21.043-32.88 19.728 1.315 11.837.003 21.046-19.728 32.88l-13.152-13.152zm150.202 0l-11.577 11.577c-19.731-11.834-21.044-21.043-19.728-32.879-11.837 1.315-21.046.002-32.88-19.728l11.577-11.577-11.834-11.834c11.834-19.731 21.042-21.043 32.879-19.728-1.315-11.837-.002-21.046 19.728-32.88l11.833 11.833L865.806 109c19.73 11.834 21.043 21.043 19.728 32.88 11.837-1.316 21.045-.003 32.879 19.728l-13.153 13.153 13.153 13.153c-11.834 19.731-21.042 21.043-32.879 19.728 1.315 11.837.002 21.046-19.728 32.88l-13.152-13.152zm150.206 0l-11.582 11.577c-19.73-11.834-21.043-21.043-19.727-32.879-11.837 1.315-21.046.002-32.88-19.728l11.577-11.577-11.835-11.834c11.834-19.731 21.043-21.043 32.88-19.728-1.315-11.837-.003-21.046 19.728-32.88l11.829 11.833L1016.01 109c19.73 11.834 21.04 21.043 19.73 32.88 11.83-1.316 21.04-.003 32.88 19.728l-13.16 13.153 13.16 13.153c-11.84 19.731-21.05 21.043-32.88 19.728 1.31 11.837 0 21.046-19.73 32.88l-13.15-13.152zm150.2 0l-11.58 11.577c-19.73-11.834-21.04-21.043-19.73-32.879-11.83 1.315-21.04.002-32.88-19.728l11.58-11.577-11.83-11.834c11.83-19.731 21.04-21.043 32.88-19.728-1.32-11.837-.01-21.046 19.72-32.88l11.84 11.833L1166.21 109c19.73 11.834 21.04 21.043 19.73 32.88 11.83-1.316 21.04-.003 32.88 19.728l-13.16 13.153 13.16 13.153c-11.84 19.731-21.05 21.043-32.88 19.728 1.31 11.837 0 21.046-19.73 32.88l-13.15-13.152zm150.2 0l-11.58 11.577c-19.73-11.834-21.04-21.043-19.73-32.879-11.83 1.315-21.04.002-32.88-19.728l11.58-11.577-11.83-11.834c11.83-19.731 21.04-21.043 32.88-19.728-1.32-11.837-.01-21.046 19.72-32.88l11.84 11.833L1316.41 109c19.73 11.834 21.04 21.043 19.73 32.88 11.84-1.316 21.05-.003 32.88 19.728l-13.15 13.153 13.15 13.153c-11.83 19.731-21.04 21.043-32.88 19.728 1.31 11.837 0 21.046-19.73 32.88l-13.15-13.152zm150.2 0l-11.58 11.577c-19.73-11.834-21.04-21.043-19.72-32.879-11.84 1.315-21.05.002-32.88-19.728l11.57-11.577-11.83-11.834c11.83-19.731 21.04-21.043 32.88-19.728-1.32-11.837 0-21.046 19.73-32.88l11.83 11.833L1466.61 109c19.73 11.834 21.05 21.043 19.73 32.88 11.84-1.316 21.05-.003 32.88 19.728l-13.15 13.153 13.15 13.153c-11.83 19.731-21.04 21.043-32.88 19.728 1.32 11.837 0 21.046-19.73 32.88l-13.15-13.152zm-1502.018 238l-11.577 11.577c-19.73-11.834-21.043-21.043-19.728-32.879-11.837 1.315-21.046.002-32.88-19.728l11.577-11.577L-113 400.929c11.834-19.731 21.043-21.043 32.88-19.728-1.316-11.837-.003-21.046 19.728-32.88l11.832 11.833L-35.406 347c19.73 11.834 21.043 21.043 19.728 32.88 11.837-1.316 21.046-.003 32.88 19.728L4.049 412.761l13.153 13.153c-11.834 19.731-21.043 21.043-32.88 19.728 1.316 11.837.003 21.046-19.728 32.88l-13.152-13.152zm150.202 0l-11.577 11.577c-19.73-11.834-21.043-21.043-19.728-32.879-11.837 1.315-21.046.002-32.88-19.728l11.577-11.577-11.834-11.834c11.834-19.731 21.043-21.043 32.88-19.728-1.316-11.837-.003-21.046 19.728-32.88l11.832 11.833L114.796 347c19.731 11.834 21.043 21.043 19.728 32.88 11.837-1.316 21.046-.003 32.88 19.728l-13.153 13.153 13.153 13.153c-11.834 19.731-21.043 21.043-32.88 19.728 1.315 11.837.003 21.046-19.728 32.88l-13.152-13.152zm150.202 0l-11.577 11.577c-19.731-11.834-21.043-21.043-19.728-32.879-11.837 1.315-21.046.002-32.88-19.728l11.577-11.577-11.834-11.834c11.834-19.731 21.043-21.043 32.88-19.728-1.316-11.837-.003-21.046 19.727-32.88l11.833 11.833L264.998 347c19.731 11.834 21.043 21.043 19.728 32.88 11.837-1.316 21.046-.003 32.88 19.728l-13.154 13.153 13.154 13.153c-11.834 19.731-21.043 21.043-32.88 19.728 1.315 11.837.003 21.046-19.728 32.88l-13.152-13.152zm150.202 0l-11.577 11.577c-19.731-11.834-21.043-21.043-19.728-32.879-11.837 1.315-21.046.002-32.88-19.728l11.577-11.577-11.834-11.834c11.834-19.731 21.043-21.043 32.88-19.728-1.316-11.837-.003-21.046 19.727-32.88l11.833 11.833L415.2 347c19.731 11.834 21.043 21.043 19.728 32.88 11.837-1.316 21.046-.003 32.88 19.728l-13.154 13.153 13.154 13.153c-11.834 19.731-21.043 21.043-32.88 19.728 1.315 11.837.003 21.046-19.728 32.88l-13.152-13.152zm150.202 0l-11.577 11.577c-19.731-11.834-21.043-21.043-19.728-32.879-11.837 1.315-21.046.002-32.88-19.728l11.577-11.577-11.834-11.834c11.834-19.731 21.043-21.043 32.88-19.728-1.316-11.837-.003-21.046 19.727-32.88l11.833 11.833L565.402 347c19.73 11.834 21.043 21.043 19.728 32.88 11.837-1.316 21.046-.003 32.88 19.728l-13.154 13.153 13.154 13.153c-11.834 19.731-21.043 21.043-32.88 19.728 1.315 11.837.003 21.046-19.728 32.88L552.25 465.37zm150.202 0l-11.577 11.577c-19.731-11.834-21.043-21.043-19.728-32.879-11.837 1.315-21.046.002-32.88-19.728l11.577-11.577-11.834-11.834c11.834-19.731 21.043-21.043 32.879-19.728-1.315-11.837-.002-21.046 19.728-32.88l11.833 11.833L715.604 347c19.73 11.834 21.043 21.043 19.728 32.88 11.837-1.316 21.045-.003 32.879 19.728l-13.153 13.153 13.154 13.153c-11.834 19.731-21.043 21.043-32.88 19.728 1.315 11.837.003 21.046-19.728 32.88l-13.152-13.152zm150.202 0l-11.577 11.577c-19.731-11.834-21.044-21.043-19.728-32.879-11.837 1.315-21.046.002-32.88-19.728l11.577-11.577-11.834-11.834c11.834-19.731 21.042-21.043 32.879-19.728-1.315-11.837-.002-21.046 19.728-32.88l11.833 11.833L865.806 347c19.73 11.834 21.043 21.043 19.728 32.88 11.837-1.316 21.045-.003 32.879 19.728l-13.153 13.153 13.153 13.153c-11.834 19.731-21.042 21.043-32.879 19.728 1.315 11.837.002 21.046-19.728 32.88l-13.152-13.152zm150.206 0l-11.582 11.577c-19.73-11.834-21.043-21.043-19.727-32.879-11.837 1.315-21.046.002-32.88-19.728l11.577-11.577-11.835-11.834c11.834-19.731 21.043-21.043 32.88-19.728-1.315-11.837-.003-21.046 19.728-32.88l11.829 11.833L1016.01 347c19.73 11.834 21.04 21.043 19.73 32.88 11.83-1.316 21.04-.003 32.88 19.728l-13.16 13.153 13.16 13.153c-11.84 19.731-21.05 21.043-32.88 19.728 1.31 11.837 0 21.046-19.73 32.88l-13.15-13.152zm150.2 0l-11.58 11.577c-19.73-11.834-21.04-21.043-19.73-32.879-11.83 1.315-21.04.002-32.88-19.728l11.58-11.577-11.83-11.834c11.83-19.731 21.04-21.043 32.88-19.728-1.32-11.837-.01-21.046 19.72-32.88l11.84 11.833L1166.21 347c19.73 11.834 21.04 21.043 19.73 32.88 11.83-1.316 21.04-.003 32.88 19.728l-13.16 13.153 13.16 13.153c-11.84 19.731-21.05 21.043-32.88 19.728 1.31 11.837 0 21.046-19.73 32.88l-13.15-13.152zm150.2 0l-11.58 11.577c-19.73-11.834-21.04-21.043-19.73-32.879-11.83 1.315-21.04.002-32.88-19.728l11.58-11.577-11.83-11.834c11.83-19.731 21.04-21.043 32.88-19.728-1.32-11.837-.01-21.046 19.72-32.88l11.84 11.833L1316.41 347c19.73 11.834 21.04 21.043 19.73 32.88 11.84-1.316 21.05-.003 32.88 19.728l-13.15 13.153 13.15 13.153c-11.83 19.731-21.04 21.043-32.88 19.728 1.31 11.837 0 21.046-19.73 32.88l-13.15-13.152zm150.2 0l-11.58 11.577c-19.73-11.834-21.04-21.043-19.72-32.879-11.84 1.315-21.05.002-32.88-19.728l11.57-11.577-11.83-11.834c11.83-19.731 21.04-21.043 32.88-19.728-1.32-11.837 0-21.046 19.73-32.88l11.83 11.833L1466.61 347c19.73 11.834 21.05 21.043 19.73 32.88 11.84-1.316 21.05-.003 32.88 19.728l-13.15 13.153 13.15 13.153c-11.83 19.731-21.04 21.043-32.88 19.728 1.32 11.837 0 21.046-19.73 32.88l-13.15-13.152zm-1502.018 241l-11.577 11.577c-19.73-11.834-21.043-21.043-19.728-32.879-11.837 1.315-21.046.002-32.88-19.728l11.577-11.577L-113 641.929c11.834-19.731 21.043-21.043 32.88-19.728-1.316-11.837-.003-21.046 19.728-32.88l11.832 11.833L-35.406 588c19.73 11.834 21.043 21.043 19.728 32.88 11.837-1.316 21.046-.003 32.88 19.728L4.049 653.761l13.153 13.153c-11.834 19.731-21.043 21.043-32.88 19.728 1.316 11.837.003 21.046-19.728 32.88l-13.152-13.152zm150.202 0l-11.577 11.577c-19.73-11.834-21.043-21.043-19.728-32.879-11.837 1.315-21.046.002-32.88-19.728l11.577-11.577-11.834-11.834c11.834-19.731 21.043-21.043 32.88-19.728-1.316-11.837-.003-21.046 19.728-32.88l11.832 11.833L114.796 588c19.731 11.834 21.043 21.043 19.728 32.88 11.837-1.316 21.046-.003 32.88 19.728l-13.153 13.153 13.153 13.153c-11.834 19.731-21.043 21.043-32.88 19.728 1.315 11.837.003 21.046-19.728 32.88l-13.152-13.152zm150.202 0l-11.577 11.577c-19.731-11.834-21.043-21.043-19.728-32.879-11.837 1.315-21.046.002-32.88-19.728l11.577-11.577-11.834-11.834c11.834-19.731 21.043-21.043 32.88-19.728-1.316-11.837-.003-21.046 19.727-32.88l11.833 11.833L264.998 588c19.731 11.834 21.043 21.043 19.728 32.88 11.837-1.316 21.046-.003 32.88 19.728l-13.154 13.153 13.154 13.153c-11.834 19.731-21.043 21.043-32.88 19.728 1.315 11.837.003 21.046-19.728 32.88l-13.152-13.152zm150.202 0l-11.577 11.577c-19.731-11.834-21.043-21.043-19.728-32.879-11.837 1.315-21.046.002-32.88-19.728l11.577-11.577-11.834-11.834c11.834-19.731 21.043-21.043 32.88-19.728-1.316-11.837-.003-21.046 19.727-32.88l11.833 11.833L415.2 588c19.731 11.834 21.043 21.043 19.728 32.88 11.837-1.316 21.046-.003 32.88 19.728l-13.154 13.153 13.154 13.153c-11.834 19.731-21.043 21.043-32.88 19.728 1.315 11.837.003 21.046-19.728 32.88l-13.152-13.152zm150.202 0l-11.577 11.577c-19.731-11.834-21.043-21.043-19.728-32.879-11.837 1.315-21.046.002-32.88-19.728l11.577-11.577-11.834-11.834c11.834-19.731 21.043-21.043 32.88-19.728-1.316-11.837-.003-21.046 19.727-32.88l11.833 11.833L565.402 588c19.73 11.834 21.043 21.043 19.728 32.88 11.837-1.316 21.046-.003 32.88 19.728l-13.154 13.153 13.154 13.153c-11.834 19.731-21.043 21.043-32.88 19.728 1.315 11.837.003 21.046-19.728 32.88L552.25 706.37zm150.202 0l-11.577 11.577c-19.731-11.834-21.043-21.043-19.728-32.879-11.837 1.315-21.046.002-32.88-19.728l11.577-11.577-11.834-11.834c11.834-19.731 21.043-21.043 32.879-19.728-1.315-11.837-.002-21.046 19.728-32.88l11.833 11.833L715.604 588c19.73 11.834 21.043 21.043 19.728 32.88 11.837-1.316 21.045-.003 32.879 19.728l-13.153 13.153 13.154 13.153c-11.834 19.731-21.043 21.043-32.88 19.728 1.315 11.837.003 21.046-19.728 32.88l-13.152-13.152zm150.202 0l-11.577 11.577c-19.731-11.834-21.044-21.043-19.728-32.879-11.837 1.315-21.046.002-32.88-19.728l11.577-11.577-11.834-11.834c11.834-19.731 21.042-21.043 32.879-19.728-1.315-11.837-.002-21.046 19.728-32.88l11.833 11.833L865.806 588c19.73 11.834 21.043 21.043 19.728 32.88 11.837-1.316 21.045-.003 32.879 19.728l-13.153 13.153 13.153 13.153c-11.834 19.731-21.042 21.043-32.879 19.728 1.315 11.837.002 21.046-19.728 32.88l-13.152-13.152zm150.206 0l-11.582 11.577c-19.73-11.834-21.043-21.043-19.727-32.879-11.837 1.315-21.046.002-32.88-19.728l11.577-11.577-11.835-11.834c11.834-19.731 21.043-21.043 32.88-19.728-1.315-11.837-.003-21.046 19.728-32.88l11.829 11.833L1016.01 588c19.73 11.834 21.04 21.043 19.73 32.88 11.83-1.316 21.04-.003 32.88 19.728l-13.16 13.153 13.16 13.153c-11.84 19.731-21.05 21.043-32.88 19.728 1.31 11.837 0 21.046-19.73 32.88l-13.15-13.152zm150.2 0l-11.58 11.577c-19.73-11.834-21.04-21.043-19.73-32.879-11.83 1.315-21.04.002-32.88-19.728l11.58-11.577-11.83-11.834c11.83-19.731 21.04-21.043 32.88-19.728-1.32-11.837-.01-21.046 19.72-32.88l11.84 11.833L1166.21 588c19.73 11.834 21.04 21.043 19.73 32.88 11.83-1.316 21.04-.003 32.88 19.728l-13.16 13.153 13.16 13.153c-11.84 19.731-21.05 21.043-32.88 19.728 1.31 11.837 0 21.046-19.73 32.88l-13.15-13.152zm150.2 0l-11.58 11.577c-19.73-11.834-21.04-21.043-19.73-32.879-11.83 1.315-21.04.002-32.88-19.728l11.58-11.577-11.83-11.834c11.83-19.731 21.04-21.043 32.88-19.728-1.32-11.837-.01-21.046 19.72-32.88l11.84 11.833L1316.41 588c19.73 11.834 21.04 21.043 19.73 32.88 11.84-1.316 21.05-.003 32.88 19.728l-13.15 13.153 13.15 13.153c-11.83 19.731-21.04 21.043-32.88 19.728 1.31 11.837 0 21.046-19.73 32.88l-13.15-13.152zm150.2 0l-11.58 11.577c-19.73-11.834-21.04-21.043-19.72-32.879-11.84 1.315-21.05.002-32.88-19.728l11.57-11.577-11.83-11.834c11.83-19.731 21.04-21.043 32.88-19.728-1.32-11.837 0-21.046 19.73-32.88l11.83 11.833L1466.61 588c19.73 11.834 21.05 21.043 19.73 32.88 11.84-1.316 21.05-.003 32.88 19.728l-13.15 13.153 13.15 13.153c-11.83 19.731-21.04 21.043-32.88 19.728 1.32 11.837 0 21.046-19.73 32.88l-13.15-13.152zm-1576.018 120l-11.577 11.577c-19.73-11.834-21.043-21.043-19.728-32.879-11.837 1.315-21.046.002-32.88-19.728l11.577-11.577L-187 761.929c11.834-19.731 21.043-21.043 32.88-19.728-1.316-11.837-.003-21.046 19.728-32.88l11.832 11.833L-109.406 708c19.73 11.834 21.043 21.043 19.728 32.88 11.837-1.316 21.046-.003 32.88 19.728l-13.153 13.153 13.153 13.153c-11.834 19.731-21.043 21.043-32.88 19.728 1.316 11.837.003 21.046-19.728 32.88l-13.152-13.152zm150.202 0l-11.577 11.577c-19.73-11.834-21.043-21.043-19.728-32.879-11.837 1.315-21.046.002-32.88-19.728l11.577-11.577-11.834-11.834c11.834-19.731 21.043-21.043 32.88-19.728-1.316-11.837-.003-21.046 19.727-32.88l11.833 11.833L40.796 708c19.73 11.834 21.043 21.043 19.728 32.88 11.837-1.316 21.046-.003 32.88 19.728L80.25 773.761l13.153 13.153c-11.834 19.731-21.043 21.043-32.88 19.728 1.315 11.837.003 21.046-19.728 32.88L27.644 826.37zm150.202 0l-11.577 11.577c-19.731-11.834-21.043-21.043-19.728-32.879-11.837 1.315-21.046.002-32.88-19.728l11.577-11.577-11.834-11.834c11.834-19.731 21.043-21.043 32.88-19.728-1.316-11.837-.003-21.046 19.727-32.88l11.833 11.833L190.998 708c19.731 11.834 21.043 21.043 19.728 32.88 11.837-1.316 21.046-.003 32.88 19.728l-13.154 13.153 13.154 13.153c-11.834 19.731-21.043 21.043-32.88 19.728 1.315 11.837.003 21.046-19.728 32.88l-13.152-13.152zm150.202 0l-11.577 11.577c-19.731-11.834-21.043-21.043-19.728-32.879-11.837 1.315-21.046.002-32.88-19.728l11.577-11.577-11.834-11.834c11.834-19.731 21.043-21.043 32.88-19.728-1.316-11.837-.003-21.046 19.727-32.88l11.833 11.833L341.2 708c19.731 11.834 21.043 21.043 19.728 32.88 11.837-1.316 21.046-.003 32.88 19.728l-13.154 13.153 13.154 13.153c-11.834 19.731-21.043 21.043-32.88 19.728 1.315 11.837.003 21.046-19.728 32.88l-13.152-13.152zm150.202 0l-11.577 11.577c-19.731-11.834-21.043-21.043-19.728-32.879-11.837 1.315-21.046.002-32.88-19.728l11.577-11.577-11.834-11.834c11.834-19.731 21.043-21.043 32.88-19.728-1.316-11.837-.003-21.046 19.727-32.88l11.833 11.833L491.402 708c19.73 11.834 21.043 21.043 19.728 32.88 11.837-1.316 21.046-.003 32.88 19.728l-13.154 13.153 13.154 13.153c-11.834 19.731-21.043 21.043-32.88 19.728 1.315 11.837.003 21.046-19.728 32.88L478.25 826.37zm150.202 0l-11.577 11.577c-19.731-11.834-21.043-21.043-19.728-32.879-11.837 1.315-21.046.002-32.88-19.728l11.577-11.577-11.834-11.834c11.834-19.731 21.043-21.043 32.879-19.728-1.315-11.837-.002-21.046 19.728-32.88l11.833 11.833L641.604 708c19.73 11.834 21.043 21.043 19.728 32.88 11.837-1.316 21.045-.003 32.879 19.728l-13.153 13.153 13.154 13.153c-11.834 19.731-21.043 21.043-32.88 19.728 1.315 11.837.003 21.046-19.728 32.88l-13.152-13.152zm150.202 0l-11.577 11.577c-19.731-11.834-21.044-21.043-19.728-32.879-11.837 1.315-21.046.002-32.88-19.728l11.577-11.577-11.834-11.834c11.834-19.731 21.042-21.043 32.879-19.728-1.315-11.837-.002-21.046 19.728-32.88l11.833 11.833L791.806 708c19.73 11.834 21.043 21.043 19.728 32.88 11.836-1.316 21.045-.003 32.879 19.728l-13.153 13.153 13.153 13.153c-11.834 19.731-21.042 21.043-32.879 19.728 1.315 11.837.002 21.046-19.728 32.88l-13.152-13.152zm150.202 0l-11.578 11.577c-19.73-11.834-21.043-21.043-19.727-32.879-11.837 1.315-21.046.002-32.88-19.728l11.577-11.577-11.835-11.834c11.834-19.731 21.043-21.043 32.88-19.728-1.315-11.837-.003-21.046 19.728-32.88l11.833 11.833L942.008 708c19.73 11.834 21.043 21.043 19.728 32.88 11.836-1.316 21.045-.003 32.879 19.728l-13.153 13.153 13.153 13.153c-11.834 19.731-21.043 21.043-32.879 19.728 1.315 11.837.002 21.046-19.728 32.88l-13.152-13.152zm150.204 0l-11.58 11.577c-19.73-11.834-21.04-21.043-19.73-32.879-11.83 1.315-21.04.002-32.88-19.728l11.58-11.577-11.83-11.834c11.83-19.731 21.04-21.043 32.88-19.728-1.32-11.837-.01-21.046 19.72-32.88l11.84 11.833L1092.21 708c19.73 11.834 21.04 21.043 19.73 32.88 11.83-1.316 21.04-.003 32.88 19.728l-13.16 13.153 13.16 13.153c-11.84 19.731-21.05 21.043-32.88 19.728 1.31 11.837 0 21.046-19.73 32.88l-13.15-13.152zm150.2 0l-11.58 11.577c-19.73-11.834-21.04-21.043-19.73-32.879-11.83 1.315-21.04.002-32.88-19.728l11.58-11.577-11.83-11.834c11.83-19.731 21.04-21.043 32.88-19.728-1.32-11.837-.01-21.046 19.72-32.88l11.84 11.833L1242.41 708c19.73 11.834 21.04 21.043 19.73 32.88 11.84-1.316 21.05-.003 32.88 19.728l-13.15 13.153 13.15 13.153c-11.83 19.731-21.04 21.043-32.88 19.728 1.31 11.837 0 21.046-19.73 32.88l-13.15-13.152zm150.2 0l-11.58 11.577c-19.73-11.834-21.04-21.043-19.72-32.879-11.84 1.315-21.05.002-32.88-19.728l11.57-11.577-11.83-11.834c11.83-19.731 21.04-21.043 32.88-19.728-1.32-11.837 0-21.046 19.73-32.88l11.83 11.833L1392.61 708c19.73 11.834 21.05 21.043 19.73 32.88 11.84-1.316 21.05-.003 32.88 19.728l-13.15 13.153 13.15 13.153c-11.83 19.731-21.04 21.043-32.88 19.728 1.32 11.837 0 21.046-19.73 32.88l-13.15-13.152zm-1506.018-479l-11.577 11.577c-19.73-11.834-21.043-21.043-19.728-32.879-11.837 1.315-21.046.002-32.88-19.728l11.577-11.577L-191 282.929c11.834-19.731 21.043-21.043 32.88-19.728-1.316-11.837-.003-21.046 19.728-32.88l11.832 11.833L-113.406 229c19.73 11.834 21.043 21.043 19.728 32.88 11.837-1.316 21.046-.003 32.88 19.728l-13.153 13.153 13.153 13.153c-11.834 19.731-21.043 21.043-32.88 19.728 1.316 11.837.003 21.046-19.728 32.88l-13.152-13.152zm150.202 0l-11.577 11.577c-19.73-11.834-21.043-21.043-19.728-32.879-11.837 1.315-21.046.002-32.88-19.728l11.577-11.577-11.834-11.834c11.834-19.731 21.043-21.043 32.88-19.728-1.316-11.837-.003-21.046 19.727-32.88l11.833 11.833L36.796 229c19.73 11.834 21.043 21.043 19.728 32.88 11.837-1.316 21.046-.003 32.88 19.728L76.25 294.761l13.153 13.153c-11.834 19.731-21.043 21.043-32.88 19.728 1.315 11.837.003 21.046-19.728 32.88L23.644 347.37zm150.202 0l-11.577 11.577c-19.731-11.834-21.043-21.043-19.728-32.879-11.837 1.315-21.046.002-32.88-19.728l11.577-11.577-11.834-11.834c11.834-19.731 21.043-21.043 32.88-19.728-1.316-11.837-.003-21.046 19.727-32.88l11.833 11.833L186.998 229c19.731 11.834 21.043 21.043 19.728 32.88 11.837-1.316 21.046-.003 32.88 19.728l-13.154 13.153 13.154 13.153c-11.834 19.731-21.043 21.043-32.88 19.728 1.315 11.837.003 21.046-19.728 32.88l-13.152-13.152zm150.202 0l-11.577 11.577c-19.731-11.834-21.043-21.043-19.728-32.879-11.837 1.315-21.046.002-32.88-19.728l11.577-11.577-11.834-11.834c11.834-19.731 21.043-21.043 32.88-19.728-1.316-11.837-.003-21.046 19.727-32.88l11.833 11.833L337.2 229c19.731 11.834 21.043 21.043 19.728 32.88 11.837-1.316 21.046-.003 32.88 19.728l-13.154 13.153 13.154 13.153c-11.834 19.731-21.043 21.043-32.88 19.728 1.315 11.837.003 21.046-19.728 32.88l-13.152-13.152zm150.202 0l-11.577 11.577c-19.731-11.834-21.043-21.043-19.728-32.879-11.837 1.315-21.046.002-32.88-19.728l11.577-11.577-11.834-11.834c11.834-19.731 21.043-21.043 32.88-19.728-1.316-11.837-.003-21.046 19.727-32.88l11.833 11.833L487.402 229c19.73 11.834 21.043 21.043 19.728 32.88 11.837-1.316 21.046-.003 32.88 19.728l-13.154 13.153 13.154 13.153c-11.834 19.731-21.043 21.043-32.88 19.728 1.315 11.837.003 21.046-19.728 32.88L474.25 347.37zm150.202 0l-11.577 11.577c-19.731-11.834-21.043-21.043-19.728-32.879-11.837 1.315-21.046.002-32.88-19.728l11.577-11.577-11.834-11.834c11.834-19.731 21.043-21.043 32.879-19.728-1.315-11.837-.002-21.046 19.728-32.88l11.833 11.833L637.604 229c19.73 11.834 21.043 21.043 19.728 32.88 11.837-1.316 21.045-.003 32.879 19.728l-13.153 13.153 13.154 13.153c-11.834 19.731-21.043 21.043-32.88 19.728 1.315 11.837.003 21.046-19.728 32.88l-13.152-13.152zm150.202 0l-11.577 11.577c-19.731-11.834-21.044-21.043-19.728-32.879-11.837 1.315-21.046.002-32.88-19.728l11.577-11.577-11.834-11.834c11.834-19.731 21.042-21.043 32.879-19.728-1.315-11.837-.002-21.046 19.728-32.88l11.833 11.833L787.806 229c19.73 11.834 21.043 21.043 19.728 32.88 11.836-1.316 21.045-.003 32.879 19.728l-13.153 13.153 13.153 13.153c-11.834 19.731-21.042 21.043-32.879 19.728 1.315 11.837.002 21.046-19.728 32.88l-13.152-13.152zm150.202 0l-11.578 11.577c-19.73-11.834-21.043-21.043-19.727-32.879-11.837 1.315-21.046.002-32.88-19.728l11.577-11.577-11.835-11.834c11.834-19.731 21.043-21.043 32.88-19.728-1.315-11.837-.003-21.046 19.728-32.88l11.833 11.833L938.008 229c19.73 11.834 21.043 21.043 19.728 32.88 11.836-1.316 21.045-.003 32.879 19.728l-13.153 13.153 13.153 13.153c-11.834 19.731-21.043 21.043-32.879 19.728 1.315 11.837.002 21.046-19.728 32.88l-13.152-13.152zm150.204 0l-11.58 11.577c-19.73-11.834-21.04-21.043-19.73-32.879-11.83 1.315-21.04.002-32.88-19.728l11.58-11.577-11.83-11.834c11.83-19.731 21.04-21.043 32.88-19.728-1.32-11.837-.01-21.046 19.72-32.88l11.84 11.833L1088.21 229c19.73 11.834 21.04 21.043 19.73 32.88 11.83-1.316 21.04-.003 32.88 19.728l-13.16 13.153 13.16 13.153c-11.84 19.731-21.05 21.043-32.88 19.728 1.31 11.837 0 21.046-19.73 32.88l-13.15-13.152zm150.2 0l-11.58 11.577c-19.73-11.834-21.04-21.043-19.73-32.879-11.83 1.315-21.04.002-32.88-19.728l11.58-11.577-11.83-11.834c11.83-19.731 21.04-21.043 32.88-19.728-1.32-11.837-.01-21.046 19.72-32.88l11.84 11.833L1238.41 229c19.73 11.834 21.04 21.043 19.73 32.88 11.84-1.316 21.05-.003 32.88 19.728l-13.15 13.153 13.15 13.153c-11.83 19.731-21.04 21.043-32.88 19.728 1.31 11.837 0 21.046-19.73 32.88l-13.15-13.152zm150.2 0l-11.58 11.577c-19.73-11.834-21.04-21.043-19.72-32.879-11.84 1.315-21.05.002-32.88-19.728l11.57-11.577-11.83-11.834c11.83-19.731 21.04-21.043 32.88-19.728-1.32-11.837 0-21.046 19.73-32.88l11.83 11.833L1388.61 229c19.73 11.834 21.05 21.043 19.73 32.88 11.84-1.316 21.05-.003 32.88 19.728l-13.15 13.153 13.15 13.153c-11.83 19.731-21.04 21.043-32.88 19.728 1.32 11.837 0 21.046-19.73 32.88l-13.15-13.152zm-1502.018 238l-11.577 11.577c-19.73-11.834-21.043-21.043-19.728-32.879-11.837 1.315-21.046.002-32.88-19.728l11.577-11.577L-191 520.929c11.834-19.731 21.043-21.043 32.88-19.728-1.316-11.837-.003-21.046 19.728-32.88l11.832 11.833L-113.406 467c19.73 11.834 21.043 21.043 19.728 32.88 11.837-1.316 21.046-.003 32.88 19.728l-13.153 13.153 13.153 13.153c-11.834 19.731-21.043 21.043-32.88 19.728 1.316 11.837.003 21.046-19.728 32.88l-13.152-13.152zm150.202 0l-11.577 11.577c-19.73-11.834-21.043-21.043-19.728-32.879-11.837 1.315-21.046.002-32.88-19.728l11.577-11.577-11.834-11.834c11.834-19.731 21.043-21.043 32.88-19.728-1.316-11.837-.003-21.046 19.727-32.88l11.833 11.833L36.796 467c19.73 11.834 21.043 21.043 19.728 32.88 11.837-1.316 21.046-.003 32.88 19.728L76.25 532.761l13.153 13.153c-11.834 19.731-21.043 21.043-32.88 19.728 1.315 11.837.003 21.046-19.728 32.88L23.644 585.37zm150.202 0l-11.577 11.577c-19.731-11.834-21.043-21.043-19.728-32.879-11.837 1.315-21.046.002-32.88-19.728l11.577-11.577-11.834-11.834c11.834-19.731 21.043-21.043 32.88-19.728-1.316-11.837-.003-21.046 19.727-32.88l11.833 11.833L186.998 467c19.731 11.834 21.043 21.043 19.728 32.88 11.837-1.316 21.046-.003 32.88 19.728l-13.154 13.153 13.154 13.153c-11.834 19.731-21.043 21.043-32.88 19.728 1.315 11.837.003 21.046-19.728 32.88l-13.152-13.152zm150.202 0l-11.577 11.577c-19.731-11.834-21.043-21.043-19.728-32.879-11.837 1.315-21.046.002-32.88-19.728l11.577-11.577-11.834-11.834c11.834-19.731 21.043-21.043 32.88-19.728-1.316-11.837-.003-21.046 19.727-32.88l11.833 11.833L337.2 467c19.731 11.834 21.043 21.043 19.728 32.88 11.837-1.316 21.046-.003 32.88 19.728l-13.154 13.153 13.154 13.153c-11.834 19.731-21.043 21.043-32.88 19.728 1.315 11.837.003 21.046-19.728 32.88l-13.152-13.152zm150.202 0l-11.577 11.577c-19.731-11.834-21.043-21.043-19.728-32.879-11.837 1.315-21.046.002-32.88-19.728l11.577-11.577-11.834-11.834c11.834-19.731 21.043-21.043 32.88-19.728-1.316-11.837-.003-21.046 19.727-32.88l11.833 11.833L487.402 467c19.73 11.834 21.043 21.043 19.728 32.88 11.837-1.316 21.046-.003 32.88 19.728l-13.154 13.153 13.154 13.153c-11.834 19.731-21.043 21.043-32.88 19.728 1.315 11.837.003 21.046-19.728 32.88L474.25 585.37zm150.202 0l-11.577 11.577c-19.731-11.834-21.043-21.043-19.728-32.879-11.837 1.315-21.046.002-32.88-19.728l11.577-11.577-11.834-11.834c11.834-19.731 21.043-21.043 32.879-19.728-1.315-11.837-.002-21.046 19.728-32.88l11.833 11.833L637.604 467c19.73 11.834 21.043 21.043 19.728 32.88 11.837-1.316 21.045-.003 32.879 19.728l-13.153 13.153 13.154 13.153c-11.834 19.731-21.043 21.043-32.88 19.728 1.315 11.837.003 21.046-19.728 32.88l-13.152-13.152zm150.202 0l-11.577 11.577c-19.731-11.834-21.044-21.043-19.728-32.879-11.837 1.315-21.046.002-32.88-19.728l11.577-11.577-11.834-11.834c11.834-19.731 21.042-21.043 32.879-19.728-1.315-11.837-.002-21.046 19.728-32.88l11.833 11.833L787.806 467c19.73 11.834 21.043 21.043 19.728 32.88 11.836-1.316 21.045-.003 32.879 19.728l-13.153 13.153 13.153 13.153c-11.834 19.731-21.042 21.043-32.879 19.728 1.315 11.837.002 21.046-19.728 32.88l-13.152-13.152zm150.202 0l-11.578 11.577c-19.73-11.834-21.043-21.043-19.727-32.879-11.837 1.315-21.046.002-32.88-19.728l11.577-11.577-11.835-11.834c11.834-19.731 21.043-21.043 32.88-19.728-1.315-11.837-.003-21.046 19.728-32.88l11.833 11.833L938.008 467c19.73 11.834 21.043 21.043 19.728 32.88 11.836-1.316 21.045-.003 32.879 19.728l-13.153 13.153 13.153 13.153c-11.834 19.731-21.043 21.043-32.879 19.728 1.315 11.837.002 21.046-19.728 32.88l-13.152-13.152zm150.204 0l-11.58 11.577c-19.73-11.834-21.04-21.043-19.73-32.879-11.83 1.315-21.04.002-32.88-19.728l11.58-11.577-11.83-11.834c11.83-19.731 21.04-21.043 32.88-19.728-1.32-11.837-.01-21.046 19.72-32.88l11.84 11.833L1088.21 467c19.73 11.834 21.04 21.043 19.73 32.88 11.83-1.316 21.04-.003 32.88 19.728l-13.16 13.153 13.16 13.153c-11.84 19.731-21.05 21.043-32.88 19.728 1.31 11.837 0 21.046-19.73 32.88l-13.15-13.152zm150.2 0l-11.58 11.577c-19.73-11.834-21.04-21.043-19.73-32.879-11.83 1.315-21.04.002-32.88-19.728l11.58-11.577-11.83-11.834c11.83-19.731 21.04-21.043 32.88-19.728-1.32-11.837-.01-21.046 19.72-32.88l11.84 11.833L1238.41 467c19.73 11.834 21.04 21.043 19.73 32.88 11.84-1.316 21.05-.003 32.88 19.728l-13.15 13.153 13.15 13.153c-11.83 19.731-21.04 21.043-32.88 19.728 1.31 11.837 0 21.046-19.73 32.88l-13.15-13.152zm150.2 0l-11.58 11.577c-19.73-11.834-21.04-21.043-19.72-32.879-11.84 1.315-21.05.002-32.88-19.728l11.57-11.577-11.83-11.834c11.83-19.731 21.04-21.043 32.88-19.728-1.32-11.837 0-21.046 19.73-32.88l11.83 11.833L1388.61 467c19.73 11.834 21.05 21.043 19.73 32.88 11.84-1.316 21.05-.003 32.88 19.728l-13.15 13.153 13.15 13.153c-11.83 19.731-21.04 21.043-32.88 19.728 1.32 11.837 0 21.046-19.73 32.88l-13.15-13.152z" stroke="#054E34"/></svg>