<svg width="695" height="360" viewBox="0 0 695 360" fill="none" xmlns="http://www.w3.org/2000/svg">
<path d="M-127.558 101.37L-139.135 112.947C-158.865 101.113 -160.178 91.9044 -158.863 80.0675C-170.7 81.3828 -179.909 80.0702 -191.743 60.3397L-180.166 48.7629L-192 36.9288C-180.166 17.1982 -170.957 15.8856 -159.12 17.2009C-160.436 5.36407 -159.123 -3.8448 -139.392 -15.6788L-127.56 -3.84608L-114.406 -17C-94.6752 -5.16596 -93.3626 4.04292 -94.6779 15.8797C-82.8411 14.5644 -73.6322 15.8771 -61.7981 35.6076L-74.9514 48.7608L-61.7981 61.9142C-73.6321 81.6447 -82.841 82.9573 -94.6778 81.642C-93.3625 93.4789 -94.6751 102.688 -114.406 114.522L-127.558 101.37Z" stroke="#054E34"/>
<path d="M22.6444 101.37L11.067 112.947C-8.66354 101.113 -9.97619 91.9044 -8.66087 80.0675C-20.4977 81.3828 -29.7066 80.0702 -41.5406 60.3397L-29.9639 48.7629L-41.7981 36.9288C-29.964 17.1982 -20.7552 15.8856 -8.91832 17.2009C-10.2336 5.36407 -8.92099 -3.8448 10.8095 -15.6788L22.6423 -3.84608L35.7962 -17C55.5267 -5.16596 56.8394 4.04292 55.524 15.8797C67.3609 14.5644 76.5697 15.8771 88.4038 35.6076L75.2505 48.7608L88.4039 61.9142C76.5698 81.6447 67.3609 82.9573 55.5241 81.642C56.8394 93.4789 55.5268 102.688 35.7963 114.522L22.6444 101.37Z" stroke="#054E34"/>
<path d="M172.846 101.37L161.269 112.947C141.538 101.113 140.226 91.9044 141.541 80.0675C129.704 81.3828 120.495 80.0702 108.661 60.3397L120.238 48.7629L108.404 36.9288C120.238 17.1982 129.447 15.8856 141.284 17.2009C139.968 5.36407 141.281 -3.8448 161.011 -15.6788L172.844 -3.84608L185.998 -17C205.729 -5.16596 207.041 4.04292 205.726 15.8797C217.563 14.5644 226.772 15.8771 238.606 35.6076L225.452 48.7608L238.606 61.9142C226.772 81.6447 217.563 82.9573 205.726 81.642C207.041 93.4789 205.729 102.688 185.998 114.522L172.846 101.37Z" stroke="#054E34"/>
<path d="M323.048 101.37L311.471 112.947C291.74 101.113 290.428 91.9044 291.743 80.0675C279.906 81.3828 270.697 80.0702 258.863 60.3397L270.44 48.7629L258.606 36.9288C270.44 17.1982 279.649 15.8856 291.486 17.2009C290.17 5.36407 291.483 -3.8448 311.213 -15.6788L323.046 -3.84608L336.2 -17C355.931 -5.16596 357.243 4.04292 355.928 15.8797C367.765 14.5644 376.974 15.8771 388.808 35.6076L375.654 48.7608L388.808 61.9142C376.974 81.6447 367.765 82.9573 355.928 81.642C357.243 93.4789 355.931 102.688 336.2 114.522L323.048 101.37Z" stroke="#054E34"/>
<path d="M473.25 101.37L461.673 112.947C441.942 101.113 440.63 91.9044 441.945 80.0675C430.108 81.3828 420.899 80.0702 409.065 60.3397L420.642 48.7629L408.808 36.9288C420.642 17.1982 429.851 15.8856 441.688 17.2009C440.372 5.36407 441.685 -3.8448 461.415 -15.6788L473.248 -3.84608L486.402 -17C506.132 -5.16596 507.445 4.04292 506.13 15.8797C517.967 14.5644 527.176 15.8771 539.01 35.6076L525.856 48.7608L539.01 61.9142C527.176 81.6447 517.967 82.9573 506.13 81.642C507.445 93.4789 506.133 102.688 486.402 114.522L473.25 101.37Z" stroke="#054E34"/>
<path d="M623.452 101.37L611.875 112.947C592.144 101.113 590.832 91.9044 592.147 80.0675C580.31 81.3828 571.101 80.0702 559.267 60.3397L570.844 48.7629L559.01 36.9288C570.844 17.1982 580.053 15.8856 591.889 17.2009C590.574 5.36407 591.887 -3.8448 611.617 -15.6788L623.45 -3.84608L636.604 -17C656.334 -5.16596 657.647 4.04292 656.332 15.8797C668.169 14.5644 677.377 15.8771 689.211 35.6076L676.058 48.7608L689.212 61.9142C677.378 81.6447 668.169 82.9573 656.332 81.642C657.647 93.4789 656.335 102.688 636.604 114.522L623.452 101.37Z" stroke="#054E34"/>
<path d="M773.654 101.37L762.077 112.947C742.346 101.113 741.033 91.9044 742.349 80.0675C730.512 81.3828 721.303 80.0702 709.469 60.3397L721.046 48.7629L709.212 36.9288C721.046 17.1982 730.254 15.8856 742.091 17.2009C740.776 5.36407 742.089 -3.8448 761.819 -15.6788L773.652 -3.84608L786.806 -17C806.536 -5.16596 807.849 4.04292 806.534 15.8797C818.37 14.5644 827.579 15.8771 839.413 35.6076L826.26 48.7608L839.413 61.9142C827.579 81.6447 818.371 82.9573 806.534 81.642C807.849 93.4789 806.536 102.688 786.806 114.522L773.654 101.37Z" stroke="#054E34"/>
<path d="M923.856 101.37L912.278 112.947C892.548 101.113 891.235 91.9044 892.551 80.0675C880.714 81.3828 871.505 80.0702 859.671 60.3397L871.248 48.7629L859.413 36.9288C871.247 17.1982 880.456 15.8856 892.293 17.2009C890.978 5.36407 892.29 -3.8448 912.021 -15.6788L923.854 -3.84608L937.008 -17C956.738 -5.16596 958.051 4.04292 956.736 15.8797C968.572 14.5644 977.781 15.8771 989.615 35.6076L976.462 48.7608L989.615 61.9142C977.781 81.6447 968.572 82.9573 956.736 81.642C958.051 93.4789 956.738 102.688 937.008 114.522L923.856 101.37Z" stroke="#054E34"/>
<path d="M1074.06 101.37L1062.48 112.947C1042.75 101.113 1041.44 91.9044 1042.75 80.0675C1030.92 81.3828 1021.71 80.0702 1009.87 60.3397L1021.45 48.7629L1009.62 36.9288C1021.45 17.1982 1030.66 15.8856 1042.5 17.2009C1041.18 5.36407 1042.49 -3.8448 1062.22 -15.6788L1074.06 -3.84608L1087.21 -17C1106.94 -5.16596 1108.25 4.04292 1106.94 15.8797C1118.77 14.5644 1127.98 15.8771 1139.82 35.6076L1126.66 48.7608L1139.82 61.9142C1127.98 81.6447 1118.77 82.9573 1106.94 81.642C1108.25 93.4789 1106.94 102.688 1087.21 114.522L1074.06 101.37Z" stroke="#054E34"/>
<path d="M1224.26 101.37L1212.68 112.947C1192.95 101.113 1191.64 91.9044 1192.95 80.0675C1181.12 81.3828 1171.91 80.0702 1160.07 60.3397L1171.65 48.7629L1159.82 36.9288C1171.65 17.1982 1180.86 15.8856 1192.7 17.2009C1191.38 5.36407 1192.69 -3.8448 1212.42 -15.6788L1224.26 -3.84608L1237.41 -17C1257.14 -5.16596 1258.45 4.04292 1257.14 15.8797C1268.98 14.5644 1278.19 15.8771 1290.02 35.6076L1276.87 48.7608L1290.02 61.9142C1278.19 81.6447 1268.98 82.9573 1257.14 81.642C1258.45 93.4789 1257.14 102.688 1237.41 114.522L1224.26 101.37Z" stroke="#054E34"/>
<path d="M1374.46 101.37L1362.88 112.947C1343.15 101.113 1341.84 91.9044 1343.16 80.0675C1331.32 81.3828 1322.11 80.0702 1310.28 60.3397L1321.85 48.7629L1310.02 36.9288C1321.85 17.1982 1331.06 15.8856 1342.9 17.2009C1341.58 5.36407 1342.9 -3.8448 1362.63 -15.6788L1374.46 -3.84608L1387.61 -17C1407.34 -5.16596 1408.66 4.04292 1407.34 15.8797C1419.18 14.5644 1428.39 15.8771 1440.22 35.6076L1427.07 48.7608L1440.22 61.9142C1428.39 81.6447 1419.18 82.9573 1407.34 81.642C1408.66 93.4789 1407.34 102.688 1387.61 114.522L1374.46 101.37Z" stroke="#054E34"/>
<path d="M-48.5576 227.37L-60.135 238.947C-79.8655 227.113 -81.1781 217.904 -79.8628 206.068C-91.6996 207.383 -100.909 206.07 -112.743 186.34L-101.166 174.763L-113 162.929C-101.166 143.198 -91.9571 141.886 -80.1203 143.201C-81.4356 131.364 -80.1229 122.155 -60.3924 110.321L-48.5596 122.154L-35.4057 109C-15.6752 120.834 -14.3626 130.043 -15.6779 141.88C-3.84106 140.564 5.36781 141.877 17.2019 161.608L4.0486 174.761L17.2019 187.914C5.36789 207.645 -3.84097 208.957 -15.6778 207.642C-14.3625 219.479 -15.6751 228.688 -35.4057 240.522L-48.5576 227.37Z" stroke="#054E34"/>
<path d="M101.644 227.37L90.067 238.947C70.3364 227.113 69.0238 217.904 70.3391 206.068C58.5023 207.383 49.2934 206.07 37.4594 186.34L49.0361 174.763L37.2019 162.929C49.036 143.198 58.2448 141.886 70.0817 143.201C68.7664 131.364 70.079 122.155 89.8095 110.321L101.642 122.154L114.796 109C134.527 120.834 135.839 130.043 134.524 141.88C146.361 140.564 155.57 141.877 167.404 161.608L154.251 174.761L167.404 187.914C155.57 207.645 146.361 208.957 134.524 207.642C135.839 219.479 134.527 228.688 114.796 240.522L101.644 227.37Z" stroke="#054E34"/>
<path d="M251.846 227.37L240.269 238.947C220.538 227.113 219.226 217.904 220.541 206.068C208.704 207.383 199.495 206.07 187.661 186.34L199.238 174.763L187.404 162.929C199.238 143.198 208.447 141.886 220.284 143.201C218.968 131.364 220.281 122.155 240.011 110.321L251.844 122.154L264.998 109C284.729 120.834 286.041 130.043 284.726 141.88C296.563 140.564 305.772 141.877 317.606 161.608L304.452 174.761L317.606 187.914C305.772 207.645 296.563 208.957 284.726 207.642C286.041 219.479 284.729 228.688 264.998 240.522L251.846 227.37Z" stroke="#054E34"/>
<path d="M402.048 227.37L390.471 238.947C370.74 227.113 369.428 217.904 370.743 206.068C358.906 207.383 349.697 206.07 337.863 186.34L349.44 174.763L337.606 162.929C349.44 143.198 358.649 141.886 370.486 143.201C369.17 131.364 370.483 122.155 390.213 110.321L402.046 122.154L415.2 109C434.931 120.834 436.243 130.043 434.928 141.88C446.765 140.564 455.974 141.877 467.808 161.608L454.654 174.761L467.808 187.914C455.974 207.645 446.765 208.957 434.928 207.642C436.243 219.479 434.931 228.688 415.2 240.522L402.048 227.37Z" stroke="#054E34"/>
<path d="M552.25 227.37L540.673 238.947C520.942 227.113 519.63 217.904 520.945 206.068C509.108 207.383 499.899 206.07 488.065 186.34L499.642 174.763L487.808 162.929C499.642 143.198 508.851 141.886 520.688 143.201C519.372 131.364 520.685 122.155 540.415 110.321L552.248 122.154L565.402 109C585.132 120.834 586.445 130.043 585.13 141.88C596.967 140.564 606.176 141.877 618.01 161.608L604.856 174.761L618.01 187.914C606.176 207.645 596.967 208.957 585.13 207.642C586.445 219.479 585.133 228.688 565.402 240.522L552.25 227.37Z" stroke="#054E34"/>
<path d="M702.452 227.37L690.875 238.947C671.144 227.113 669.832 217.904 671.147 206.068C659.31 207.383 650.101 206.07 638.267 186.34L649.844 174.763L638.01 162.929C649.844 143.198 659.053 141.886 670.889 143.201C669.574 131.364 670.887 122.155 690.617 110.321L702.45 122.154L715.604 109C735.334 120.834 736.647 130.043 735.332 141.88C747.169 140.564 756.377 141.877 768.211 161.608L755.058 174.761L768.212 187.914C756.378 207.645 747.169 208.957 735.332 207.642C736.647 219.479 735.335 228.688 715.604 240.522L702.452 227.37Z" stroke="#054E34"/>
<path d="M852.654 227.37L841.077 238.947C821.346 227.113 820.033 217.904 821.349 206.068C809.512 207.383 800.303 206.07 788.469 186.34L800.046 174.763L788.212 162.929C800.046 143.198 809.254 141.886 821.091 143.201C819.776 131.364 821.089 122.155 840.819 110.321L852.652 122.154L865.806 109C885.536 120.834 886.849 130.043 885.534 141.88C897.371 140.564 906.579 141.877 918.413 161.608L905.26 174.761L918.413 187.914C906.579 207.645 897.371 208.957 885.534 207.642C886.849 219.479 885.536 228.688 865.806 240.522L852.654 227.37Z" stroke="#054E34"/>
<path d="M1002.86 227.37L991.278 238.947C971.548 227.113 970.235 217.904 971.551 206.068C959.714 207.383 950.505 206.07 938.671 186.34L950.248 174.763L938.413 162.929C950.247 143.198 959.456 141.886 971.293 143.201C969.978 131.364 971.29 122.155 991.021 110.321L1002.85 122.154L1016.01 109C1035.74 120.834 1037.05 130.043 1035.74 141.88C1047.57 140.564 1056.78 141.877 1068.62 161.608L1055.46 174.761L1068.62 187.914C1056.78 207.645 1047.57 208.957 1035.74 207.642C1037.05 219.479 1035.74 228.688 1016.01 240.522L1002.86 227.37Z" stroke="#054E34"/>
<path d="M1153.06 227.37L1141.48 238.947C1121.75 227.113 1120.44 217.904 1121.75 206.068C1109.92 207.383 1100.71 206.07 1088.87 186.34L1100.45 174.763L1088.62 162.929C1100.45 143.198 1109.66 141.886 1121.5 143.201C1120.18 131.364 1121.49 122.155 1141.22 110.321L1153.06 122.154L1166.21 109C1185.94 120.834 1187.25 130.043 1185.94 141.88C1197.77 140.564 1206.98 141.877 1218.82 161.608L1205.66 174.761L1218.82 187.914C1206.98 207.645 1197.77 208.957 1185.94 207.642C1187.25 219.479 1185.94 228.688 1166.21 240.522L1153.06 227.37Z" stroke="#054E34"/>
<path d="M1303.26 227.37L1291.68 238.947C1271.95 227.113 1270.64 217.904 1271.95 206.068C1260.12 207.383 1250.91 206.07 1239.07 186.34L1250.65 174.763L1238.82 162.929C1250.65 143.198 1259.86 141.886 1271.7 143.201C1270.38 131.364 1271.69 122.155 1291.42 110.321L1303.26 122.154L1316.41 109C1336.14 120.834 1337.45 130.043 1336.14 141.88C1347.98 140.564 1357.19 141.877 1369.02 161.608L1355.87 174.761L1369.02 187.914C1357.19 207.645 1347.98 208.957 1336.14 207.642C1337.45 219.479 1336.14 228.688 1316.41 240.522L1303.26 227.37Z" stroke="#054E34"/>
<path d="M1453.46 227.37L1441.88 238.947C1422.15 227.113 1420.84 217.904 1422.16 206.068C1410.32 207.383 1401.11 206.07 1389.28 186.34L1400.85 174.763L1389.02 162.929C1400.85 143.198 1410.06 141.886 1421.9 143.201C1420.58 131.364 1421.9 122.155 1441.63 110.321L1453.46 122.154L1466.61 109C1486.34 120.834 1487.66 130.043 1486.34 141.88C1498.18 140.564 1507.39 141.877 1519.22 161.608L1506.07 174.761L1519.22 187.914C1507.39 207.645 1498.18 208.957 1486.34 207.642C1487.66 219.479 1486.34 228.688 1466.61 240.522L1453.46 227.37Z" stroke="#054E34"/>
<path d="M-48.5576 465.37L-60.135 476.947C-79.8655 465.113 -81.1781 455.904 -79.8628 444.068C-91.6996 445.383 -100.909 444.07 -112.743 424.34L-101.166 412.763L-113 400.929C-101.166 381.198 -91.9571 379.886 -80.1203 381.201C-81.4356 369.364 -80.1229 360.155 -60.3924 348.321L-48.5596 360.154L-35.4057 347C-15.6752 358.834 -14.3626 368.043 -15.6779 379.88C-3.84106 378.564 5.36781 379.877 17.2019 399.608L4.0486 412.761L17.2019 425.914C5.36789 445.645 -3.84097 446.957 -15.6778 445.642C-14.3625 457.479 -15.6751 466.688 -35.4057 478.522L-48.5576 465.37Z" stroke="#054E34"/>
<path d="M101.644 465.37L90.067 476.947C70.3364 465.113 69.0238 455.904 70.3391 444.068C58.5023 445.383 49.2934 444.07 37.4594 424.34L49.0361 412.763L37.2019 400.929C49.036 381.198 58.2448 379.886 70.0817 381.201C68.7664 369.364 70.079 360.155 89.8095 348.321L101.642 360.154L114.796 347C134.527 358.834 135.839 368.043 134.524 379.88C146.361 378.564 155.57 379.877 167.404 399.608L154.251 412.761L167.404 425.914C155.57 445.645 146.361 446.957 134.524 445.642C135.839 457.479 134.527 466.688 114.796 478.522L101.644 465.37Z" stroke="#054E34"/>
<path d="M251.846 465.37L240.269 476.947C220.538 465.113 219.226 455.904 220.541 444.068C208.704 445.383 199.495 444.07 187.661 424.34L199.238 412.763L187.404 400.929C199.238 381.198 208.447 379.886 220.284 381.201C218.968 369.364 220.281 360.155 240.011 348.321L251.844 360.154L264.998 347C284.729 358.834 286.041 368.043 284.726 379.88C296.563 378.564 305.772 379.877 317.606 399.608L304.452 412.761L317.606 425.914C305.772 445.645 296.563 446.957 284.726 445.642C286.041 457.479 284.729 466.688 264.998 478.522L251.846 465.37Z" stroke="#054E34"/>
<path d="M402.048 465.37L390.471 476.947C370.74 465.113 369.428 455.904 370.743 444.068C358.906 445.383 349.697 444.07 337.863 424.34L349.44 412.763L337.606 400.929C349.44 381.198 358.649 379.886 370.486 381.201C369.17 369.364 370.483 360.155 390.213 348.321L402.046 360.154L415.2 347C434.931 358.834 436.243 368.043 434.928 379.88C446.765 378.564 455.974 379.877 467.808 399.608L454.654 412.761L467.808 425.914C455.974 445.645 446.765 446.957 434.928 445.642C436.243 457.479 434.931 466.688 415.2 478.522L402.048 465.37Z" stroke="#054E34"/>
<path d="M552.25 465.37L540.673 476.947C520.942 465.113 519.63 455.904 520.945 444.068C509.108 445.383 499.899 444.07 488.065 424.34L499.642 412.763L487.808 400.929C499.642 381.198 508.851 379.886 520.688 381.201C519.372 369.364 520.685 360.155 540.415 348.321L552.248 360.154L565.402 347C585.132 358.834 586.445 368.043 585.13 379.88C596.967 378.564 606.176 379.877 618.01 399.608L604.856 412.761L618.01 425.914C606.176 445.645 596.967 446.957 585.13 445.642C586.445 457.479 585.133 466.688 565.402 478.522L552.25 465.37Z" stroke="#054E34"/>
<path d="M702.452 465.37L690.875 476.947C671.144 465.113 669.832 455.904 671.147 444.068C659.31 445.383 650.101 444.07 638.267 424.34L649.844 412.763L638.01 400.929C649.844 381.198 659.053 379.886 670.889 381.201C669.574 369.364 670.887 360.155 690.617 348.321L702.45 360.154L715.604 347C735.334 358.834 736.647 368.043 735.332 379.88C747.169 378.564 756.377 379.877 768.211 399.608L755.058 412.761L768.212 425.914C756.378 445.645 747.169 446.957 735.332 445.642C736.647 457.479 735.335 466.688 715.604 478.522L702.452 465.37Z" stroke="#054E34"/>
<path d="M852.654 465.37L841.077 476.947C821.346 465.113 820.033 455.904 821.349 444.068C809.512 445.383 800.303 444.07 788.469 424.34L800.046 412.763L788.212 400.929C800.046 381.198 809.254 379.886 821.091 381.201C819.776 369.364 821.089 360.155 840.819 348.321L852.652 360.154L865.806 347C885.536 358.834 886.849 368.043 885.534 379.88C897.371 378.564 906.579 379.877 918.413 399.608L905.26 412.761L918.413 425.914C906.579 445.645 897.371 446.957 885.534 445.642C886.849 457.479 885.536 466.688 865.806 478.522L852.654 465.37Z" stroke="#054E34"/>
<path d="M1002.86 465.37L991.278 476.947C971.548 465.113 970.235 455.904 971.551 444.068C959.714 445.383 950.505 444.07 938.671 424.34L950.248 412.763L938.413 400.929C950.247 381.198 959.456 379.886 971.293 381.201C969.978 369.364 971.29 360.155 991.021 348.321L1002.85 360.154L1016.01 347C1035.74 358.834 1037.05 368.043 1035.74 379.88C1047.57 378.564 1056.78 379.877 1068.62 399.608L1055.46 412.761L1068.62 425.914C1056.78 445.645 1047.57 446.957 1035.74 445.642C1037.05 457.479 1035.74 466.688 1016.01 478.522L1002.86 465.37Z" stroke="#054E34"/>
<path d="M1153.06 465.37L1141.48 476.947C1121.75 465.113 1120.44 455.904 1121.75 444.068C1109.92 445.383 1100.71 444.07 1088.87 424.34L1100.45 412.763L1088.62 400.929C1100.45 381.198 1109.66 379.886 1121.5 381.201C1120.18 369.364 1121.49 360.155 1141.22 348.321L1153.06 360.154L1166.21 347C1185.94 358.834 1187.25 368.043 1185.94 379.88C1197.77 378.564 1206.98 379.877 1218.82 399.608L1205.66 412.761L1218.82 425.914C1206.98 445.645 1197.77 446.957 1185.94 445.642C1187.25 457.479 1185.94 466.688 1166.21 478.522L1153.06 465.37Z" stroke="#054E34"/>
<path d="M1303.26 465.37L1291.68 476.947C1271.95 465.113 1270.64 455.904 1271.95 444.068C1260.12 445.383 1250.91 444.07 1239.07 424.34L1250.65 412.763L1238.82 400.929C1250.65 381.198 1259.86 379.886 1271.7 381.201C1270.38 369.364 1271.69 360.155 1291.42 348.321L1303.26 360.154L1316.41 347C1336.14 358.834 1337.45 368.043 1336.14 379.88C1347.98 378.564 1357.19 379.877 1369.02 399.608L1355.87 412.761L1369.02 425.914C1357.19 445.645 1347.98 446.957 1336.14 445.642C1337.45 457.479 1336.14 466.688 1316.41 478.522L1303.26 465.37Z" stroke="#054E34"/>
<path d="M1453.46 465.37L1441.88 476.947C1422.15 465.113 1420.84 455.904 1422.16 444.068C1410.32 445.383 1401.11 444.07 1389.28 424.34L1400.85 412.763L1389.02 400.929C1400.85 381.198 1410.06 379.886 1421.9 381.201C1420.58 369.364 1421.9 360.155 1441.63 348.321L1453.46 360.154L1466.61 347C1486.34 358.834 1487.66 368.043 1486.34 379.88C1498.18 378.564 1507.39 379.877 1519.22 399.608L1506.07 412.761L1519.22 425.914C1507.39 445.645 1498.18 446.957 1486.34 445.642C1487.66 457.479 1486.34 466.688 1466.61 478.522L1453.46 465.37Z" stroke="#054E34"/>
<path d="M-48.5576 706.37L-60.135 717.947C-79.8655 706.113 -81.1781 696.904 -79.8628 685.068C-91.6996 686.383 -100.909 685.07 -112.743 665.34L-101.166 653.763L-113 641.929C-101.166 622.198 -91.9571 620.886 -80.1203 622.201C-81.4356 610.364 -80.1229 601.155 -60.3924 589.321L-48.5596 601.154L-35.4057 588C-15.6752 599.834 -14.3626 609.043 -15.6779 620.88C-3.84106 619.564 5.36781 620.877 17.2019 640.608L4.0486 653.761L17.2019 666.914C5.36789 686.645 -3.84097 687.957 -15.6778 686.642C-14.3625 698.479 -15.6751 707.688 -35.4057 719.522L-48.5576 706.37Z" stroke="#054E34"/>
<path d="M101.644 706.37L90.067 717.947C70.3364 706.113 69.0238 696.904 70.3391 685.068C58.5023 686.383 49.2934 685.07 37.4594 665.34L49.0361 653.763L37.2019 641.929C49.036 622.198 58.2448 620.886 70.0817 622.201C68.7664 610.364 70.079 601.155 89.8095 589.321L101.642 601.154L114.796 588C134.527 599.834 135.839 609.043 134.524 620.88C146.361 619.564 155.57 620.877 167.404 640.608L154.251 653.761L167.404 666.914C155.57 686.645 146.361 687.957 134.524 686.642C135.839 698.479 134.527 707.688 114.796 719.522L101.644 706.37Z" stroke="#054E34"/>
<path d="M251.846 706.37L240.269 717.947C220.538 706.113 219.226 696.904 220.541 685.068C208.704 686.383 199.495 685.07 187.661 665.34L199.238 653.763L187.404 641.929C199.238 622.198 208.447 620.886 220.284 622.201C218.968 610.364 220.281 601.155 240.011 589.321L251.844 601.154L264.998 588C284.729 599.834 286.041 609.043 284.726 620.88C296.563 619.564 305.772 620.877 317.606 640.608L304.452 653.761L317.606 666.914C305.772 686.645 296.563 687.957 284.726 686.642C286.041 698.479 284.729 707.688 264.998 719.522L251.846 706.37Z" stroke="#054E34"/>
<path d="M402.048 706.37L390.471 717.947C370.74 706.113 369.428 696.904 370.743 685.068C358.906 686.383 349.697 685.07 337.863 665.34L349.44 653.763L337.606 641.929C349.44 622.198 358.649 620.886 370.486 622.201C369.17 610.364 370.483 601.155 390.213 589.321L402.046 601.154L415.2 588C434.931 599.834 436.243 609.043 434.928 620.88C446.765 619.564 455.974 620.877 467.808 640.608L454.654 653.761L467.808 666.914C455.974 686.645 446.765 687.957 434.928 686.642C436.243 698.479 434.931 707.688 415.2 719.522L402.048 706.37Z" stroke="#054E34"/>
<path d="M552.25 706.37L540.673 717.947C520.942 706.113 519.63 696.904 520.945 685.068C509.108 686.383 499.899 685.07 488.065 665.34L499.642 653.763L487.808 641.929C499.642 622.198 508.851 620.886 520.688 622.201C519.372 610.364 520.685 601.155 540.415 589.321L552.248 601.154L565.402 588C585.132 599.834 586.445 609.043 585.13 620.88C596.967 619.564 606.176 620.877 618.01 640.608L604.856 653.761L618.01 666.914C606.176 686.645 596.967 687.957 585.13 686.642C586.445 698.479 585.133 707.688 565.402 719.522L552.25 706.37Z" stroke="#054E34"/>
<path d="M702.452 706.37L690.875 717.947C671.144 706.113 669.832 696.904 671.147 685.068C659.31 686.383 650.101 685.07 638.267 665.34L649.844 653.763L638.01 641.929C649.844 622.198 659.053 620.886 670.889 622.201C669.574 610.364 670.887 601.155 690.617 589.321L702.45 601.154L715.604 588C735.334 599.834 736.647 609.043 735.332 620.88C747.169 619.564 756.377 620.877 768.211 640.608L755.058 653.761L768.212 666.914C756.378 686.645 747.169 687.957 735.332 686.642C736.647 698.479 735.335 707.688 715.604 719.522L702.452 706.37Z" stroke="#054E34"/>
<path d="M852.654 706.37L841.077 717.947C821.346 706.113 820.033 696.904 821.349 685.068C809.512 686.383 800.303 685.07 788.469 665.34L800.046 653.763L788.212 641.929C800.046 622.198 809.254 620.886 821.091 622.201C819.776 610.364 821.089 601.155 840.819 589.321L852.652 601.154L865.806 588C885.536 599.834 886.849 609.043 885.534 620.88C897.371 619.564 906.579 620.877 918.413 640.608L905.26 653.761L918.413 666.914C906.579 686.645 897.371 687.957 885.534 686.642C886.849 698.479 885.536 707.688 865.806 719.522L852.654 706.37Z" stroke="#054E34"/>
<path d="M1002.86 706.37L991.278 717.947C971.548 706.113 970.235 696.904 971.551 685.068C959.714 686.383 950.505 685.07 938.671 665.34L950.248 653.763L938.413 641.929C950.247 622.198 959.456 620.886 971.293 622.201C969.978 610.364 971.29 601.155 991.021 589.321L1002.85 601.154L1016.01 588C1035.74 599.834 1037.05 609.043 1035.74 620.88C1047.57 619.564 1056.78 620.877 1068.62 640.608L1055.46 653.761L1068.62 666.914C1056.78 686.645 1047.57 687.957 1035.74 686.642C1037.05 698.479 1035.74 707.688 1016.01 719.522L1002.86 706.37Z" stroke="#054E34"/>
<path d="M1153.06 706.37L1141.48 717.947C1121.75 706.113 1120.44 696.904 1121.75 685.068C1109.92 686.383 1100.71 685.07 1088.87 665.34L1100.45 653.763L1088.62 641.929C1100.45 622.198 1109.66 620.886 1121.5 622.201C1120.18 610.364 1121.49 601.155 1141.22 589.321L1153.06 601.154L1166.21 588C1185.94 599.834 1187.25 609.043 1185.94 620.88C1197.77 619.564 1206.98 620.877 1218.82 640.608L1205.66 653.761L1218.82 666.914C1206.98 686.645 1197.77 687.957 1185.94 686.642C1187.25 698.479 1185.94 707.688 1166.21 719.522L1153.06 706.37Z" stroke="#054E34"/>
<path d="M1303.26 706.37L1291.68 717.947C1271.95 706.113 1270.64 696.904 1271.95 685.068C1260.12 686.383 1250.91 685.07 1239.07 665.34L1250.65 653.763L1238.82 641.929C1250.65 622.198 1259.86 620.886 1271.7 622.201C1270.38 610.364 1271.69 601.155 1291.42 589.321L1303.26 601.154L1316.41 588C1336.14 599.834 1337.45 609.043 1336.14 620.88C1347.98 619.564 1357.19 620.877 1369.02 640.608L1355.87 653.761L1369.02 666.914C1357.19 686.645 1347.98 687.957 1336.14 686.642C1337.45 698.479 1336.14 707.688 1316.41 719.522L1303.26 706.37Z" stroke="#054E34"/>
<path d="M1453.46 706.37L1441.88 717.947C1422.15 706.113 1420.84 696.904 1422.16 685.068C1410.32 686.383 1401.11 685.07 1389.28 665.34L1400.85 653.763L1389.02 641.929C1400.85 622.198 1410.06 620.886 1421.9 622.201C1420.58 610.364 1421.9 601.155 1441.63 589.321L1453.46 601.154L1466.61 588C1486.34 599.834 1487.66 609.043 1486.34 620.88C1498.18 619.564 1507.39 620.877 1519.22 640.608L1506.07 653.761L1519.22 666.914C1507.39 686.645 1498.18 687.957 1486.34 686.642C1487.66 698.479 1486.34 707.688 1466.61 719.522L1453.46 706.37Z" stroke="#054E34"/>
<path d="M-122.558 826.37L-134.135 837.947C-153.865 826.113 -155.178 816.904 -153.863 805.068C-165.7 806.383 -174.909 805.07 -186.743 785.34L-175.166 773.763L-187 761.929C-175.166 742.198 -165.957 740.886 -154.12 742.201C-155.436 730.364 -154.123 721.155 -134.392 709.321L-122.56 721.154L-109.406 708C-89.6752 719.834 -88.3626 729.043 -89.6779 740.88C-77.8411 739.564 -68.6322 740.877 -56.7981 760.608L-69.9514 773.761L-56.7981 786.914C-68.6321 806.645 -77.841 807.957 -89.6778 806.642C-88.3625 818.479 -89.6751 827.688 -109.406 839.522L-122.558 826.37Z" stroke="#054E34"/>
<path d="M27.6444 826.37L16.067 837.947C-3.66354 826.113 -4.97619 816.904 -3.66087 805.068C-15.4977 806.383 -24.7066 805.07 -36.5406 785.34L-24.9639 773.763L-36.7981 761.929C-24.964 742.198 -15.7552 740.886 -3.91832 742.201C-5.23363 730.364 -3.92099 721.155 15.8095 709.321L27.6423 721.154L40.7962 708C60.5267 719.834 61.8394 729.043 60.524 740.88C72.3609 739.564 81.5697 740.877 93.4038 760.608L80.2505 773.761L93.4039 786.914C81.5698 806.645 72.3609 807.957 60.5241 806.642C61.8394 818.479 60.5268 827.688 40.7963 839.522L27.6444 826.37Z" stroke="#054E34"/>
<path d="M177.846 826.37L166.269 837.947C146.538 826.113 145.226 816.904 146.541 805.068C134.704 806.383 125.495 805.07 113.661 785.34L125.238 773.763L113.404 761.929C125.238 742.198 134.447 740.886 146.284 742.201C144.968 730.364 146.281 721.155 166.011 709.321L177.844 721.154L190.998 708C210.729 719.834 212.041 729.043 210.726 740.88C222.563 739.564 231.772 740.877 243.606 760.608L230.452 773.761L243.606 786.914C231.772 806.645 222.563 807.957 210.726 806.642C212.041 818.479 210.729 827.688 190.998 839.522L177.846 826.37Z" stroke="#054E34"/>
<path d="M328.048 826.37L316.471 837.947C296.74 826.113 295.428 816.904 296.743 805.068C284.906 806.383 275.697 805.07 263.863 785.34L275.44 773.763L263.606 761.929C275.44 742.198 284.649 740.886 296.486 742.201C295.17 730.364 296.483 721.155 316.213 709.321L328.046 721.154L341.2 708C360.931 719.834 362.243 729.043 360.928 740.88C372.765 739.564 381.974 740.877 393.808 760.608L380.654 773.761L393.808 786.914C381.974 806.645 372.765 807.957 360.928 806.642C362.243 818.479 360.931 827.688 341.2 839.522L328.048 826.37Z" stroke="#054E34"/>
<path d="M478.25 826.37L466.673 837.947C446.942 826.113 445.63 816.904 446.945 805.068C435.108 806.383 425.899 805.07 414.065 785.34L425.642 773.763L413.808 761.929C425.642 742.198 434.851 740.886 446.688 742.201C445.372 730.364 446.685 721.155 466.415 709.321L478.248 721.154L491.402 708C511.132 719.834 512.445 729.043 511.13 740.88C522.967 739.564 532.176 740.877 544.01 760.608L530.856 773.761L544.01 786.914C532.176 806.645 522.967 807.957 511.13 806.642C512.445 818.479 511.133 827.688 491.402 839.522L478.25 826.37Z" stroke="#054E34"/>
<path d="M628.452 826.37L616.875 837.947C597.144 826.113 595.832 816.904 597.147 805.068C585.31 806.383 576.101 805.07 564.267 785.34L575.844 773.763L564.01 761.929C575.844 742.198 585.053 740.886 596.889 742.201C595.574 730.364 596.887 721.155 616.617 709.321L628.45 721.154L641.604 708C661.334 719.834 662.647 729.043 661.332 740.88C673.169 739.564 682.377 740.877 694.211 760.608L681.058 773.761L694.212 786.914C682.378 806.645 673.169 807.957 661.332 806.642C662.647 818.479 661.335 827.688 641.604 839.522L628.452 826.37Z" stroke="#054E34"/>
<path d="M778.654 826.37L767.077 837.947C747.346 826.113 746.033 816.904 747.349 805.068C735.512 806.383 726.303 805.07 714.469 785.34L726.046 773.763L714.212 761.929C726.046 742.198 735.254 740.886 747.091 742.201C745.776 730.364 747.089 721.155 766.819 709.321L778.652 721.154L791.806 708C811.536 719.834 812.849 729.043 811.534 740.88C823.37 739.564 832.579 740.877 844.413 760.608L831.26 773.761L844.413 786.914C832.579 806.645 823.371 807.957 811.534 806.642C812.849 818.479 811.536 827.688 791.806 839.522L778.654 826.37Z" stroke="#054E34"/>
<path d="M928.856 826.37L917.278 837.947C897.548 826.113 896.235 816.904 897.551 805.068C885.714 806.383 876.505 805.07 864.671 785.34L876.248 773.763L864.413 761.929C876.247 742.198 885.456 740.886 897.293 742.201C895.978 730.364 897.29 721.155 917.021 709.321L928.854 721.154L942.008 708C961.738 719.834 963.051 729.043 961.736 740.88C973.572 739.564 982.781 740.877 994.615 760.608L981.462 773.761L994.615 786.914C982.781 806.645 973.572 807.957 961.736 806.642C963.051 818.479 961.738 827.688 942.008 839.522L928.856 826.37Z" stroke="#054E34"/>
<path d="M1079.06 826.37L1067.48 837.947C1047.75 826.113 1046.44 816.904 1047.75 805.068C1035.92 806.383 1026.71 805.07 1014.87 785.34L1026.45 773.763L1014.62 761.929C1026.45 742.198 1035.66 740.886 1047.5 742.201C1046.18 730.364 1047.49 721.155 1067.22 709.321L1079.06 721.154L1092.21 708C1111.94 719.834 1113.25 729.043 1111.94 740.88C1123.77 739.564 1132.98 740.877 1144.82 760.608L1131.66 773.761L1144.82 786.914C1132.98 806.645 1123.77 807.957 1111.94 806.642C1113.25 818.479 1111.94 827.688 1092.21 839.522L1079.06 826.37Z" stroke="#054E34"/>
<path d="M1229.26 826.37L1217.68 837.947C1197.95 826.113 1196.64 816.904 1197.95 805.068C1186.12 806.383 1176.91 805.07 1165.07 785.34L1176.65 773.763L1164.82 761.929C1176.65 742.198 1185.86 740.886 1197.7 742.201C1196.38 730.364 1197.69 721.155 1217.42 709.321L1229.26 721.154L1242.41 708C1262.14 719.834 1263.45 729.043 1262.14 740.88C1273.98 739.564 1283.19 740.877 1295.02 760.608L1281.87 773.761L1295.02 786.914C1283.19 806.645 1273.98 807.957 1262.14 806.642C1263.45 818.479 1262.14 827.688 1242.41 839.522L1229.26 826.37Z" stroke="#054E34"/>
<path d="M1379.46 826.37L1367.88 837.947C1348.15 826.113 1346.84 816.904 1348.16 805.068C1336.32 806.383 1327.11 805.07 1315.28 785.34L1326.85 773.763L1315.02 761.929C1326.85 742.198 1336.06 740.886 1347.9 742.201C1346.58 730.364 1347.9 721.155 1367.63 709.321L1379.46 721.154L1392.61 708C1412.34 719.834 1413.66 729.043 1412.34 740.88C1424.18 739.564 1433.39 740.877 1445.22 760.608L1432.07 773.761L1445.22 786.914C1433.39 806.645 1424.18 807.957 1412.34 806.642C1413.66 818.479 1412.34 827.688 1392.61 839.522L1379.46 826.37Z" stroke="#054E34"/>
<path d="M-126.558 347.37L-138.135 358.947C-157.865 347.113 -159.178 337.904 -157.863 326.068C-169.7 327.383 -178.909 326.07 -190.743 306.34L-179.166 294.763L-191 282.929C-179.166 263.198 -169.957 261.886 -158.12 263.201C-159.436 251.364 -158.123 242.155 -138.392 230.321L-126.56 242.154L-113.406 229C-93.6752 240.834 -92.3626 250.043 -93.6779 261.88C-81.8411 260.564 -72.6322 261.877 -60.7981 281.608L-73.9514 294.761L-60.7981 307.914C-72.6321 327.645 -81.841 328.957 -93.6778 327.642C-92.3625 339.479 -93.6751 348.688 -113.406 360.522L-126.558 347.37Z" stroke="#054E34"/>
<path d="M23.6444 347.37L12.067 358.947C-7.66354 347.113 -8.97619 337.904 -7.66087 326.068C-19.4977 327.383 -28.7066 326.07 -40.5406 306.34L-28.9639 294.763L-40.7981 282.929C-28.964 263.198 -19.7552 261.886 -7.91832 263.201C-9.23363 251.364 -7.92099 242.155 11.8095 230.321L23.6423 242.154L36.7962 229C56.5267 240.834 57.8394 250.043 56.524 261.88C68.3609 260.564 77.5697 261.877 89.4038 281.608L76.2505 294.761L89.4039 307.914C77.5698 327.645 68.3609 328.957 56.5241 327.642C57.8394 339.479 56.5268 348.688 36.7963 360.522L23.6444 347.37Z" stroke="#054E34"/>
<path d="M173.846 347.37L162.269 358.947C142.538 347.113 141.226 337.904 142.541 326.068C130.704 327.383 121.495 326.07 109.661 306.34L121.238 294.763L109.404 282.929C121.238 263.198 130.447 261.886 142.284 263.201C140.968 251.364 142.281 242.155 162.011 230.321L173.844 242.154L186.998 229C206.729 240.834 208.041 250.043 206.726 261.88C218.563 260.564 227.772 261.877 239.606 281.608L226.452 294.761L239.606 307.914C227.772 327.645 218.563 328.957 206.726 327.642C208.041 339.479 206.729 348.688 186.998 360.522L173.846 347.37Z" stroke="#054E34"/>
<path d="M324.048 347.37L312.471 358.947C292.74 347.113 291.428 337.904 292.743 326.068C280.906 327.383 271.697 326.07 259.863 306.34L271.44 294.763L259.606 282.929C271.44 263.198 280.649 261.886 292.486 263.201C291.17 251.364 292.483 242.155 312.213 230.321L324.046 242.154L337.2 229C356.931 240.834 358.243 250.043 356.928 261.88C368.765 260.564 377.974 261.877 389.808 281.608L376.654 294.761L389.808 307.914C377.974 327.645 368.765 328.957 356.928 327.642C358.243 339.479 356.931 348.688 337.2 360.522L324.048 347.37Z" stroke="#054E34"/>
<path d="M474.25 347.37L462.673 358.947C442.942 347.113 441.63 337.904 442.945 326.068C431.108 327.383 421.899 326.07 410.065 306.34L421.642 294.763L409.808 282.929C421.642 263.198 430.851 261.886 442.688 263.201C441.372 251.364 442.685 242.155 462.415 230.321L474.248 242.154L487.402 229C507.132 240.834 508.445 250.043 507.13 261.88C518.967 260.564 528.176 261.877 540.01 281.608L526.856 294.761L540.01 307.914C528.176 327.645 518.967 328.957 507.13 327.642C508.445 339.479 507.133 348.688 487.402 360.522L474.25 347.37Z" stroke="#054E34"/>
<path d="M624.452 347.37L612.875 358.947C593.144 347.113 591.832 337.904 593.147 326.068C581.31 327.383 572.101 326.07 560.267 306.34L571.844 294.763L560.01 282.929C571.844 263.198 581.053 261.886 592.889 263.201C591.574 251.364 592.887 242.155 612.617 230.321L624.45 242.154L637.604 229C657.334 240.834 658.647 250.043 657.332 261.88C669.169 260.564 678.377 261.877 690.211 281.608L677.058 294.761L690.212 307.914C678.378 327.645 669.169 328.957 657.332 327.642C658.647 339.479 657.335 348.688 637.604 360.522L624.452 347.37Z" stroke="#054E34"/>
<path d="M774.654 347.37L763.077 358.947C743.346 347.113 742.033 337.904 743.349 326.068C731.512 327.383 722.303 326.07 710.469 306.34L722.046 294.763L710.212 282.929C722.046 263.198 731.254 261.886 743.091 263.201C741.776 251.364 743.089 242.155 762.819 230.321L774.652 242.154L787.806 229C807.536 240.834 808.849 250.043 807.534 261.88C819.37 260.564 828.579 261.877 840.413 281.608L827.26 294.761L840.413 307.914C828.579 327.645 819.371 328.957 807.534 327.642C808.849 339.479 807.536 348.688 787.806 360.522L774.654 347.37Z" stroke="#054E34"/>
<path d="M924.856 347.37L913.278 358.947C893.548 347.113 892.235 337.904 893.551 326.068C881.714 327.383 872.505 326.07 860.671 306.34L872.248 294.763L860.413 282.929C872.247 263.198 881.456 261.886 893.293 263.201C891.978 251.364 893.29 242.155 913.021 230.321L924.854 242.154L938.008 229C957.738 240.834 959.051 250.043 957.736 261.88C969.572 260.564 978.781 261.877 990.615 281.608L977.462 294.761L990.615 307.914C978.781 327.645 969.572 328.957 957.736 327.642C959.051 339.479 957.738 348.688 938.008 360.522L924.856 347.37Z" stroke="#054E34"/>
<path d="M1075.06 347.37L1063.48 358.947C1043.75 347.113 1042.44 337.904 1043.75 326.068C1031.92 327.383 1022.71 326.07 1010.87 306.34L1022.45 294.763L1010.62 282.929C1022.45 263.198 1031.66 261.886 1043.5 263.201C1042.18 251.364 1043.49 242.155 1063.22 230.321L1075.06 242.154L1088.21 229C1107.94 240.834 1109.25 250.043 1107.94 261.88C1119.77 260.564 1128.98 261.877 1140.82 281.608L1127.66 294.761L1140.82 307.914C1128.98 327.645 1119.77 328.957 1107.94 327.642C1109.25 339.479 1107.94 348.688 1088.21 360.522L1075.06 347.37Z" stroke="#054E34"/>
<path d="M1225.26 347.37L1213.68 358.947C1193.95 347.113 1192.64 337.904 1193.95 326.068C1182.12 327.383 1172.91 326.07 1161.07 306.34L1172.65 294.763L1160.82 282.929C1172.65 263.198 1181.86 261.886 1193.7 263.201C1192.38 251.364 1193.69 242.155 1213.42 230.321L1225.26 242.154L1238.41 229C1258.14 240.834 1259.45 250.043 1258.14 261.88C1269.98 260.564 1279.19 261.877 1291.02 281.608L1277.87 294.761L1291.02 307.914C1279.19 327.645 1269.98 328.957 1258.14 327.642C1259.45 339.479 1258.14 348.688 1238.41 360.522L1225.26 347.37Z" stroke="#054E34"/>
<path d="M1375.46 347.37L1363.88 358.947C1344.15 347.113 1342.84 337.904 1344.16 326.068C1332.32 327.383 1323.11 326.07 1311.28 306.34L1322.85 294.763L1311.02 282.929C1322.85 263.198 1332.06 261.886 1343.9 263.201C1342.58 251.364 1343.9 242.155 1363.63 230.321L1375.46 242.154L1388.61 229C1408.34 240.834 1409.66 250.043 1408.34 261.88C1420.18 260.564 1429.39 261.877 1441.22 281.608L1428.07 294.761L1441.22 307.914C1429.39 327.645 1420.18 328.957 1408.34 327.642C1409.66 339.479 1408.34 348.688 1388.61 360.522L1375.46 347.37Z" stroke="#054E34"/>
<path d="M-126.558 585.37L-138.135 596.947C-157.865 585.113 -159.178 575.904 -157.863 564.068C-169.7 565.383 -178.909 564.07 -190.743 544.34L-179.166 532.763L-191 520.929C-179.166 501.198 -169.957 499.886 -158.12 501.201C-159.436 489.364 -158.123 480.155 -138.392 468.321L-126.56 480.154L-113.406 467C-93.6752 478.834 -92.3626 488.043 -93.6779 499.88C-81.8411 498.564 -72.6322 499.877 -60.7981 519.608L-73.9514 532.761L-60.7981 545.914C-72.6321 565.645 -81.841 566.957 -93.6778 565.642C-92.3625 577.479 -93.6751 586.688 -113.406 598.522L-126.558 585.37Z" stroke="#054E34"/>
<path d="M23.6444 585.37L12.067 596.947C-7.66354 585.113 -8.97619 575.904 -7.66087 564.068C-19.4977 565.383 -28.7066 564.07 -40.5406 544.34L-28.9639 532.763L-40.7981 520.929C-28.964 501.198 -19.7552 499.886 -7.91832 501.201C-9.23363 489.364 -7.92099 480.155 11.8095 468.321L23.6423 480.154L36.7962 467C56.5267 478.834 57.8394 488.043 56.524 499.88C68.3609 498.564 77.5697 499.877 89.4038 519.608L76.2505 532.761L89.4039 545.914C77.5698 565.645 68.3609 566.957 56.5241 565.642C57.8394 577.479 56.5268 586.688 36.7963 598.522L23.6444 585.37Z" stroke="#054E34"/>
<path d="M173.846 585.37L162.269 596.947C142.538 585.113 141.226 575.904 142.541 564.068C130.704 565.383 121.495 564.07 109.661 544.34L121.238 532.763L109.404 520.929C121.238 501.198 130.447 499.886 142.284 501.201C140.968 489.364 142.281 480.155 162.011 468.321L173.844 480.154L186.998 467C206.729 478.834 208.041 488.043 206.726 499.88C218.563 498.564 227.772 499.877 239.606 519.608L226.452 532.761L239.606 545.914C227.772 565.645 218.563 566.957 206.726 565.642C208.041 577.479 206.729 586.688 186.998 598.522L173.846 585.37Z" stroke="#054E34"/>
<path d="M324.048 585.37L312.471 596.947C292.74 585.113 291.428 575.904 292.743 564.068C280.906 565.383 271.697 564.07 259.863 544.34L271.44 532.763L259.606 520.929C271.44 501.198 280.649 499.886 292.486 501.201C291.17 489.364 292.483 480.155 312.213 468.321L324.046 480.154L337.2 467C356.931 478.834 358.243 488.043 356.928 499.88C368.765 498.564 377.974 499.877 389.808 519.608L376.654 532.761L389.808 545.914C377.974 565.645 368.765 566.957 356.928 565.642C358.243 577.479 356.931 586.688 337.2 598.522L324.048 585.37Z" stroke="#054E34"/>
<path d="M474.25 585.37L462.673 596.947C442.942 585.113 441.63 575.904 442.945 564.068C431.108 565.383 421.899 564.07 410.065 544.34L421.642 532.763L409.808 520.929C421.642 501.198 430.851 499.886 442.688 501.201C441.372 489.364 442.685 480.155 462.415 468.321L474.248 480.154L487.402 467C507.132 478.834 508.445 488.043 507.13 499.88C518.967 498.564 528.176 499.877 540.01 519.608L526.856 532.761L540.01 545.914C528.176 565.645 518.967 566.957 507.13 565.642C508.445 577.479 507.133 586.688 487.402 598.522L474.25 585.37Z" stroke="#054E34"/>
<path d="M624.452 585.37L612.875 596.947C593.144 585.113 591.832 575.904 593.147 564.068C581.31 565.383 572.101 564.07 560.267 544.34L571.844 532.763L560.01 520.929C571.844 501.198 581.053 499.886 592.889 501.201C591.574 489.364 592.887 480.155 612.617 468.321L624.45 480.154L637.604 467C657.334 478.834 658.647 488.043 657.332 499.88C669.169 498.564 678.377 499.877 690.211 519.608L677.058 532.761L690.212 545.914C678.378 565.645 669.169 566.957 657.332 565.642C658.647 577.479 657.335 586.688 637.604 598.522L624.452 585.37Z" stroke="#054E34"/>
<path d="M774.654 585.37L763.077 596.947C743.346 585.113 742.033 575.904 743.349 564.068C731.512 565.383 722.303 564.07 710.469 544.34L722.046 532.763L710.212 520.929C722.046 501.198 731.254 499.886 743.091 501.201C741.776 489.364 743.089 480.155 762.819 468.321L774.652 480.154L787.806 467C807.536 478.834 808.849 488.043 807.534 499.88C819.37 498.564 828.579 499.877 840.413 519.608L827.26 532.761L840.413 545.914C828.579 565.645 819.371 566.957 807.534 565.642C808.849 577.479 807.536 586.688 787.806 598.522L774.654 585.37Z" stroke="#054E34"/>
<path d="M924.856 585.37L913.278 596.947C893.548 585.113 892.235 575.904 893.551 564.068C881.714 565.383 872.505 564.07 860.671 544.34L872.248 532.763L860.413 520.929C872.247 501.198 881.456 499.886 893.293 501.201C891.978 489.364 893.29 480.155 913.021 468.321L924.854 480.154L938.008 467C957.738 478.834 959.051 488.043 957.736 499.88C969.572 498.564 978.781 499.877 990.615 519.608L977.462 532.761L990.615 545.914C978.781 565.645 969.572 566.957 957.736 565.642C959.051 577.479 957.738 586.688 938.008 598.522L924.856 585.37Z" stroke="#054E34"/>
<path d="M1075.06 585.37L1063.48 596.947C1043.75 585.113 1042.44 575.904 1043.75 564.068C1031.92 565.383 1022.71 564.07 1010.87 544.34L1022.45 532.763L1010.62 520.929C1022.45 501.198 1031.66 499.886 1043.5 501.201C1042.18 489.364 1043.49 480.155 1063.22 468.321L1075.06 480.154L1088.21 467C1107.94 478.834 1109.25 488.043 1107.94 499.88C1119.77 498.564 1128.98 499.877 1140.82 519.608L1127.66 532.761L1140.82 545.914C1128.98 565.645 1119.77 566.957 1107.94 565.642C1109.25 577.479 1107.94 586.688 1088.21 598.522L1075.06 585.37Z" stroke="#054E34"/>
<path d="M1225.26 585.37L1213.68 596.947C1193.95 585.113 1192.64 575.904 1193.95 564.068C1182.12 565.383 1172.91 564.07 1161.07 544.34L1172.65 532.763L1160.82 520.929C1172.65 501.198 1181.86 499.886 1193.7 501.201C1192.38 489.364 1193.69 480.155 1213.42 468.321L1225.26 480.154L1238.41 467C1258.14 478.834 1259.45 488.043 1258.14 499.88C1269.98 498.564 1279.19 499.877 1291.02 519.608L1277.87 532.761L1291.02 545.914C1279.19 565.645 1269.98 566.957 1258.14 565.642C1259.45 577.479 1258.14 586.688 1238.41 598.522L1225.26 585.37Z" stroke="#054E34"/>
<path d="M1375.46 585.37L1363.88 596.947C1344.15 585.113 1342.84 575.904 1344.16 564.068C1332.32 565.383 1323.11 564.07 1311.28 544.34L1322.85 532.763L1311.02 520.929C1322.85 501.198 1332.06 499.886 1343.9 501.201C1342.58 489.364 1343.9 480.155 1363.63 468.321L1375.46 480.154L1388.61 467C1408.34 478.834 1409.66 488.043 1408.34 499.88C1420.18 498.564 1429.39 499.877 1441.22 519.608L1428.07 532.761L1441.22 545.914C1429.39 565.645 1420.18 566.957 1408.34 565.642C1409.66 577.479 1408.34 586.688 1388.61 598.522L1375.46 585.37Z" stroke="#054E34"/>
</svg>
