<svg width="132" height="32" viewBox="0 0 132 32" fill="none" xmlns="http://www.w3.org/2000/svg">
<g clip-path="url(#clip0_513_433)">
<path d="M24.9347 7.74785C24.9347 3.50543 21.4969 0.0549205 17.2677 0.0468397C17.2677 0.0468397 17.2629 0.0468397 17.2613 0.0468397C17.2596 0.0468397 17.2564 0.0468397 17.2548 0.0468397C17.2516 0.0468397 17.2484 0.0468397 17.2467 0.0468397C15.8832 0.0242134 14.5536 0.231082 13.2964 0.662597C10.5613 1.59835 8.17598 3.62017 6.57715 6.35795C3.84206 11.04 4.53832 16.787 6.60777 21.259L-0.0292969 30.4986H1.85642L7.39591 22.7878C7.74887 23.4068 8.12763 23.9919 8.52572 24.5333C10.2632 26.9042 12.3407 28.4396 13.7751 29.3091C18.2138 32.0016 23.9306 32.0307 24.1723 32.0307H24.9379V20.5171H18.0252V15.4085C21.9014 15.0222 24.9379 11.7333 24.9379 7.74623L24.9347 7.74785ZM7.65217 19.8028C6.03078 15.7753 5.68587 10.9171 7.89715 7.13209C8.62887 5.87957 9.54433 4.79997 10.5871 3.93371C9.94404 5.05856 9.57495 6.35957 9.57495 7.74623C9.57495 10.0396 10.5807 12.1002 12.1714 13.5111L7.65217 19.8012V19.8028ZM16.4909 28.96C15.8333 28.6885 15.1821 28.3717 14.5648 27.9967C13.2481 27.1984 11.3446 25.7923 9.75547 23.625C9.39605 23.1337 9.05437 22.6085 8.73847 22.0541H16.4909V28.96ZM16.4909 20.5204H9.02374L13.4125 14.4113C14.336 14.9478 15.3788 15.3002 16.4909 15.4101V20.5188V20.5204ZM16.4909 13.8618C15.7108 13.7648 14.9726 13.524 14.3102 13.1604L16.4909 10.1268V13.8634V13.8618ZM23.4035 22.0541V30.4678C22.3204 30.4 20.2268 30.1834 18.0204 29.5046V22.0541H23.4035ZM13.0724 12.2569C11.8652 11.1305 11.1045 9.52886 11.1045 7.74785C11.1045 4.34745 13.8637 1.58058 17.2548 1.58058C20.6459 1.58058 23.4051 4.34745 23.4051 7.74785C23.4051 10.8881 21.052 13.482 18.022 13.8618V5.37048L13.074 12.2586L13.0724 12.2569Z" fill="#063423"/>
<path d="M71.9469 28.5236H70.3738V15.9014H62.3314C57.8959 15.9014 54.2889 19.52 54.2889 23.966V28.522H52.7158V32.0307H71.9485V28.522L71.9469 28.5236ZM66.8748 28.5236H57.7879V23.9676C57.7879 21.4561 59.8267 19.4117 62.3314 19.4117H66.8748V28.5236Z" fill="#063423"/>
<path d="M75.8604 32.0323H91.9469V28.5236H79.3594V25.7212H86.4397V22.2125H79.3594V19.4101H91.9469V15.9014H75.8604V32.0323Z" fill="#063423"/>
<path d="M103.904 19.4101H108.447V32.0323H111.946V15.9014H103.904C99.4684 15.9014 95.8613 19.52 95.8613 23.966V32.0307H99.3604V23.966C99.3604 21.4545 101.399 19.4101 103.904 19.4101Z" fill="#063423"/>
<path d="M36.2119 27.2985H45.2988V32.0323H48.7979V15.9014H40.7554C36.3199 15.9014 32.7129 19.52 32.7129 23.966V32.0307H36.2119V27.2969V27.2985ZM40.7554 19.4101H45.2988V23.7899H36.22C36.3135 21.3591 38.3088 19.4101 40.7554 19.4101Z" fill="#063423"/>
<path d="M131.948 26.3337C131.948 23.1919 129.399 20.6351 126.265 20.6351H119.362V15.9014H115.863V32.0323H126.267C129.4 32.0323 131.95 29.4755 131.95 26.3337H131.948ZM126.265 28.5236H119.362V24.1438H126.265C127.469 24.1438 128.449 25.1264 128.449 26.3337C128.449 27.541 127.469 28.5236 126.265 28.5236Z" fill="#063423"/>
</g>
<defs>
<clipPath id="clip0_513_433">
<rect width="132" height="32" fill="white"/>
</clipPath>
</defs>
</svg>
