<svg width="107" height="38" viewBox="0 0 107 38" fill="none" xmlns="http://www.w3.org/2000/svg">
<path d="M96.1904 24.5253V10.616H98.6269V15.5658H100.641C104.114 15.5658 106.704 16.4291 106.704 20.0551C106.704 23.6428 104.114 24.5253 100.641 24.5253H96.1904ZM98.6269 22.4917H100.718C102.637 22.4917 104.21 22.1271 104.21 20.0551C104.21 17.9256 102.637 17.5994 100.718 17.5994H98.6269V22.4917Z" fill="#04412B"/>
<path d="M94.7197 24.5253H92.2831V12.6497H87.9473L87.8322 15.6425C87.6211 21.1487 86.3549 24.5253 83.3812 24.5253H82.8057V22.4917H83.0743C84.8201 22.4917 85.3765 18.9424 85.4724 14.4339L85.5683 10.616H94.7197V24.5253Z" fill="#04412B"/>
<path d="M72.0596 24.5253V10.6161H81.9016V12.6497H74.4961V16.3716H81.4987V18.3861H74.4961V22.4725H81.9016V24.5253H72.0596Z" fill="#04412B"/>
<path d="M70.7613 22.4917V27.3839H68.4974V24.5253H58.924V27.3839H56.6602V22.4917H57.2165C58.7322 22.4917 59.5763 19.8249 59.653 15.2205L59.7298 10.6161H68.9387V22.4917H70.7613ZM66.5022 22.4917V12.6497H62.0704L61.9745 15.9879C61.8785 19.4604 61.1495 21.2638 60.171 22.4917H66.5022Z" fill="#04412B"/>
<path d="M42.9453 24.5253L48.1253 10.6161H50.6961L55.9145 24.5253H53.2478L52.1542 21.4365H46.5138L45.4394 24.5253H42.9453ZM49.3148 13.4363L47.2236 19.4029H51.4252L49.3148 13.4363Z" fill="#04412B"/>
<path d="M9.45197 9.97971C9.0912 6.73259 9.45175 4.20637 14.8644 0.959955L18.4724 4.56799L13.0607 9.97971C16.308 12.5051 18.8334 15.7528 18.4724 19.0002L18.1679 18.9746C15.0226 18.7976 11.8985 21.2659 9.45197 24.4119L0.432214 15.3921C3.67864 9.97948 6.20483 9.61893 9.45197 9.97971Z" fill="#62D736"/>
<path d="M27.4929 9.9795C30.74 9.61872 33.2662 9.97928 36.5126 15.3919L32.9046 18.9999L27.4929 13.5882C24.9675 16.8355 21.7198 19.3609 18.4724 18.9999L18.498 18.6954C18.675 15.5502 16.2067 12.4261 13.0607 9.9795L22.0805 0.959741C27.4931 4.20617 27.8537 6.73236 27.4929 9.9795Z" fill="#549BF0"/>
<path d="M27.4933 28.0203C27.8541 31.2674 27.4936 33.7936 22.0809 37.04L18.4729 33.432L23.8846 28.0203C20.6373 25.4949 18.1119 22.2472 18.4729 18.9998L18.7774 19.0254C21.9227 19.2024 25.0468 16.7341 27.4933 13.5881L36.5131 22.6079C33.2667 28.0205 30.7405 28.3811 27.4933 28.0203Z" fill="#E5EA50"/>
<path d="M9.45243 28.0205C6.20531 28.3813 3.67909 28.0207 0.432671 22.6081L4.04071 19.0001L9.45243 24.4118C11.9779 21.1645 15.2256 18.6391 18.4729 19.0001L18.4473 19.3046C18.2703 22.4498 20.7386 25.5739 23.8846 28.0205L14.8648 37.0403C9.45219 33.7938 9.09165 31.2676 9.45243 28.0205Z" fill="#F45D64"/>
</svg>
