<svg width="110" height="40" viewBox="0 0 110 40" fill="none" xmlns="http://www.w3.org/2000/svg">
<path d="M99.4878 27.3775V13.4683H101.924V18.418H103.939C107.411 18.418 110.001 19.2814 110.001 22.9074C110.001 26.495 107.411 27.3775 103.939 27.3775H99.4878ZM101.924 25.3439H104.015C105.934 25.3439 107.507 24.9794 107.507 22.9074C107.507 20.7778 105.934 20.4517 104.015 20.4517H101.924V25.3439Z" fill="#D5F0D3"/>
<path d="M98.017 27.3775H95.5805V15.5019H91.2447L91.1295 18.4948C90.9185 24.0009 89.6523 27.3775 86.6786 27.3775H86.103V25.3439H86.3716C88.1175 25.3439 88.6738 21.7946 88.7698 17.2861L88.8657 13.4683H98.017V27.3775Z" fill="#D5F0D3"/>
<path d="M75.3564 27.3775V13.4683H85.1984V15.5019H77.793V19.2238H84.7956V21.2383H77.793V25.3247H85.1984V27.3775H75.3564Z" fill="#D5F0D3"/>
<path d="M74.0581 25.3439V30.2361H71.7943V27.3775H62.2209V30.2361H59.957V25.3439H60.5134C62.029 25.3439 62.8732 22.6771 62.9499 18.0727L63.0267 13.4683H72.2355V25.3439H74.0581ZM69.799 25.3439V15.5019H65.3673L65.2713 18.8401C65.1754 22.3126 64.4464 24.116 63.4679 25.3439H69.799Z" fill="#D5F0D3"/>
<path d="M46.2422 27.3775L51.4222 13.4683H53.993L59.2114 27.3775H56.5446L55.4511 24.2887H49.8106L48.7363 27.3775H46.2422ZM52.6117 16.2885L50.5205 22.2551H54.722L52.6117 16.2885Z" fill="#D5F0D3"/>
<path d="M0.999999 16.3662C4.37199 10.7443 6.99633 10.3703 10.3691 10.7451C9.99437 7.37234 10.3682 4.74798 15.9902 1.37598L19.3623 4.74805L23.1103 0.999999C28.7323 4.37201 29.1062 6.99632 28.7314 10.3691C32.1043 9.99435 34.7285 10.3681 38.1006 15.9902L34.3525 19.7383L38.1006 23.4863C34.7285 29.1084 32.1043 29.4822 28.7314 29.1074C29.1062 32.4803 28.7323 35.1045 23.1104 38.4766L19.3623 34.7295L16.0635 38.0273C10.4419 34.6555 10.0677 32.0318 10.4424 28.6592C7.06953 29.034 4.44531 28.6592 1.07324 23.0371L4.37207 19.7383L0.999999 16.3662Z" fill="#D5F0D3"/>
<path d="M0.999999 16.3662L0.571214 16.109L0.370442 16.4438L0.646446 16.7198L0.999999 16.3662ZM10.3691 10.7451L10.3139 11.2421L10.9351 11.3111L10.8661 10.6899L10.3691 10.7451ZM15.9902 1.37598L16.3438 1.02242L16.0678 0.746421L15.7331 0.947189L15.9902 1.37598ZM19.3623 4.74805L19.0087 5.1016L19.3623 5.45515L19.7159 5.1016L19.3623 4.74805ZM23.1103 0.999999L23.3675 0.571212L23.0328 0.370444L22.7568 0.646445L23.1103 0.999999ZM28.7314 10.3691L28.2345 10.3139L28.1655 10.9351L28.7867 10.8661L28.7314 10.3691ZM38.1006 15.9902L38.4541 16.3438L38.7301 16.0678L38.5294 15.7331L38.1006 15.9902ZM34.3525 19.7383L33.999 19.3847L33.6454 19.7383L33.999 20.0918L34.3525 19.7383ZM38.1006 23.4863L38.5294 23.7435L38.7301 23.4088L38.4541 23.1328L38.1006 23.4863ZM28.7314 29.1074L28.7867 28.6105L28.1655 28.5415L28.2345 29.1626L28.7314 29.1074ZM23.1104 38.4766L22.7568 38.8302L23.0328 39.1061L23.3675 38.9053L23.1104 38.4766ZM19.3623 34.7295L19.7158 34.3759L19.3623 34.0225L19.0088 34.3759L19.3623 34.7295ZM16.0635 38.0273L15.8063 38.4561L16.141 38.6569L16.417 38.3809L16.0635 38.0273ZM10.4424 28.6592L10.9393 28.7144L11.0083 28.0932L10.3872 28.1622L10.4424 28.6592ZM1.07324 23.0371L0.719688 22.6836L0.443687 22.9596L0.644454 23.2943L1.07324 23.0371ZM4.37207 19.7383L4.72562 20.0918L5.07918 19.7383L4.72562 19.3847L4.37207 19.7383ZM0.999999 16.3662L1.42878 16.6234C3.09285 13.849 4.53091 12.4424 5.90782 11.7541C7.27524 11.0706 8.65541 11.0578 10.3139 11.2421L10.3691 10.7451L10.4244 10.2482C8.71006 10.0577 7.09165 10.0444 5.46071 10.8597C3.83925 11.6702 2.27914 13.2615 0.571214 16.109L0.999999 16.3662ZM10.3691 10.7451L10.8661 10.6899C10.6818 9.0314 10.6946 7.65123 11.3781 6.28381C12.0664 4.90689 13.473 3.46883 16.2474 1.80476L15.9902 1.37598L15.7331 0.947189C12.8855 2.65512 11.2941 4.21524 10.4837 5.8367C9.66843 7.46765 9.68171 9.08605 9.8722 10.8003L10.3691 10.7451ZM15.9902 1.37598L15.6367 1.72953L19.0087 5.1016L19.3623 4.74805L19.7159 4.39449L16.3438 1.02242L15.9902 1.37598ZM19.3623 4.74805L19.7159 5.1016L23.4639 1.35355L23.1103 0.999999L22.7568 0.646445L19.0087 4.39449L19.3623 4.74805ZM23.1103 0.999999L22.8532 1.42879C25.6276 3.09286 27.0342 4.53091 27.7224 5.90782C28.406 7.27524 28.4188 8.6554 28.2345 10.3139L28.7314 10.3691L29.2284 10.4244C29.4189 8.71005 29.4322 7.09165 28.6169 5.46071C27.8064 3.83926 26.2151 2.27915 23.3675 0.571212L23.1103 0.999999ZM28.7314 10.3691L28.7867 10.8661C30.4452 10.6818 31.8254 10.6946 33.1928 11.3781C34.5697 12.0663 36.0077 13.4729 37.6718 16.2474L38.1006 15.9902L38.5294 15.7331C36.8214 12.8854 35.2613 11.2941 33.6399 10.4836C32.0089 9.66838 30.3905 9.6817 28.6762 9.8722L28.7314 10.3691ZM38.1006 15.9902L37.747 15.6367L33.999 19.3847L34.3525 19.7383L34.7061 20.0918L38.4541 16.3438L38.1006 15.9902ZM34.3525 19.7383L33.999 20.0918L37.747 23.8399L38.1006 23.4863L38.4541 23.1328L34.7061 19.3847L34.3525 19.7383ZM38.1006 23.4863L37.6718 23.2291C36.0077 26.0036 34.5697 27.4102 33.1928 28.0985C31.8254 28.782 30.4452 28.7948 28.7867 28.6105L28.7314 29.1074L28.6762 29.6044C30.3905 29.7949 32.0089 29.8082 33.6399 28.9929C35.2613 28.1825 36.8214 26.5911 38.5294 23.7435L38.1006 23.4863ZM28.7314 29.1074L28.2345 29.1626C28.4188 30.8212 28.406 32.2013 27.7225 33.5687C27.0342 34.9456 25.6276 36.3837 22.8532 38.0478L23.1104 38.4766L23.3675 38.9053C26.2151 37.1974 27.8064 35.6373 28.6169 34.0158C29.4322 32.3849 29.4189 30.7665 29.2284 29.0522L28.7314 29.1074ZM23.1104 38.4766L23.4639 38.123L19.7158 34.3759L19.3623 34.7295L19.0088 35.0831L22.7568 38.8302L23.1104 38.4766ZM19.3623 34.7295L19.0088 34.3759L15.71 37.6737L16.0635 38.0273L16.417 38.3809L19.7158 35.0831L19.3623 34.7295ZM16.0635 38.0273L16.3207 37.5986C13.5464 35.9346 12.1398 34.4967 11.4515 33.12C10.768 31.7527 10.7551 30.3728 10.9393 28.7144L10.4424 28.6592L9.94544 28.604C9.75498 30.3182 9.74181 31.9364 10.5571 33.5671C11.3676 35.1884 12.959 36.7483 15.8063 38.4561L16.0635 38.0273ZM10.4424 28.6592L10.3872 28.1622C8.72868 28.3465 7.34854 28.3335 5.98113 27.6498C4.6042 26.9613 3.16614 25.5544 1.50203 22.7799L1.07324 23.0371L0.644454 23.2943C2.3524 26.1419 3.91249 27.7335 5.53391 28.5442C7.16484 29.3597 8.78323 29.3466 10.4976 29.1561L10.4424 28.6592ZM1.07324 23.0371L1.42679 23.3907L4.72562 20.0918L4.37207 19.7383L4.01852 19.3847L0.719688 22.6836L1.07324 23.0371ZM4.37207 19.7383L4.72562 19.3847L1.35355 16.0127L0.999999 16.3662L0.646446 16.7198L4.01852 20.0918L4.37207 19.7383Z" fill="#D5F0D3"/>
</svg>
