<svg width="25" height="24" viewBox="0 0 25 24" fill="none" xmlns="http://www.w3.org/2000/svg">
<path d="M12.7041 9C11.9085 9 11.1454 9.31607 10.5828 9.87868C10.0202 10.4413 9.7041 11.2044 9.7041 12C9.7041 12.7956 10.0202 13.5587 10.5828 14.1213C11.1454 14.6839 11.9085 15 12.7041 15C13.4998 15 14.2628 14.6839 14.8254 14.1213C15.388 13.5587 15.7041 12.7956 15.7041 12C15.7041 11.2044 15.388 10.4413 14.8254 9.87868C14.2628 9.31607 13.4998 9 12.7041 9ZM12.7041 17C11.378 17 10.1062 16.4732 9.16857 15.5355C8.23089 14.5979 7.7041 13.3261 7.7041 12C7.7041 10.6739 8.23089 9.40215 9.16857 8.46447C10.1062 7.52678 11.378 7 12.7041 7C14.0302 7 15.302 7.52678 16.2396 8.46447C17.1773 9.40215 17.7041 10.6739 17.7041 12C17.7041 13.3261 17.1773 14.5979 16.2396 15.5355C15.302 16.4732 14.0302 17 12.7041 17ZM12.7041 4.5C7.7041 4.5 3.4341 7.61 1.7041 12C3.4341 16.39 7.7041 19.5 12.7041 19.5C17.7041 19.5 21.9741 16.39 23.7041 12C21.9741 7.61 17.7041 4.5 12.7041 4.5Z" fill="currentColor"/>
</svg>
