<svg width="133" height="133" viewBox="0 0 133 133" fill="none" xmlns="http://www.w3.org/2000/svg">
<path d="M1.43164 54.7014L1.00285 54.4442L0.802091 54.779L1.07807 55.055L1.43164 54.7014ZM34.3115 34.9729L34.2563 35.4698L34.8775 35.5389L34.8085 34.9177L34.3115 34.9729ZM54.0391 2.09399L54.3926 1.74045L54.1166 1.46443L53.7819 1.6652L54.0391 2.09399ZM65.8721 13.927L65.5185 14.2806L65.8721 14.6341L66.2256 14.2806L65.8721 13.927ZM79.0264 0.772702L79.2835 0.343914L78.9488 0.143139L78.6728 0.419156L79.0264 0.772702ZM98.7539 33.6526L98.257 33.5974L98.1879 34.2185L98.8091 34.1495L98.7539 33.6526ZM131.634 53.3801L131.987 53.7337L132.263 53.4577L132.063 53.1229L131.634 53.3801ZM118.48 66.5334L118.127 66.1799L117.773 66.5334L118.127 66.887L118.48 66.5334ZM131.634 79.6868L132.063 79.9439L132.263 79.6092L131.987 79.3332L131.634 79.6868ZM98.7539 99.4143L98.8091 98.9174L98.1879 98.8483L98.257 99.4695L98.7539 99.4143ZM79.0264 132.294L78.6728 132.648L78.9488 132.924L79.2835 132.723L79.0264 132.294ZM65.874 119.143L66.2276 118.789L65.874 118.436L65.5205 118.789L65.874 119.143ZM54.2969 130.72L54.0397 131.149L54.3744 131.35L54.6504 131.074L54.2969 130.72ZM34.5684 97.8401L35.0653 97.8953L35.1343 97.2741L34.5131 97.3431L34.5684 97.8401ZM1.68945 78.1125L1.3359 77.759L1.05989 78.035L1.26066 78.3697L1.68945 78.1125ZM13.2656 66.5364L13.6192 66.8899L13.9727 66.5364L13.6192 66.1828L13.2656 66.5364ZM1.43164 54.7014L1.86042 54.9586C7.75553 45.1299 12.9553 39.9613 18.0941 37.3922C23.2235 34.8278 28.3658 34.8153 34.2563 35.4698L34.3115 34.9729L34.3667 34.476C28.4204 33.8152 23.0398 33.8016 17.6469 36.4977C12.2636 39.1891 6.94179 44.5424 1.00285 54.4442L1.43164 54.7014ZM34.3115 34.9729L34.8085 34.9177C34.1539 29.0273 34.1664 23.8851 36.7306 18.756C39.2995 13.6173 44.4678 8.41777 54.2962 2.52278L54.0391 2.09399L53.7819 1.6652C43.8803 7.60403 38.5273 12.9256 35.8361 18.3088C33.1402 23.7015 33.1539 29.0819 33.8146 35.0281L34.3115 34.9729ZM54.0391 2.09399L53.6855 2.44754L65.5185 14.2806L65.8721 13.927L66.2256 13.5734L54.3926 1.74045L54.0391 2.09399ZM65.8721 13.927L66.2256 14.2806L79.3799 1.12625L79.0264 0.772702L78.6728 0.419156L65.5185 13.5734L65.8721 13.927ZM79.0264 0.772702L78.7692 1.20149C88.5977 7.09652 93.766 12.2963 96.3349 17.4352C98.8991 22.5645 98.9115 27.7069 98.257 33.5974L98.7539 33.6526L99.2508 33.7078C99.9116 27.7615 99.9253 22.3809 97.2294 16.988C94.5382 11.6046 89.1851 6.28279 79.2835 0.343914L79.0264 0.772702ZM98.7539 33.6526L98.8091 34.1495C104.7 33.495 109.842 33.5073 114.971 36.0714C120.11 38.6403 125.31 43.8086 131.205 53.6373L131.634 53.3801L132.063 53.1229C126.124 43.2212 120.802 37.8681 115.418 35.177C110.026 32.4811 104.645 32.4949 98.6987 33.1556L98.7539 33.6526ZM131.634 53.3801L131.28 53.0266L118.127 66.1799L118.48 66.5334L118.834 66.887L131.987 53.7337L131.634 53.3801ZM118.48 66.5334L118.127 66.887L131.28 80.0403L131.634 79.6868L131.987 79.3332L118.834 66.1799L118.48 66.5334ZM131.634 79.6868L131.205 79.4296C125.31 89.2583 120.11 94.4266 114.971 96.9955C109.842 99.5596 104.7 99.5719 98.8091 98.9174L98.7539 99.4143L98.6987 99.9112C104.645 100.572 110.026 100.586 115.418 97.8899C120.802 95.1988 126.124 89.8457 132.063 79.9439L131.634 79.6868ZM98.7539 99.4143L98.257 99.4695C98.9115 105.36 98.8991 110.502 96.335 115.632C93.7661 120.771 88.5978 125.97 78.7692 131.865L79.0264 132.294L79.2835 132.723C89.1852 126.784 94.5383 121.462 97.2294 116.079C99.9253 110.686 99.9116 105.305 99.2508 99.3591L98.7539 99.4143ZM79.0264 132.294L79.3799 131.941L66.2276 118.789L65.874 119.143L65.5205 119.496L78.6728 132.648L79.0264 132.294ZM65.874 119.143L65.5205 118.789L53.9433 130.366L54.2969 130.72L54.6504 131.074L66.2276 119.496L65.874 119.143ZM54.2969 130.72L54.5541 130.291C44.7254 124.396 39.5568 119.196 36.9877 114.057C34.4234 108.928 34.4108 103.786 35.0653 97.8953L34.5684 97.8401L34.0714 97.7849C33.4107 103.731 33.3972 109.112 36.0933 114.505C38.7846 119.888 44.1379 125.21 54.0397 131.149L54.2969 130.72ZM34.5684 97.8401L34.5131 97.3431C28.6228 97.9977 23.4806 97.9851 18.3514 95.421C13.2128 92.852 8.01319 87.6837 2.11824 77.8554L1.68945 78.1125L1.26066 78.3697C7.19946 88.2712 12.5211 93.6242 17.9043 96.3154C23.297 99.0114 28.6774 98.9977 34.6236 98.337L34.5684 97.8401ZM1.68945 78.1125L2.043 78.4661L13.6192 66.8899L13.2656 66.5364L12.9121 66.1828L1.3359 77.759L1.68945 78.1125ZM13.2656 66.5364L13.6192 66.1828L1.78521 54.3479L1.43164 54.7014L1.07807 55.055L12.9121 66.8899L13.2656 66.5364Z" fill="#04412B"/>
</svg>
