<svg width="116" height="116" viewBox="0 0 116 116" fill="none" xmlns="http://www.w3.org/2000/svg">
<path d="M19.8664 3.13362L19.745 2.64857L19.3664 2.7433L19.3664 3.1336L19.8664 3.13362ZM57.0661 12.433L56.6757 12.7454L57.0661 13.2334L57.4566 12.7454L57.0661 12.433ZM94.2645 3.13362L94.7645 3.13363L94.7645 2.74329L94.3858 2.64857L94.2645 3.13362ZM94.2645 19.868H93.7645V20.368H94.2645V19.868ZM112.867 19.868L113.353 19.7467L113.258 19.368L112.867 19.368L112.867 19.868ZM103.567 57.0671L103.255 56.6767L102.767 57.0671L103.255 57.4575L103.567 57.0671ZM112.867 94.2662L112.867 94.7661H113.258L113.353 94.3875L112.867 94.2662ZM94.2659 94.2662V93.7662H93.7659V94.2662H94.2659ZM94.2659 112.868L94.3872 113.353L94.7659 113.258V112.868L94.2659 112.868ZM57.0668 103.568L57.4573 103.255L57.0668 102.767L56.6764 103.255L57.0668 103.568ZM19.8678 112.868L19.3678 112.868L19.3678 113.258L19.7464 113.353L19.8678 112.868ZM19.8671 94.2682L20.3671 94.2682L20.367 93.7682L19.8671 93.7682V94.2682ZM3.49451 94.2682L3.00945 94.3896L3.10418 94.7682L3.49451 94.7682L3.49451 94.2682ZM12.7939 57.0685L13.1063 57.4589L13.5943 57.0685L13.1063 56.678L12.7939 57.0685ZM3.49451 19.8701L3.49451 19.3701L3.10418 19.3701L3.00945 19.7488L3.49451 19.8701ZM19.8657 19.8701V20.3701H20.3657L20.3657 19.8701L19.8657 19.8701ZM19.8664 3.13362L19.9877 3.61868C31.1061 0.837194 38.4376 0.859229 43.888 2.67631C49.3283 4.49003 52.9733 8.11733 56.6757 12.7454L57.0661 12.433L57.4566 12.1207C53.7191 7.44879 49.924 3.63455 44.2043 1.72764C38.4946 -0.1759 30.9461 -0.153592 19.745 2.64857L19.8664 3.13362ZM57.0661 12.433L57.4566 12.7454C61.1589 8.11744 64.8037 4.4902 70.2437 2.67648C75.6938 0.859394 83.025 0.8373 94.1432 3.61868L94.2645 3.13362L94.3858 2.64857C83.185 -0.153492 75.6369 -0.175738 69.9274 1.72782C64.2079 3.63473 60.4131 7.44891 56.6757 12.1207L57.0661 12.433ZM94.2645 3.13362L93.7645 3.13362L93.7645 19.868H94.2645H94.7645L94.7645 3.13363L94.2645 3.13362ZM94.2645 19.868V20.368L112.867 20.368L112.867 19.868L112.867 19.368L94.2645 19.368V19.868ZM112.867 19.868L112.382 19.9894C115.164 31.1076 115.142 38.4389 113.324 43.8891C111.51 49.3293 107.883 52.9743 103.255 56.6767L103.567 57.0671L103.88 57.4575C108.552 53.7201 112.366 49.9251 114.273 44.2055C116.177 38.4959 116.155 30.9476 113.353 19.7467L112.867 19.868ZM103.567 57.0671L103.255 57.4575C107.883 61.1599 111.511 64.8048 113.324 70.2449C115.142 75.6951 115.164 83.0264 112.382 94.1448L112.867 94.2662L113.353 94.3875C116.155 83.1864 116.177 75.6381 114.273 69.9286C112.366 64.209 108.552 60.4141 103.88 56.6767L103.567 57.0671ZM112.867 94.2662L112.867 93.7662L94.2659 93.7662V94.2662V94.7662L112.867 94.7661L112.867 94.2662ZM94.2659 94.2662H93.7659L93.7659 112.868L94.2659 112.868L94.7659 112.868L94.7659 94.2662H94.2659ZM94.2659 112.868L94.1445 112.383C83.0262 115.164 75.6948 115.142 70.2446 113.325C64.8045 111.511 61.1596 107.883 57.4573 103.255L57.0668 103.568L56.6764 103.88C60.4138 108.552 64.2087 112.366 69.9283 114.273C75.6379 116.177 83.1862 116.155 94.3872 113.353L94.2659 112.868ZM57.0668 103.568L56.6764 103.255C52.974 107.883 49.3291 111.511 43.8889 113.325C38.4387 115.142 31.1074 115.164 19.9891 112.383L19.8678 112.868L19.7464 113.353C30.9474 116.155 38.4957 116.177 44.2052 114.273C49.9249 112.366 53.7198 108.552 57.4573 103.88L57.0668 103.568ZM19.8678 112.868L20.3678 112.868L20.3671 94.2682L19.8671 94.2682L19.3671 94.2682L19.3678 112.868L19.8678 112.868ZM19.8671 94.2682V93.7682L3.49451 93.7682L3.49451 94.2682L3.49451 94.7682L19.8671 94.7682V94.2682ZM3.49451 94.2682L3.97956 94.1469C1.19809 83.0285 1.22015 75.697 3.03724 70.2466C4.85097 64.8064 8.47826 61.1613 13.1063 57.4589L12.7939 57.0685L12.4816 56.678C7.80971 60.4155 3.99549 64.2106 2.08857 69.9304C0.18502 75.6401 0.207303 83.1885 3.00945 94.3896L3.49451 94.2682ZM12.7939 57.0685L13.1063 56.678C8.47836 52.9757 4.85114 49.3308 3.03742 43.8908C1.22034 38.4407 1.19823 31.1095 3.97956 19.9914L3.49451 19.8701L3.00945 19.7488C0.207444 30.9495 0.185212 38.4976 2.08876 44.2071C3.99567 49.9266 7.80982 53.7215 12.4816 57.4589L12.7939 57.0685ZM3.49451 19.8701L3.49451 20.3701L19.8657 20.3701V19.8701V19.3701L3.49451 19.3701L3.49451 19.8701ZM19.8657 19.8701L20.3657 19.8701L20.3664 3.13365L19.8664 3.13362L19.3664 3.1336L19.3657 19.8701L19.8657 19.8701Z" fill="#04412B"/>
</svg>
