<?xml version="1.0" encoding="utf-8"?><svg viewBox="0 0 148 52" xmlns="http://www.w3.org/2000/svg" xmlns:xlink="http://www.w3.org/1999/xlink"><style>:root>svg{display:none}:root>svg:target{display:block}</style><svg fill="none" viewBox="0 0 5 9" id="angle_arrow" xmlns="http://www.w3.org/2000/svg"><path d="M4.367 1L.735 4.632l3.632 3.632" stroke="currentColor"/></svg><svg fill="none" viewBox="0 0 24 24" id="arrow_down" xmlns="http://www.w3.org/2000/svg"><path d="M17 12.835L11.964 18m0 0L7 12.908M11.964 18V6" stroke="currentColor" stroke-width="2" stroke-linecap="round" stroke-linejoin="round"/></svg><svg fill="none" viewBox="0 0 20 20" id="arrow_right" xmlns="http://www.w3.org/2000/svg"><path d="M11.112 4.167L16.667 10m0 0l-5.555 5.833M16.667 10H3.334" stroke="currentColor" stroke-width="2" stroke-linecap="round" stroke-linejoin="round"/></svg><svg fill="none" viewBox="0 0 24 24" id="arrow_up_right" xmlns="http://www.w3.org/2000/svg"><path d="M8.458 7.08h8.522m0 0v8.401m0-8.4l-9.9 9.899" stroke="currentColor" stroke-width="2" stroke-linecap="round" stroke-linejoin="round"/></svg><svg fill="none" viewBox="0 0 16 18" id="cards_mode" xmlns="http://www.w3.org/2000/svg"><rect x="6" width="4" height="4" rx="1" fill="currentColor"/><rect width="4" height="4" rx="1" fill="currentColor"/><rect x="12" width="4" height="4" rx="1" fill="currentColor"/><rect x="6" y="7" width="4" height="4" rx="1" fill="currentColor"/><rect y="7" width="4" height="4" rx="1" fill="currentColor"/><rect x="12" y="7" width="4" height="4" rx="1" fill="currentColor"/><rect x="6" y="14" width="4" height="4" rx="1" fill="currentColor"/><rect y="14" width="4" height="4" rx="1" fill="currentColor"/><rect x="12" y="14" width="4" height="4" rx="1" fill="currentColor"/></svg><svg fill="none" viewBox="0 0 17 16" id="chevron_down" xmlns="http://www.w3.org/2000/svg"><path d="M5.37 8.667l3.334 3.053 3.333-3.053" stroke="currentColor" stroke-width="1.333" stroke-linecap="round" stroke-linejoin="round"/></svg><svg fill="none" viewBox="0 0 24 24" id="clip" xmlns="http://www.w3.org/2000/svg"><path d="M18.957 11.505L11.91 18.55c-1.917 1.918-4.793 2.144-6.748.19-1.918-1.918-1.669-4.696.286-6.652l7.92-7.92a3.087 3.087 0 014.376 0 3.087 3.087 0 010 4.376l-8.06 8.059a1.547 1.547 0 11-2.187-2.188l7.184-7.184" stroke="currentColor" stroke-width="2" stroke-linecap="round"/></svg><svg fill="none" viewBox="0 0 24 24" id="close" xmlns="http://www.w3.org/2000/svg"><path d="M18 6L6 18m12 0L6 6" stroke="currentColor" stroke-width="2" stroke-linecap="round"/></svg><svg fill="none" viewBox="0 0 20 18" id="date" xmlns="http://www.w3.org/2000/svg"><path d="M17.518 1.37h-2.586V.868c0-.482-.421-.868-.947-.868-.525 0-.946.386-.946.868v.502h-6.12V.868c0-.482-.42-.868-.946-.868s-.947.386-.947.868v.502H2.461C1.115 1.37 0 2.373 0 3.627v11.749c0 1.234 1.094 2.257 2.46 2.257h15.08c1.345 0 2.46-1.003 2.46-2.257V3.626c-.021-1.253-1.115-2.256-2.482-2.256zM2.461 3.106h2.586v.502c0 .482.42.868.947.868.525 0 .946-.386.946-.868v-.502h6.12v.502c0 .482.42.868.946.868s.947-.386.947-.868v-.502h2.586c.316 0 .568.232.568.52v2.297H1.893V3.627c0-.29.252-.521.568-.521zm15.057 12.79H2.461c-.316 0-.568-.23-.568-.52V7.64h16.214v7.736a.577.577 0 01-.589.52z" fill="currentColor"/></svg><svg fill="none" viewBox="0 0 24 24" id="download" xmlns="http://www.w3.org/2000/svg"><path d="M4 20.383c.405.395.954.617 1.526.617h12.948c.572 0 1.121-.222 1.526-.617M12.001 3v11.943m0 0l4.933-4.564M12 14.943L7.07 10.379" stroke="currentColor" stroke-width="2" stroke-linecap="round" stroke-linejoin="round"/></svg><svg fill="none" viewBox="0 0 25 24" id="eye" xmlns="http://www.w3.org/2000/svg"><path d="M12.704 9a3 3 0 100 6 3 3 0 000-6zm0 8a5 5 0 110-10 5 5 0 010 10zm0-12.5c-5 0-9.27 3.11-11 7.5 1.73 4.39 6 7.5 11 7.5s9.27-3.11 11-7.5c-1.73-4.39-6-7.5-11-7.5z" fill="currentColor"/></svg><svg fill="none" viewBox="0 0 25 24" id="hand_break" xmlns="http://www.w3.org/2000/svg"><path fill-rule="evenodd" clip-rule="evenodd" d="M2.153 10.523l4.965-4.881a.5.5 0 01.701 0l.998.98-5.63 5.63-1.034-1.016a.5.5 0 010-.713zm2.104 2.781l5.285 5.195a3.5 3.5 0 004.6.27l2.573-1.998a1.5 1.5 0 00.132-2.255l-1.054-1.035a1 1 0 00-.995-.185l-.51-1.41a2.5 2.5 0 012.61.574l-.002.002 1.002.985c.44.432.716.963.833 1.518l1.916-1.757-5.506-5.506-4.741 4.66a.458.458 0 00.476.757l3.411-1.234.51 1.41-3.41 1.235a1.958 1.958 0 01-2.039-3.238l2.11-2.073-1.571-1.545-5.63 5.63zm8.27-5.137L8.871 4.572a2 2 0 00-2.804 0L1.102 9.453a2 2 0 000 2.853l7.388 7.263a5 5 0 006.571.384l2.574-1.997c.16-.124.303-.26.43-.407l-.012.074 5.799-5.32a2 2 0 00.05-2.9l-4.914-4.83a2 2 0 00-2.805 0l-3.655 3.594zm9.226 4.026L16.21 6.65l1.025-1.007a.5.5 0 01.701 0l4.914 4.83a.5.5 0 01-.012.725l-1.085.995z" fill="currentColor"/></svg><svg fill="none" viewBox="0 0 148 31" id="its" xmlns="http://www.w3.org/2000/svg"><g opacity=".4" fill="currentColor"><path d="M7.403 8.338h2.036v14.307H7.403V8.338zM18.13 10.5h-5.487V8.338h14.002V10.5h-5.914v12.146h-2.133V10.499h-.468z" stroke="currentColor"/><path d="M42.953 10.915V7.868h-10.04c-3.112 0-4.307 1.815-4.307 4.744 0 2.93 1.716 4.3 4.307 4.3h6.439c1.2 0 1.236 1.19 1.236 1.903 0 .713-.276 1.48-1.243 1.48H28.991v2.82h10.354c2.591 0 4.308-1.371 4.308-4.3 0-2.93-1.192-4.722-4.304-4.722l-1.561-.001h-4.875c-.966 0-1.242-.766-1.242-1.48s0-1.697 1.201-1.697h10.08z"/><path d="M69.45 8.33v2.178H59.327c-.433 0-.806.024-1.117.094-.317.071-.601.198-.821.426-.22.229-.333.513-.393.815-.06.297-.075.645-.075 1.032V18.5c0 .677.181 1.268.633 1.68.442.404 1.062.56 1.773.56H67.369v-4.298h-3.391v-1.89h5.465v8.093H58.98c-2.101 0-3.112-.386-3.62-.9-.5-.508-.622-1.252-.622-2.327V11.9c0-1.318.147-2.146.66-2.679.516-.534 1.519-.891 3.582-.891h10.47zM74.961 18.111v4.534h-2.038V8.354h9.77c1.782 0 2.82.534 3.41 1.123.603.6.782 1.294.782 1.672v4.049a2.08 2.08 0 01-.692 1.541c-.526.482-1.47.903-3.121.903h-1.02l.664.775 3.618 4.228h-2.747l-3.97-4.832-.16-.195-.25.026a4.312 4.312 0 01-.342.004l-.163-.002c-.121-.002-.248-.004-.357-.004h-3.384v.47zm.469-7.938h-.469V15.961h7.732c.92 0 1.505-.308 1.819-.811.275-.442.274-.946.274-1.19V11.916v-.012c0-.168 0-.617-.293-1.02-.322-.441-.897-.71-1.8-.71H75.43zM94.657 8.354h5.899c2.269 0 4.267 1.84 4.267 4.054v6.356c0 2.195-1.978 3.916-4.267 3.916h-5.899c-2.294 0-4.3-1.725-4.3-3.916v-6.356c0-2.21 2.025-4.054 4.3-4.054zm5.899 12.557c.673 0 1.239-.378 1.619-.852.381-.475.622-1.099.622-1.708v-5.53c0-.606-.238-1.252-.613-1.749-.372-.492-.939-.914-1.628-.914h-5.899c-.686 0-1.253.422-1.625.914-.375.496-.617 1.142-.617 1.748v5.531c0 .61.245 1.235.626 1.708.38.473.946.852 1.616.852h5.899zM120.891 17.744v-9.39h2.14v10.402c0 2.143-1.755 3.89-3.937 3.89h-6.863c-2.181 0-3.936-1.747-3.936-3.89V8.347l2.097.006v9.399c0 1.073.203 1.876.773 2.382.555.492 1.346.593 2.213.593h4.776c.872 0 1.612-.153 2.107-.694.486-.528.63-1.315.63-2.289z" stroke="currentColor"/><path d="M129.769 15.23c0 .147.008.286.033.425h-.033v-.425zM129.802 10.627a2.368 2.368 0 00-.033.424v-.424h.033z"/><path d="M129.769 15.23c0 .147.008.286.033.425h-.033v-.425zM129.802 10.627a2.368 2.368 0 00-.033.424v-.424h.033z"/><path d="M129.063 17.96h-.469v4.685h-2.091V8.322h10.133c2.715 0 3.961 1.664 3.961 3.138v3.517c0 1.43-1.502 2.983-3.961 2.983h-7.573zm-.469-2.305v.47h8.042c1.185 0 2.15-.947 2.15-2.135v-1.698a2.138 2.138 0 00-2.15-2.135h-8.042V15.655z" stroke="currentColor"/></g></svg><svg fill="none" viewBox="0 0 18 17" id="link" xmlns="http://www.w3.org/2000/svg"><path d="M14.276 7.661c-.442 0-.81.342-.81.753v6.342H1.603V3.746h6.834c.442 0 .81-.341.81-.752 0-.41-.368-.752-.81-.752H.81c-.443 0-.811.342-.811.752v12.497c0 .41.368.753.81.753h13.466c.442 0 .81-.342.81-.753V8.397c0-.41-.368-.736-.81-.736z" fill="currentColor"/><path d="M16.689 0h-4.845c-.442 0-.81.342-.81.752s.368.752.81.752h2.91L6.466 9.197a.715.715 0 000 1.06.827.827 0 00.571.223.827.827 0 00.571-.223l8.29-7.693v2.701c0 .41.368.753.81.753.442 0 .81-.342.81-.753V.752C17.5.342 17.132 0 16.69 0z" fill="currentColor"/></svg><svg fill="none" viewBox="0 0 10 13" id="link_angle" xmlns="http://www.w3.org/2000/svg"><path d="M.748 9.864l2.11 2.286 3.746-3.456 2.54-2.343-2.108-2.286L3.287 0 .747 2.343l3.749 4.065L.748 9.864z" fill="currentColor"/></svg><svg fill="none" viewBox="0 0 29 23" id="main_burger" xmlns="http://www.w3.org/2000/svg"><path fill="currentColor" d="M29 .215v4.849H0V.214zM29 8.7v4.848H0V8.7zM29 17.185v4.85H0v-4.85z"/></svg><svg fill="none" viewBox="0 0 24 24" id="play" xmlns="http://www.w3.org/2000/svg"><path d="M17.973 10.937c1.367.762 1.372 1.72 0 2.58L7.376 20.666c-1.331.71-2.236.29-2.33-1.247L5 4.46c-.03-1.416 1.136-1.817 2.248-1.138l10.724 7.615z" stroke="currentColor" stroke-width="2"/></svg><svg fill="none" viewBox="0 0 24 24" id="plus" xmlns="http://www.w3.org/2000/svg"><path d="M12 4.8v14.4m7.2-7.2H4.8" stroke="currentColor" stroke-width="2" stroke-linecap="round"/></svg><svg fill="none" viewBox="0 0 21 15" id="rows_mode" xmlns="http://www.w3.org/2000/svg"><rect width="15" height="3" rx="1" fill="currentColor"/><rect x="17" width="4" height="3" rx="1" fill="currentColor"/><rect y="6" width="15" height="3" rx="1" fill="currentColor"/><rect x="17" y="6" width="4" height="3" rx="1" fill="currentColor"/><rect y="12" width="15" height="3" rx="1" fill="currentColor"/><rect x="17" y="12" width="4" height="3" rx="1" fill="currentColor"/></svg><svg fill="none" viewBox="0 0 19 17" id="rutube" xmlns="http://www.w3.org/2000/svg"><g clip-path="url(#atclip0_1029_9445)" fill="currentColor"><path d="M10.01 10.28H2.981V7.4h7.03c.41 0 .695.074.839.203.143.13.232.37.232.72v1.034c0 .37-.09.61-.232.739-.144.13-.43.184-.84.184zm.482-5.595H0V17h2.981v-4.007h5.494L11.082 17h3.338l-2.874-4.025c1.06-.163 1.535-.5 1.927-1.053.393-.554.59-1.44.59-2.622v-.924c0-.701-.072-1.255-.197-1.68a2.823 2.823 0 00-.643-1.125 2.887 2.887 0 00-1.107-.684c-.428-.13-.964-.203-1.624-.203zM16.712 4.684c1.265 0 2.29-1.049 2.29-2.342 0-1.294-1.025-2.342-2.29-2.342-1.265 0-2.29 1.048-2.29 2.342 0 1.293 1.025 2.342 2.29 2.342z"/></g><defs><clipPath id="atclip0_1029_9445"><path fill="#fff" d="M0 0h19v17H0z"/></clipPath></defs></svg><svg fill="none" viewBox="0 0 16 16" id="search" xmlns="http://www.w3.org/2000/svg"><path fill-rule="evenodd" clip-rule="evenodd" d="M7.5 0a7.5 7.5 0 104.55 13.463l2.243 2.244a1 1 0 001.414-1.414l-2.244-2.244A7.5 7.5 0 007.5 0zM2 7.5a5.5 5.5 0 1111 0 5.5 5.5 0 01-11 0z" fill="currentColor"/></svg><svg fill="none" viewBox="0 0 16 11" id="select-arrow" xmlns="http://www.w3.org/2000/svg"><path d="M2 2l5.931 6L14 2" stroke="#015738" stroke-width="3"/></svg><svg fill="none" viewBox="0 0 16 11" id="select-arrow-white" xmlns="http://www.w3.org/2000/svg"><path d="M2 2l5.931 6L14 2" stroke="#fff" stroke-width="3"/></svg><svg fill="none" viewBox="0 0 24 24" id="slider_arrow" xmlns="http://www.w3.org/2000/svg"><path d="M10.667 19L4 12m0 0l6.667-7M4 12h16" stroke="currentColor" stroke-width="2" stroke-linecap="round" stroke-linejoin="round"/></svg><svg fill="none" viewBox="0 0 48 48" id="success" xmlns="http://www.w3.org/2000/svg"><path d="M0 0h48v48H0z"/><path d="M14 24l1.25 1.25M44 14L24 34l-1.25-1.25M4 24l10 10 20-20" stroke="currentColor" stroke-width="4" stroke-linecap="round" stroke-linejoin="round"/></svg><svg fill="none" viewBox="0 0 17 14" id="telegram" xmlns="http://www.w3.org/2000/svg"><path fill-rule="evenodd" clip-rule="evenodd" d="M1.306 6.313C5.553 4.424 8.384 3.18 9.801 2.577 13.846.86 14.687.561 15.235.551c.12-.002.39.028.564.173a.632.632 0 01.207.403c.02.115.044.379.025.585-.22 2.352-1.168 8.059-1.65 10.693-.205 1.114-.607 1.488-.996 1.524-.846.08-1.488-.57-2.308-1.119-1.282-.858-2.006-1.392-3.25-2.23-1.438-.967-.506-1.499.313-2.368.215-.227 3.942-3.689 4.014-4.003.01-.039.018-.185-.068-.262-.085-.078-.21-.051-.301-.03-.129.03-2.177 1.412-6.144 4.146-.582.408-1.108.606-1.58.596-.52-.012-1.52-.3-2.264-.547C.884 7.809.159 7.649.223 7.135c.032-.268.394-.542 1.083-.822z" fill="currentColor"/></svg><svg fill="none" viewBox="0 0 52 52" id="telegram_fill" xmlns="http://www.w3.org/2000/svg"><path d="M26 0C11.648 0 0 11.648 0 26s11.648 26 26 26 26-11.648 26-26S40.352 0 26 0zm12.064 17.68c-.39 4.108-2.08 14.092-2.938 18.694-.364 1.95-1.092 2.6-1.768 2.678-1.508.13-2.652-.988-4.108-1.95-2.288-1.508-3.588-2.444-5.798-3.9-2.574-1.69-.91-2.626.572-4.134.39-.39 7.046-6.448 7.176-6.994a.519.519 0 00-.13-.468c-.156-.13-.364-.078-.546-.052-.234.052-3.874 2.47-10.972 7.254-1.04.702-1.976 1.066-2.808 1.04-.936-.026-2.704-.52-4.03-.962-1.638-.52-2.912-.806-2.808-1.716.052-.468.702-.936 1.924-1.43 7.592-3.302 12.636-5.486 15.158-6.526 7.228-3.016 8.71-3.536 9.698-3.536.208 0 .702.052 1.014.312.26.208.338.494.364.702-.026.156.026.624 0 .988z" fill="currentColor"/></svg><svg fill="none" viewBox="0 0 16 17" id="tooltip" xmlns="http://www.w3.org/2000/svg"><path d="M8 11.833a.646.646 0 00.476-.192.643.643 0 00.19-.474V8.5a.643.643 0 00-.191-.475A.648.648 0 008 7.833a.641.641 0 00-.474.192.646.646 0 00-.192.475v2.667c0 .189.064.347.192.475a.643.643 0 00.474.191zM8 6.5a.646.646 0 00.476-.192.643.643 0 00.19-.475.648.648 0 00-.191-.474A.643.643 0 008 5.167a.643.643 0 00-.474.192.648.648 0 00-.192.474c0 .189.063.347.192.476A.64.64 0 008 6.5zm0 8.667a6.489 6.489 0 01-2.6-.526 6.742 6.742 0 01-2.117-1.424A6.717 6.717 0 011.86 11.1a6.506 6.506 0 01-.526-2.6c0-.922.175-1.788.526-2.6a6.748 6.748 0 011.425-2.117c.599-.6 1.304-1.074 2.116-1.424A6.494 6.494 0 018 1.833c.921 0 1.788.175 2.6.526.812.35 1.518.825 2.117 1.424.599.6 1.074 1.305 1.425 2.117s.526 1.678.525 2.6a6.536 6.536 0 01-.525 2.6 6.687 6.687 0 01-1.425 2.117 6.77 6.77 0 01-2.117 1.425c-.81.35-1.677.526-2.6.525zm0-1.334c1.49 0 2.75-.516 3.784-1.55 1.033-1.033 1.55-2.294 1.55-3.783 0-1.489-.517-2.75-1.55-3.783C10.75 3.683 9.489 3.167 8 3.167c-1.489 0-2.75.516-3.783 1.55C3.184 5.75 2.667 7.01 2.667 8.5c0 1.489.517 2.75 1.55 3.783C5.25 13.317 6.51 13.833 8 13.833z" fill="#04412B" opacity=".4"/></svg><svg fill="none" viewBox="0 0 20 13" id="vk" xmlns="http://www.w3.org/2000/svg"><path fill-rule="evenodd" clip-rule="evenodd" d="M.04.55C.196 7.984 3.99 12.45 10.642 12.45h.377V8.197c2.445.238 4.293 1.989 5.035 4.252h3.453c-.948-3.383-3.441-5.253-4.998-5.967C16.067 5.6 18.256 3.457 18.78.55H15.64c-.68 2.358-2.7 4.502-4.62 4.704V.551H7.882v8.241C5.937 8.316 3.48 6.005 3.37.551H.04z" fill="currentColor"/></svg><svg fill="none" viewBox="0 0 49 49" id="vk_fill" xmlns="http://www.w3.org/2000/svg"><path d="M32.029 0H16.996C3.266 0 0 3.266 0 16.971v15.033C0 45.732 3.241 49 16.971 49h15.033C45.732 49 49 45.759 49 32.029V16.996C49 3.266 45.759 0 32.029 0zm7.529 34.962h-3.575c-1.352 0-1.759-1.096-4.184-3.521-2.117-2.041-3.011-2.296-3.548-2.296-.74 0-.943.204-.943 1.225v3.215c0 .87-.282 1.379-2.553 1.379a13.946 13.946 0 01-10.898-6.534 28.484 28.484 0 01-5.64-11.841c0-.537.204-1.022 1.225-1.022h3.572c.92 0 1.25.41 1.61 1.353 1.735 5.105 4.694 9.545 5.895 9.545.46 0 .661-.203.661-1.352v-5.258c-.152-2.399-1.426-2.602-1.426-3.47a.881.881 0 01.917-.818h5.615c.767 0 1.022.383 1.022 1.301v7.096c0 .766.33 1.021.56 1.021.461 0 .817-.255 1.66-1.098a29.4 29.4 0 004.39-7.3 1.539 1.539 0 011.556-1.02h3.574c1.07 0 1.299.537 1.07 1.301a44.607 44.607 0 01-4.796 8.245c-.385.588-.54.894 0 1.582.355.537 1.607 1.583 2.45 2.578a15.89 15.89 0 013.01 4.184c.307.995-.205 1.505-1.224 1.505z" fill="currentColor"/></svg><svg fill="none" viewBox="0 0 49 49" id="whatsapp" xmlns="http://www.w3.org/2000/svg"><path d="M14.657 41.528l-9.771 2.444 2.442-8.55c-1.221-2.036-2.687-8.062-3.664-10.993C9.771-4.886 25.65 3.664 32.978 3.664c7.33 0 18.322 19.543 8.55 34.2-7.817 11.726-21.171 7.329-26.871 3.664zm21.609-10.851c-.506 1.323-2.982 2.586-4.064 2.706-1.081.12-1.078.843-7.234-1.383-6.096-2.286-9.962-8.118-10.28-8.54-.312-.36-2.475-3.066-2.475-5.833 0-2.767 1.522-4.147 2.094-4.69.572-.544 1.205-.722 1.586-.722.382 0 .826.06 1.143.06.38 0 .825-.18 1.332.962.506 1.142 1.719 3.91 1.84 4.21.123.301.254.602.065.962a7.597 7.597 0 01-.572.963c-.313.296-.635.72-.888.96-.313.297-.634.602-.255 1.144.38.542 1.587 2.406 3.364 3.909 2.284 1.925 4.252 2.525 4.823 2.826.57.3.951.241 1.269-.12.381-.36 1.524-1.63 1.903-2.222.382-.542.826-.481 1.333-.296.574.173 3.487 1.558 4.128 1.854.57.297 1.016.421 1.143.66.19.124.19 1.266-.255 2.59z" fill-rule="evenodd" fill="currentColor"/><path d="M24.894 0C11.672 0 .931 10.63.931 23.807a23.807 23.807 0 003.414 12.307L0 48.857l13.285-4.22c3.551 1.972 7.548 3 11.61 2.983 13.222 0 23.962-10.629 23.962-23.807C48.857 10.635 38.117 0 24.894 0zm.063 43.822a19.96 19.96 0 01-11.112-3.294l-7.761 2.486 2.545-7.459a19.867 19.867 0 01-3.848-11.748c0-11.064 9-20.015 20.113-20.015s20.176 8.951 20.237 20.015c0 11.064-9.063 20.015-20.174 20.015z" fill="currentColor"/></svg></svg>