<svg width="800" height="290" viewBox="0 0 800 290" fill="none" xmlns="http://www.w3.org/2000/svg">
<path d="M387.737 88.5192C414.407 81.8471 423.298 88.5185 432.188 99.6313C441.078 88.5186 449.969 81.8472 476.639 88.5192L476.638 108.515H498.868C505.54 135.185 498.867 144.076 487.754 152.966C498.867 161.856 505.539 170.746 498.867 197.417H476.639V219.645C449.969 226.317 441.079 219.645 432.189 208.532C423.299 219.645 414.408 226.318 387.738 219.646V197.42H368.172C361.5 170.75 368.172 161.86 379.285 152.97C368.172 144.079 361.501 135.189 368.173 108.518H387.737V88.5192Z" fill="#FBF9F0"/>
<path d="M387.737 88.5192L387.616 88.0341L387.237 88.1289V88.5192H387.737ZM432.188 99.6313L431.798 99.9436L432.188 100.432L432.578 99.9436L432.188 99.6313ZM476.639 88.5192L477.139 88.5192L477.139 88.1289L476.76 88.0341L476.639 88.5192ZM476.638 108.515L476.138 108.515L476.138 109.015H476.638V108.515ZM498.868 108.515L499.353 108.394L499.258 108.015L498.868 108.015V108.515ZM487.754 152.966L487.442 152.576L486.954 152.966L487.442 153.357L487.754 152.966ZM498.867 197.417V197.917L499.258 197.917L499.352 197.538L498.867 197.417ZM476.639 197.417V196.917H476.139V197.417H476.639ZM476.639 219.645L476.76 220.13L477.139 220.035V219.645H476.639ZM432.189 208.532L432.579 208.22L432.189 207.732L431.798 208.22L432.189 208.532ZM387.738 219.646H387.238V220.036L387.616 220.131L387.738 219.646ZM387.738 197.42H388.238V196.92H387.738V197.42ZM368.172 197.42L367.687 197.541L367.782 197.92H368.172V197.42ZM379.285 152.97L379.597 153.36L380.085 152.97L379.597 152.579L379.285 152.97ZM368.173 108.518V108.018H367.782L367.688 108.397L368.173 108.518ZM387.737 108.518V109.018H388.237V108.518H387.737ZM387.237 88.5192V91.0191H388.237V88.5192H387.237ZM387.237 96.0189V101.019H388.237V96.0189H387.237ZM387.237 106.019V108.518H388.237V106.019H387.237ZM387.737 108.018H385.291V109.018H387.737V108.018ZM380.4 108.018H375.509V109.018H380.4V108.018ZM370.618 108.018H368.173V109.018H370.618V108.018ZM367.688 108.397C367.429 109.431 367.19 110.44 366.971 111.422L367.947 111.64C368.164 110.666 368.401 109.666 368.658 108.64L367.688 108.397ZM365.806 117.508C365.463 119.706 365.235 121.759 365.114 123.684L366.112 123.747C366.23 121.856 366.455 119.833 366.794 117.662L365.806 117.508ZM365.118 129.925C365.281 132.173 365.628 134.216 366.14 136.096L367.104 135.833C366.611 134.021 366.274 132.042 366.115 129.853L365.118 129.925ZM368.488 141.916C369.513 143.772 370.737 145.451 372.119 147.023L372.87 146.362C371.528 144.837 370.349 143.216 369.363 141.432L368.488 141.916ZM376.58 151.378C377.352 152.044 378.151 152.703 378.973 153.36L379.597 152.579C378.783 151.928 377.994 151.278 377.234 150.621L376.58 151.378ZM378.973 152.579C378.151 153.236 377.352 153.895 376.58 154.561L377.234 155.318C377.994 154.662 378.783 154.011 379.597 153.36L378.973 152.579ZM372.119 158.916C370.737 160.488 369.513 162.167 368.488 164.023L369.363 164.507C370.348 162.723 371.528 161.102 372.87 159.577L372.119 158.916ZM366.139 169.843C365.628 171.722 365.281 173.766 365.117 176.013L366.115 176.086C366.274 173.897 366.611 171.918 367.104 170.106L366.139 169.843ZM365.113 182.255C365.234 184.18 365.462 186.233 365.805 188.43L366.793 188.276C366.454 186.106 366.23 184.083 366.111 182.192L365.113 182.255ZM366.97 194.516C367.189 195.499 367.428 196.507 367.687 197.541L368.657 197.299C368.4 196.272 368.163 195.272 367.946 194.298L366.97 194.516ZM368.172 197.92H370.618V196.92H368.172V197.92ZM375.509 197.92H380.401V196.92H375.509V197.92ZM385.292 197.92H387.738V196.92H385.292V197.92ZM387.238 197.42V200.198H388.238V197.42H387.238ZM387.238 205.755V211.311H388.238V205.755H387.238ZM387.238 216.867V219.646H388.238V216.867H387.238ZM387.616 220.131C388.651 220.389 389.659 220.628 390.641 220.848L390.859 219.872C389.885 219.654 388.886 219.417 387.859 219.161L387.616 220.131ZM396.727 222.012C398.925 222.356 400.978 222.584 402.903 222.704L402.966 221.706C401.075 221.588 399.052 221.363 396.882 221.024L396.727 222.012ZM409.145 222.7C411.392 222.537 413.436 222.19 415.315 221.678L415.052 220.713C413.24 221.207 411.261 221.544 409.072 221.703L409.145 222.7ZM421.135 219.329C422.991 218.304 424.67 217.081 426.242 215.698L425.581 214.947C424.056 216.289 422.436 217.469 420.652 218.454L421.135 219.329ZM430.597 211.237C431.264 210.465 431.922 209.666 432.579 208.844L431.798 208.22C431.147 209.034 430.497 209.823 429.84 210.583L430.597 211.237ZM431.798 208.844C432.455 209.666 433.114 210.465 433.78 211.237L434.537 210.583C433.881 209.823 433.23 209.034 432.579 208.22L431.798 208.844ZM438.135 215.698C439.707 217.081 441.386 218.304 443.242 219.329L443.726 218.454C441.942 217.469 440.321 216.289 438.796 214.947L438.135 215.698ZM449.062 221.678C450.941 222.189 452.985 222.536 455.232 222.7L455.305 221.702C453.116 221.543 451.137 221.206 449.325 220.713L449.062 221.678ZM461.474 222.704C463.399 222.583 465.452 222.355 467.649 222.012L467.495 221.024C465.325 221.363 463.302 221.587 461.411 221.706L461.474 222.704ZM473.735 220.847C474.718 220.628 475.726 220.389 476.76 220.13L476.518 219.16C475.491 219.417 474.491 219.654 473.517 219.871L473.735 220.847ZM477.139 219.645V216.866H476.139V219.645H477.139ZM477.139 211.309V205.752L476.139 205.752V211.309H477.139ZM477.139 200.195V197.417H476.139V200.195H477.139ZM476.639 197.917H479.417V196.917H476.639V197.917ZM484.975 197.917H490.532V196.917H484.975V197.917ZM496.089 197.917H498.867V196.917H496.089V197.917ZM499.352 197.538C499.611 196.504 499.85 195.495 500.069 194.513L499.093 194.295C498.876 195.269 498.639 196.269 498.382 197.295L499.352 197.538ZM501.234 188.427C501.577 186.23 501.805 184.176 501.926 182.251L500.928 182.189C500.81 184.08 500.585 186.102 500.246 188.273L501.234 188.427ZM501.922 176.01C501.759 173.762 501.412 171.719 500.9 169.84L499.935 170.102C500.428 171.914 500.766 173.894 500.925 176.082L501.922 176.01ZM498.552 164.02C497.526 162.163 496.303 160.484 494.92 158.913L494.169 159.573C495.512 161.099 496.691 162.719 497.676 164.503L498.552 164.02ZM490.459 154.558C489.687 153.891 488.888 153.233 488.067 152.576L487.442 153.357C488.256 154.008 489.045 154.658 489.806 155.315L490.459 154.558ZM488.067 153.357C488.888 152.699 489.687 152.041 490.459 151.375L489.806 150.618C489.045 151.274 488.256 151.924 487.442 152.576L488.067 153.357ZM494.92 147.019C496.303 145.448 497.526 143.769 498.552 141.912L497.676 141.429C496.691 143.213 495.512 144.833 494.169 146.359L494.92 147.019ZM500.9 136.092C501.412 134.213 501.759 132.17 501.922 129.922L500.925 129.85C500.766 132.038 500.429 134.018 499.936 135.83L500.9 136.092ZM501.927 123.681C501.806 121.756 501.578 119.702 501.235 117.505L500.247 117.659C500.586 119.83 500.81 121.852 500.929 123.743L501.927 123.681ZM500.07 111.419C499.851 110.436 499.612 109.428 499.353 108.394L498.383 108.636C498.64 109.663 498.877 110.663 499.094 111.637L500.07 111.419ZM498.868 108.015H496.089V109.015H498.868V108.015ZM490.532 108.015H484.974V109.015H490.532V108.015ZM479.417 108.015H476.638V109.015H479.417V108.015ZM477.138 108.515L477.138 106.016L476.138 106.016L476.138 108.515L477.138 108.515ZM477.139 101.017L477.139 96.0176L476.139 96.0176L476.139 101.017L477.139 101.017ZM477.139 91.0187L477.139 88.5192L476.139 88.5192L476.139 91.0187L477.139 91.0187ZM476.76 88.0341C475.726 87.7754 474.718 87.5365 473.735 87.3171L473.517 88.2931C474.491 88.5106 475.491 88.7474 476.518 89.0042L476.76 88.0341ZM467.649 86.1524C465.452 85.8091 463.399 85.5809 461.474 85.4601L461.411 86.4582C463.302 86.5768 465.324 86.8014 467.495 87.1404L467.649 86.1524ZM455.232 85.4643C452.985 85.6276 450.941 85.9745 449.062 86.486L449.325 87.4509C451.137 86.9577 453.116 86.6207 455.305 86.4616L455.232 85.4643ZM443.242 88.8344C441.385 89.8596 439.707 91.083 438.135 92.4657L438.795 93.2165C440.321 91.8743 441.941 90.695 443.725 89.7098L443.242 88.8344ZM433.779 96.9267C433.113 97.6987 432.455 98.4974 431.798 99.3189L432.578 99.9436C433.23 99.1294 433.88 98.3406 434.536 97.5801L433.779 96.9267ZM432.578 99.3189C431.921 98.4974 431.263 97.6987 430.597 96.9267L429.84 97.5801C430.496 98.3406 431.146 99.1294 431.798 99.9436L432.578 99.3189ZM426.241 92.4657C424.669 91.0829 422.991 89.8595 421.134 88.8344L420.651 89.7098C422.435 90.695 424.055 91.8742 425.581 93.2165L426.241 92.4657ZM415.314 86.486C413.435 85.9745 411.391 85.6276 409.144 85.4642L409.071 86.4616C411.26 86.6207 413.239 86.9577 415.051 87.4509L415.314 86.486ZM402.902 85.4601C400.977 85.5809 398.924 85.8091 396.727 86.1523L396.881 87.1404C399.051 86.8014 401.074 86.5768 402.965 86.4582L402.902 85.4601ZM390.641 87.3171C389.658 87.5365 388.65 87.7754 387.616 88.0341L387.858 89.0042C388.885 88.7474 389.885 88.5106 390.859 88.2931L390.641 87.3171Z" fill="#04412B"/>
<path d="M290.924 114.427C317.594 107.755 326.484 114.427 335.374 125.54C344.264 114.427 353.154 107.756 379.824 114.427V134.421H402.054C408.726 161.092 402.054 169.982 390.941 178.872C402.054 187.762 408.725 196.652 402.053 223.323H379.826V245.551C353.156 252.223 344.266 245.551 335.376 234.438C326.486 245.551 317.595 252.223 290.925 245.55V223.326H271.361C264.689 196.656 271.361 187.766 282.474 178.876C271.361 169.986 264.689 161.096 271.361 134.425H290.924V114.427Z" fill="#FBF9F0"/>
<path d="M290.924 114.427L290.802 113.942L290.424 114.037L290.424 114.427H290.924ZM335.374 125.54L334.983 125.853L335.374 126.341L335.764 125.853L335.374 125.54ZM379.824 114.427H380.324V114.037L379.946 113.942L379.824 114.427ZM379.824 134.421H379.324V134.921H379.824V134.421ZM402.054 134.421L402.539 134.3L402.444 133.921H402.054V134.421ZM390.941 178.872L390.629 178.481L390.141 178.872L390.629 179.262L390.941 178.872ZM402.053 223.323V223.823L402.443 223.823L402.538 223.444L402.053 223.323ZM379.826 223.323V222.823H379.326V223.323H379.826ZM379.826 245.551L379.948 246.036L380.326 245.941V245.551H379.826ZM335.376 234.438L335.766 234.126L335.376 233.638L334.986 234.126L335.376 234.438ZM290.925 245.55H290.425L290.425 245.941L290.804 246.036L290.925 245.55ZM290.925 223.326H291.425V222.826H290.925V223.326ZM271.361 223.326L270.876 223.448L270.97 223.826H271.361V223.326ZM282.474 178.876L282.786 179.266L283.274 178.876L282.786 178.485L282.474 178.876ZM271.361 134.425V133.925L270.97 133.925L270.876 134.304L271.361 134.425ZM290.924 134.425V134.925H291.424V134.425H290.924ZM290.424 114.427V116.927H291.424V114.427H290.424ZM290.424 121.927V126.926H291.424V121.927H290.424ZM290.424 131.926V134.425H291.424V131.926H290.424ZM290.924 133.925H288.478V134.925H290.924V133.925ZM283.588 133.925H278.697V134.925H283.588V133.925ZM273.806 133.925L271.361 133.925V134.925L273.806 134.925V133.925ZM270.876 134.304C270.617 135.338 270.378 136.346 270.159 137.329L271.135 137.547C271.352 136.573 271.589 135.573 271.846 134.547L270.876 134.304ZM268.994 143.415C268.651 145.612 268.423 147.666 268.302 149.591L269.3 149.653C269.419 147.762 269.643 145.74 269.982 143.569L268.994 143.415ZM268.306 155.832C268.469 158.08 268.816 160.123 269.328 162.002L270.293 161.74C269.8 159.928 269.462 157.948 269.303 155.76L268.306 155.832ZM271.676 167.822C272.702 169.679 273.925 171.358 275.308 172.929L276.059 172.269C274.716 170.743 273.537 169.123 272.552 167.339L271.676 167.822ZM279.769 177.284C280.541 177.951 281.34 178.609 282.161 179.266L282.786 178.485C281.972 177.834 281.183 177.184 280.422 176.527L279.769 177.284ZM282.161 178.485C281.34 179.143 280.541 179.801 279.769 180.467L280.422 181.224C281.183 180.568 281.972 179.918 282.786 179.266L282.161 178.485ZM275.308 184.823C273.925 186.394 272.702 188.073 271.676 189.929L272.552 190.413C273.537 188.629 274.716 187.009 276.059 185.483L275.308 184.823ZM269.328 195.749C268.816 197.629 268.469 199.672 268.306 201.92L269.303 201.992C269.463 199.803 269.8 197.824 270.293 196.012L269.328 195.749ZM268.302 208.161C268.423 210.086 268.651 212.139 268.994 214.337L269.982 214.182C269.643 212.012 269.419 209.989 269.3 208.098L268.302 208.161ZM270.159 220.422C270.378 221.405 270.617 222.413 270.876 223.448L271.846 223.205C271.589 222.178 271.352 221.179 271.135 220.205L270.159 220.422ZM271.361 223.826H273.806V222.826H271.361V223.826ZM278.697 223.826H283.588V222.826H278.697V223.826ZM288.479 223.826H290.925V222.826H288.479V223.826ZM290.425 223.326V226.104H291.425V223.326H290.425ZM290.425 231.66V237.216H291.425V231.66H290.425ZM290.425 242.772L290.425 245.55H291.425V242.772H290.425ZM290.804 246.036C291.838 246.294 292.846 246.533 293.829 246.753L294.047 245.777C293.073 245.559 292.073 245.322 291.046 245.065L290.804 246.036ZM299.915 247.917C302.112 248.261 304.165 248.489 306.09 248.61L306.153 247.612C304.262 247.493 302.239 247.268 300.069 246.929L299.915 247.917ZM312.332 248.605C314.579 248.442 316.623 248.095 318.502 247.584L318.239 246.619C316.427 247.112 314.448 247.449 312.259 247.608L312.332 248.605ZM324.322 245.235C326.179 244.21 327.857 242.987 329.429 241.604L328.769 240.853C327.243 242.195 325.623 243.375 323.839 244.36L324.322 245.235ZM333.785 237.143C334.451 236.371 335.109 235.572 335.766 234.751L334.986 234.126C334.334 234.94 333.684 235.729 333.028 236.49L333.785 237.143ZM334.986 234.751C335.643 235.572 336.301 236.371 336.967 237.143L337.724 236.49C337.068 235.729 336.418 234.94 335.766 234.126L334.986 234.751ZM341.323 241.604C342.894 242.987 344.573 244.21 346.429 245.235L346.913 244.36C345.129 243.375 343.509 242.195 341.983 240.853L341.323 241.604ZM352.25 247.584C354.129 248.096 356.172 248.443 358.42 248.606L358.492 247.609C356.304 247.449 354.324 247.112 352.512 246.619L352.25 247.584ZM364.661 248.61C366.586 248.489 368.639 248.261 370.837 247.918L370.682 246.93C368.512 247.269 366.489 247.493 364.598 247.612L364.661 248.61ZM376.922 246.753C377.905 246.534 378.913 246.295 379.948 246.036L379.705 245.066C378.678 245.323 377.679 245.56 376.705 245.777L376.922 246.753ZM380.326 245.551V242.773H379.326V245.551H380.326ZM380.326 237.216V231.658H379.326V237.216H380.326ZM380.326 226.101V223.323H379.326V226.101H380.326ZM379.826 223.823H382.605V222.823H379.826V223.823ZM388.161 223.823H393.718V222.823H388.161V223.823ZM399.275 223.823L402.053 223.823V222.823H399.275L399.275 223.823ZM402.538 223.444C402.797 222.41 403.036 221.402 403.255 220.419L402.279 220.201C402.062 221.175 401.825 222.175 401.568 223.201L402.538 223.444ZM404.42 214.333C404.763 212.136 404.991 210.082 405.112 208.157L404.114 208.095C403.996 209.986 403.771 212.008 403.432 214.179L404.42 214.333ZM405.108 201.916C404.945 199.668 404.598 197.625 404.086 195.746L403.121 196.008C403.615 197.82 403.952 199.8 404.111 201.988L405.108 201.916ZM401.738 189.925C400.713 188.069 399.489 186.39 398.107 184.819L397.356 185.479C398.698 187.005 399.877 188.625 400.863 190.409L401.738 189.925ZM393.646 180.463C392.874 179.797 392.075 179.138 391.253 178.481L390.629 179.262C391.443 179.913 392.232 180.564 392.992 181.22L393.646 180.463ZM391.253 179.262C392.075 178.605 392.874 177.947 393.646 177.28L392.992 176.523C392.232 177.18 391.443 177.83 390.629 178.481L391.253 179.262ZM398.107 172.925C399.489 171.353 400.713 169.675 401.738 167.818L400.863 167.335C399.878 169.119 398.698 170.739 397.356 172.264L398.107 172.925ZM404.087 161.998C404.598 160.119 404.945 158.075 405.109 155.828L404.111 155.755C403.952 157.944 403.615 159.923 403.122 161.735L404.087 161.998ZM405.113 149.587C404.992 147.662 404.764 145.608 404.421 143.411L403.433 143.565C403.772 145.736 403.996 147.758 404.115 149.649L405.113 149.587ZM403.256 137.325C403.036 136.342 402.798 135.334 402.539 134.3L401.569 134.543C401.826 135.569 402.062 136.569 402.28 137.543L403.256 137.325ZM402.054 133.921H399.275V134.921H402.054V133.921ZM393.718 133.921H388.16V134.921H393.718V133.921ZM382.603 133.921H379.824V134.921H382.603V133.921ZM380.324 134.421V131.922H379.324V134.421H380.324ZM380.324 126.924V121.925L379.324 121.925V126.924L380.324 126.924ZM380.324 116.927V114.427L379.324 114.427V116.927L380.324 116.927ZM379.946 113.942C378.911 113.684 377.903 113.445 376.92 113.225L376.702 114.201C377.677 114.419 378.676 114.656 379.703 114.913L379.946 113.942ZM370.835 112.061C368.637 111.718 366.584 111.489 364.659 111.369L364.596 112.367C366.487 112.485 368.51 112.71 370.68 113.049L370.835 112.061ZM358.418 111.373C356.17 111.536 354.127 111.883 352.247 112.395L352.51 113.36C354.322 112.866 356.301 112.529 358.49 112.37L358.418 111.373ZM346.427 114.743C344.571 115.768 342.892 116.992 341.321 118.375L341.981 119.125C343.507 117.783 345.127 116.604 346.911 115.619L346.427 114.743ZM336.965 122.836C336.299 123.608 335.641 124.406 334.983 125.228L335.764 125.853C336.416 125.038 337.066 124.25 337.722 123.489L336.965 122.836ZM335.764 125.228C335.107 124.406 334.449 123.608 333.782 122.836L333.025 123.489C333.682 124.25 334.332 125.038 334.983 125.853L335.764 125.228ZM329.427 118.375C327.856 116.992 326.177 115.768 324.32 114.743L323.837 115.619C325.621 116.604 327.241 117.783 328.767 119.125L329.427 118.375ZM318.5 112.395C316.621 111.883 314.578 111.536 312.33 111.373L312.258 112.37C314.446 112.529 316.426 112.866 318.238 113.359L318.5 112.395ZM306.089 111.369C304.164 111.489 302.111 111.717 299.913 112.061L300.067 113.049C302.238 112.71 304.261 112.485 306.151 112.367L306.089 111.369ZM293.827 113.225C292.845 113.445 291.837 113.684 290.802 113.942L291.045 114.913C292.071 114.656 293.071 114.419 294.045 114.201L293.827 113.225Z" fill="#04412B"/>
<path d="M181.841 88.5188C208.511 81.8467 217.401 88.5189 226.291 99.6315C235.181 88.5187 244.072 81.8473 270.742 88.5195L270.742 108.515H292.971C299.643 135.186 292.971 144.076 281.859 152.966C292.971 161.856 299.643 170.746 292.971 197.416H270.744V219.646C244.074 226.318 235.183 219.646 226.293 208.534C217.403 219.646 208.513 226.318 181.842 219.646L181.842 197.421L162.277 197.42C155.605 170.75 162.277 161.86 173.39 152.97C162.277 144.08 155.605 135.19 162.277 108.519H181.841V88.5188Z" fill="#FBF9F0"/>
<path d="M181.841 88.5188L181.72 88.0337L181.341 88.1284V88.5188H181.841ZM226.291 99.6315L225.901 99.9439L226.291 100.432L226.682 99.9439L226.291 99.6315ZM270.742 88.5195L271.242 88.5195L271.242 88.1291L270.864 88.0344L270.742 88.5195ZM270.742 108.515L270.242 108.515L270.242 109.015H270.742V108.515ZM292.971 108.515L293.456 108.394L293.362 108.015L292.971 108.015V108.515ZM281.859 152.966L281.546 152.575L281.058 152.966L281.546 153.356L281.859 152.966ZM292.971 197.416V197.916H293.362L293.456 197.537L292.971 197.416ZM270.744 197.416V196.916H270.244V197.416H270.744ZM270.744 219.646L270.866 220.131L271.244 220.036V219.646H270.744ZM226.293 208.534L226.684 208.221L226.293 207.733L225.903 208.221L226.293 208.534ZM181.842 219.646L181.342 219.646L181.342 220.036L181.721 220.131L181.842 219.646ZM181.842 197.421L182.342 197.421L182.342 196.921L181.842 196.921L181.842 197.421ZM162.277 197.42L161.792 197.542L161.887 197.92L162.277 197.92L162.277 197.42ZM173.39 152.97L173.702 153.36L174.19 152.97L173.702 152.579L173.39 152.97ZM162.277 108.519V108.019H161.887L161.792 108.398L162.277 108.519ZM181.841 108.519V109.019H182.341V108.519H181.841ZM181.341 88.5188V91.0188H182.341V88.5188H181.341ZM181.341 96.019V101.019H182.341V96.019H181.341ZM181.341 106.019V108.519H182.341V106.019H181.341ZM181.841 108.019H179.396V109.019H181.841V108.019ZM174.504 108.019H169.613V109.019H174.504V108.019ZM164.722 108.019H162.277V109.019H164.722V108.019ZM161.792 108.398C161.533 109.432 161.294 110.44 161.075 111.423L162.051 111.641C162.268 110.667 162.505 109.667 162.762 108.641L161.792 108.398ZM159.91 117.509C159.567 119.706 159.339 121.76 159.218 123.685L160.216 123.747C160.335 121.856 160.559 119.834 160.898 117.663L159.91 117.509ZM159.222 129.926C159.385 132.174 159.732 134.217 160.244 136.096L161.209 135.834C160.716 134.022 160.378 132.042 160.219 129.854L159.222 129.926ZM162.592 141.916C163.618 143.773 164.841 145.451 166.224 147.023L166.975 146.363C165.632 144.837 164.453 143.217 163.468 141.433L162.592 141.916ZM170.685 151.378C171.457 152.045 172.256 152.703 173.077 153.36L173.702 152.579C172.888 151.928 172.099 151.278 171.338 150.621L170.685 151.378ZM173.077 152.579C172.256 153.237 171.457 153.895 170.685 154.561L171.338 155.318C172.099 154.662 172.888 154.012 173.702 153.36L173.077 152.579ZM166.224 158.916C164.841 160.488 163.618 162.167 162.593 164.023L163.468 164.507C164.453 162.723 165.633 161.103 166.975 159.577L166.224 158.916ZM160.244 169.843C159.732 171.723 159.386 173.766 159.222 176.014L160.219 176.086C160.379 173.897 160.716 171.918 161.209 170.106L160.244 169.843ZM159.218 182.255C159.339 184.18 159.567 186.233 159.91 188.431L160.898 188.276C160.559 186.106 160.335 184.083 160.216 182.192L159.218 182.255ZM161.075 194.516C161.294 195.499 161.533 196.507 161.792 197.542L162.762 197.299C162.505 196.272 162.268 195.273 162.051 194.298L161.075 194.516ZM162.277 197.92L164.722 197.92L164.722 196.92L162.277 196.92L162.277 197.92ZM169.614 197.92L174.505 197.921L174.505 196.921L169.614 196.92L169.614 197.92ZM179.396 197.921L181.842 197.921L181.842 196.921L179.396 196.921L179.396 197.921ZM181.342 197.421L181.342 200.199L182.342 200.199L182.342 197.421L181.342 197.421ZM181.342 205.755L181.342 211.311L182.342 211.311L182.342 205.755L181.342 205.755ZM181.342 216.868L181.342 219.646L182.342 219.646L182.342 216.868L181.342 216.868ZM181.721 220.131C182.755 220.39 183.763 220.628 184.746 220.848L184.964 219.872C183.99 219.654 182.99 219.417 181.964 219.161L181.721 220.131ZM190.832 222.013C193.029 222.356 195.083 222.584 197.008 222.705L197.07 221.707C195.179 221.588 193.157 221.364 190.986 221.025L190.832 222.013ZM203.249 222.701C205.497 222.537 207.54 222.19 209.419 221.679L209.157 220.714C207.345 221.207 205.365 221.544 203.177 221.703L203.249 222.701ZM215.24 219.33C217.096 218.305 218.775 217.082 220.347 215.699L219.686 214.948C218.16 216.291 216.54 217.47 214.756 218.455L215.24 219.33ZM224.702 211.238C225.368 210.466 226.027 209.667 226.684 208.846L225.903 208.221C225.252 209.035 224.601 209.824 223.945 210.585L224.702 211.238ZM225.903 208.846C226.56 209.667 227.219 210.466 227.885 211.238L228.642 210.585C227.985 209.824 227.335 209.035 226.684 208.221L225.903 208.846ZM232.24 215.699C233.812 217.082 235.491 218.305 237.347 219.33L237.831 218.455C236.047 217.47 234.426 216.291 232.901 214.948L232.24 215.699ZM243.167 221.679C245.047 222.19 247.09 222.537 249.338 222.701L249.41 221.703C247.222 221.544 245.242 221.207 243.43 220.714L243.167 221.679ZM255.579 222.705C257.504 222.584 259.557 222.356 261.755 222.013L261.6 221.025C259.43 221.364 257.407 221.588 255.516 221.707L255.579 222.705ZM267.841 220.848C268.823 220.628 269.831 220.39 270.866 220.131L270.623 219.161C269.597 219.417 268.597 219.654 267.623 219.872L267.841 220.848ZM271.244 219.646V216.867H270.244V219.646H271.244ZM271.244 211.31V205.752H270.244V211.31H271.244ZM271.244 200.195V197.416H270.244V200.195L271.244 200.195ZM270.744 197.916H273.523V196.916H270.744V197.916ZM279.08 197.916H284.636V196.916H279.08V197.916ZM290.193 197.916H292.971V196.916H290.193V197.916ZM293.456 197.537C293.715 196.503 293.954 195.495 294.173 194.512L293.197 194.294C292.98 195.268 292.743 196.268 292.486 197.295L293.456 197.537ZM295.338 188.426C295.681 186.229 295.91 184.176 296.03 182.251L295.032 182.188C294.914 184.079 294.689 186.102 294.35 188.272L295.338 188.426ZM296.026 176.009C295.863 173.762 295.516 171.718 295.004 169.839L294.039 170.102C294.533 171.914 294.87 173.893 295.029 176.082L296.026 176.009ZM292.656 164.019C291.63 162.163 290.407 160.484 289.024 158.912L288.273 159.573C289.616 161.098 290.795 162.719 291.78 164.503L292.656 164.019ZM284.563 154.557C283.791 153.891 282.992 153.232 282.171 152.575L281.546 153.356C282.36 154.007 283.149 154.658 283.91 155.314L284.563 154.557ZM282.171 153.356C282.992 152.699 283.791 152.041 284.563 151.374L283.91 150.617C283.149 151.274 282.36 151.924 281.546 152.575L282.171 153.356ZM289.024 147.019C290.407 145.447 291.63 143.769 292.656 141.912L291.78 141.429C290.795 143.213 289.616 144.833 288.273 146.358L289.024 147.019ZM295.004 136.092C295.516 134.213 295.863 132.169 296.026 129.922L295.029 129.849C294.87 132.038 294.533 134.017 294.039 135.829L295.004 136.092ZM296.03 123.681C295.91 121.756 295.681 119.702 295.338 117.505L294.35 117.659C294.689 119.83 294.914 121.852 295.032 123.743L296.03 123.681ZM294.173 111.419C293.954 110.436 293.715 109.428 293.456 108.394L292.486 108.637C292.743 109.663 292.98 110.663 293.197 111.637L294.173 111.419ZM292.971 108.015H290.193V109.015H292.971V108.015ZM284.635 108.015H279.078V109.015H284.635V108.015ZM273.52 108.015H270.742V109.015H273.52V108.015ZM271.242 108.515L271.242 106.016L270.242 106.016L270.242 108.515L271.242 108.515ZM271.242 101.017L271.242 96.0179L270.242 96.0179L270.242 101.017L271.242 101.017ZM271.242 91.0189L271.242 88.5195L270.242 88.5194L270.242 91.0189L271.242 91.0189ZM270.864 88.0344C269.829 87.7756 268.821 87.5368 267.839 87.3174L267.621 88.2933C268.595 88.5108 269.595 88.7477 270.621 89.0045L270.864 88.0344ZM261.753 86.1526C259.555 85.8094 257.502 85.5812 255.577 85.4604L255.514 86.4584C257.405 86.5771 259.428 86.8016 261.598 87.1406L261.753 86.1526ZM249.336 85.4645C247.088 85.6278 245.045 85.9747 243.165 86.4862L243.428 87.4511C245.24 86.9579 247.219 86.6209 249.408 86.4618L249.336 85.4645ZM237.345 88.8346C235.489 89.8597 233.81 91.0832 232.238 92.4659L232.899 93.2167C234.424 91.8745 236.045 90.6952 237.829 89.71L237.345 88.8346ZM227.883 96.9269C227.216 97.6989 226.558 98.4977 225.901 99.3192L226.682 99.9439C227.333 99.1297 227.983 98.3408 228.64 97.5804L227.883 96.9269ZM226.682 99.3192C226.025 98.4977 225.366 97.6989 224.7 96.927L223.943 97.5804C224.599 98.3408 225.25 99.1297 225.901 99.9439L226.682 99.3192ZM220.345 92.4659C218.773 91.0832 217.094 89.8597 215.238 88.8345L214.754 89.7099C216.538 90.6951 218.159 91.8744 219.684 93.2167L220.345 92.4659ZM209.418 86.4859C207.539 85.9744 205.495 85.6274 203.248 85.464L203.175 86.4614C205.364 86.6205 207.343 86.9576 209.155 87.4508L209.418 86.4859ZM197.006 85.4598C195.081 85.5806 193.028 85.8088 190.831 86.152L190.985 87.14C193.155 86.801 195.178 86.5765 197.069 86.4578L197.006 85.4598ZM184.745 87.3167C183.762 87.5361 182.754 87.7749 181.72 88.0337L181.962 89.0038C182.989 88.747 183.989 88.5101 184.963 88.2926L184.745 87.3167Z" fill="#04412B"/>
<path d="M86.3915 45.5684C113.062 38.8963 121.952 45.5689 130.843 56.6818C139.733 45.569 148.623 38.897 175.293 45.5691L175.292 65.5635L197.523 65.5628C204.195 92.2331 197.522 101.124 186.409 110.014C197.522 118.904 204.194 127.794 197.522 154.464H175.294V176.694C148.624 183.366 139.733 176.694 130.843 165.581C121.953 176.694 113.063 183.365 86.3921 176.693L86.3915 154.465L66.8252 154.466C60.153 127.796 66.8257 118.905 77.9386 110.015C66.8257 101.125 60.153 92.2345 66.8252 65.5641H86.3908L86.3915 45.5684Z" fill="#FBF9F0"/>
<path d="M86.3915 45.5684L86.2701 45.0833L85.8915 45.178L85.8915 45.5683L86.3915 45.5684ZM130.843 56.6818L130.452 56.9942L130.843 57.4822L131.233 56.9942L130.843 56.6818ZM175.293 45.5691L175.793 45.5691L175.793 45.1787L175.414 45.084L175.293 45.5691ZM175.292 65.5635L174.792 65.5634L174.792 66.0635L175.292 66.0635L175.292 65.5635ZM197.523 65.5628L198.008 65.4414L197.913 65.0627L197.523 65.0628L197.523 65.5628ZM186.409 110.014L186.097 109.623L185.609 110.014L186.097 110.404L186.409 110.014ZM197.522 154.464V154.964H197.912L198.007 154.585L197.522 154.464ZM175.294 154.464V153.964H174.794V154.464H175.294ZM175.294 176.694L175.415 177.179L175.794 177.084V176.694H175.294ZM130.843 165.581L131.234 165.269L130.843 164.781L130.453 165.269L130.843 165.581ZM86.3921 176.693L85.8921 176.693L85.8922 177.083L86.2708 177.178L86.3921 176.693ZM86.3915 154.465L86.8915 154.465L86.8914 153.965L86.3914 153.965L86.3915 154.465ZM66.8252 154.466L66.3401 154.588L66.4348 154.966L66.8252 154.966L66.8252 154.466ZM77.9386 110.015L78.251 110.406L78.739 110.015L78.251 109.625L77.9386 110.015ZM66.8252 65.5641V65.0641H66.4348L66.3401 65.4428L66.8252 65.5641ZM86.3908 65.5641V66.0641H86.8907L86.8908 65.5642L86.3908 65.5641ZM86.5128 46.0534C99.8067 42.7277 108.588 42.75 115.126 44.9301C121.654 47.1067 126.025 51.4596 130.452 56.9942L131.233 56.3695C126.77 50.7911 122.25 46.2513 115.443 43.9814C108.645 41.7149 99.6467 41.7369 86.2701 45.0833L86.5128 46.0534ZM131.233 56.9942C135.661 51.4596 140.031 47.1069 146.558 44.9304C153.096 42.7506 161.878 42.7284 175.172 46.0541L175.414 45.084C162.038 41.7376 153.039 41.7154 146.242 43.9818C139.435 46.2515 134.915 50.7911 130.452 56.3695L131.233 56.9942ZM174.793 45.569L174.792 65.5634L175.792 65.5635L175.793 45.5691L174.793 45.569ZM175.292 66.0635L197.523 66.0628L197.523 65.0628L175.292 65.0635L175.292 66.0635ZM197.038 65.6841C200.363 78.9779 200.341 87.7597 198.161 94.2977C195.984 100.826 191.631 105.196 186.097 109.623L186.721 110.404C192.3 105.942 196.84 101.421 199.11 94.614C201.376 87.8167 201.354 78.818 198.008 65.4414L197.038 65.6841ZM186.097 110.404C191.631 114.832 195.984 119.202 198.161 125.73C200.34 132.267 200.363 141.049 197.037 154.343L198.007 154.585C201.353 141.209 201.376 132.21 199.109 125.413C196.84 118.606 192.3 114.086 186.721 109.623L186.097 110.404ZM197.522 153.964H175.294V154.964H197.522V153.964ZM174.794 154.464V176.694H175.794V154.464H174.794ZM175.172 176.209C161.879 179.534 153.097 179.512 146.559 177.332C140.031 175.156 135.661 170.803 131.234 165.269L130.453 165.893C134.915 171.472 139.435 176.011 146.243 178.281C153.04 180.547 162.039 180.525 175.415 177.179L175.172 176.209ZM130.453 165.269C126.025 170.803 121.655 175.156 115.127 177.332C108.589 179.512 99.8073 179.534 86.5135 176.208L86.2708 177.178C99.6473 180.525 108.646 180.547 115.443 178.281C122.251 176.011 126.771 171.472 131.234 165.893L130.453 165.269ZM86.8921 176.693L86.8915 154.465L85.8915 154.466L85.8921 176.693L86.8921 176.693ZM86.3914 153.965L66.8251 153.966L66.8252 154.966L86.3915 154.965L86.3914 153.965ZM67.3102 154.345C63.9845 141.051 64.0068 132.269 66.1868 125.731C68.3635 119.203 72.7164 114.833 78.251 110.406L77.6263 109.625C72.0479 114.087 67.5081 118.607 65.2382 125.415C62.9717 132.212 62.9937 141.211 66.3401 154.588L67.3102 154.345ZM78.251 109.625C72.7164 105.197 68.3635 100.827 66.1868 94.2991C64.0068 87.7611 63.9845 78.9793 67.3102 65.6855L66.3401 65.4428C62.9937 78.8193 62.9717 87.818 65.2382 94.6154C67.5081 101.423 72.0479 105.943 77.6263 110.406L78.251 109.625ZM66.8252 66.0641H86.3908V65.0641H66.8252V66.0641ZM86.8908 65.5642L86.8915 45.5684L85.8915 45.5683L85.8908 65.5641L86.8908 65.5642Z" fill="#04412B"/>
</svg>
