<svg width="143" height="143" viewBox="0 0 143 143" fill="none" xmlns="http://www.w3.org/2000/svg">
<path d="M5.43213 59.7014L5.00334 59.4442L4.80258 59.779L5.07856 60.055L5.43213 59.7014ZM38.312 39.9729L38.2568 40.4698L38.878 40.5389L38.8089 39.9177L38.312 39.9729ZM58.0395 7.09399L58.3931 6.74045L58.1171 6.46443L57.7824 6.6652L58.0395 7.09399ZM69.8726 18.927L69.519 19.2806L69.8726 19.6341L70.2261 19.2806L69.8726 18.927ZM83.0268 5.7727L83.284 5.34391L82.9493 5.14314L82.6733 5.41916L83.0268 5.7727ZM102.754 38.6526L102.257 38.5974L102.188 39.2185L102.81 39.1495L102.754 38.6526ZM135.634 58.3801L135.988 58.7337L136.264 58.4577L136.063 58.1229L135.634 58.3801ZM122.481 71.5334L122.127 71.1799L121.774 71.5334L122.127 71.887L122.481 71.5334ZM135.634 84.6868L136.063 84.9439L136.264 84.6092L135.988 84.3332L135.634 84.6868ZM102.754 104.414L102.81 103.917L102.188 103.848L102.257 104.47L102.754 104.414ZM83.0269 137.294L82.6733 137.648L82.9493 137.924L83.284 137.723L83.0269 137.294ZM69.8745 124.143L70.228 123.789L69.8745 123.436L69.521 123.789L69.8745 124.143ZM58.2974 135.72L58.0402 136.149L58.3749 136.35L58.6509 136.074L58.2974 135.72ZM38.5688 102.84L39.0658 102.895L39.1348 102.274L38.5136 102.343L38.5688 102.84ZM5.68994 83.1125L5.33639 82.759L5.06038 83.035L5.26115 83.3697L5.68994 83.1125ZM17.2661 71.5364L17.6197 71.8899L17.9732 71.5364L17.6197 71.1828L17.2661 71.5364ZM5.43213 59.7014L5.86091 59.9586C11.756 50.1299 16.9558 44.9613 22.0946 42.3922C27.2239 39.8278 32.3663 39.8153 38.2568 40.4698L38.312 39.9729L38.3672 39.476C32.4209 38.8152 27.0403 38.8016 21.6474 41.4977C16.2641 44.1891 10.9423 49.5424 5.00334 59.4442L5.43213 59.7014ZM38.312 39.9729L38.8089 39.9177C38.1544 34.0273 38.1669 28.8851 40.731 23.756C43.3 18.6173 48.4683 13.4178 58.2967 7.52278L58.0395 7.09399L57.7824 6.6652C47.8808 12.604 42.5278 17.9256 39.8366 23.3088C37.1407 28.7015 37.1543 34.0819 37.8151 40.0281L38.312 39.9729ZM58.0395 7.09399L57.686 7.44754L69.519 19.2806L69.8726 18.927L70.2261 18.5734L58.3931 6.74045L58.0395 7.09399ZM69.8726 18.927L70.2261 19.2806L83.3804 6.12625L83.0268 5.7727L82.6733 5.41916L69.519 18.5734L69.8726 18.927ZM83.0268 5.7727L82.7697 6.20149C92.5981 12.0965 97.7665 17.2963 100.335 22.4352C102.9 27.5645 102.912 32.7069 102.257 38.5974L102.754 38.6526L103.251 38.7078C103.912 32.7615 103.926 27.3809 101.23 21.988C98.5387 16.6046 93.1856 11.2828 83.284 5.34391L83.0268 5.7727ZM102.754 38.6526L102.81 39.1495C108.7 38.495 113.842 38.5073 118.972 41.0714C124.111 43.6403 129.31 48.8086 135.205 58.6373L135.634 58.3801L136.063 58.1229C130.124 48.2212 124.802 42.8681 119.419 40.177C114.026 37.4811 108.645 37.4949 102.699 38.1556L102.754 38.6526ZM135.634 58.3801L135.281 58.0266L122.127 71.1799L122.481 71.5334L122.835 71.887L135.988 58.7337L135.634 58.3801ZM122.481 71.5334L122.127 71.887L135.281 85.0403L135.634 84.6868L135.988 84.3332L122.835 71.1799L122.481 71.5334ZM135.634 84.6868L135.205 84.4296C129.31 94.2583 124.111 99.4266 118.972 101.995C113.842 104.56 108.7 104.572 102.81 103.917L102.754 104.414L102.699 104.911C108.645 105.572 114.026 105.586 119.419 102.89C124.802 100.199 130.124 94.8457 136.063 84.9439L135.634 84.6868ZM102.754 104.414L102.257 104.47C102.912 110.36 102.9 115.502 100.335 120.632C97.7666 125.771 92.5982 130.97 82.7697 136.865L83.0269 137.294L83.284 137.723C93.1857 131.784 98.5388 126.462 101.23 121.079C103.926 115.686 103.912 110.305 103.251 104.359L102.754 104.414ZM83.0269 137.294L83.3804 136.941L70.228 123.789L69.8745 124.143L69.521 124.496L82.6733 137.648L83.0269 137.294ZM69.8745 124.143L69.521 123.789L57.9438 135.366L58.2974 135.72L58.6509 136.074L70.2281 124.496L69.8745 124.143ZM58.2974 135.72L58.5545 135.291C48.7259 129.396 43.5573 124.196 40.9882 119.057C38.4238 113.928 38.4112 108.786 39.0658 102.895L38.5688 102.84L38.0719 102.785C37.4112 108.731 37.3976 114.112 40.0938 119.505C42.7851 124.888 48.1384 130.21 58.0402 136.149L58.2974 135.72ZM38.5688 102.84L38.5136 102.343C32.6233 102.998 27.4811 102.985 22.3519 100.421C17.2133 97.852 12.0137 92.6837 6.11873 82.8554L5.68994 83.1125L5.26115 83.3697C11.1999 93.2712 16.5216 98.6242 21.9048 101.315C27.2975 104.011 32.6779 103.998 38.6241 103.337L38.5688 102.84ZM5.68994 83.1125L6.04349 83.4661L17.6197 71.8899L17.2661 71.5364L16.9126 71.1828L5.33639 82.759L5.68994 83.1125ZM17.2661 71.5364L17.6197 71.1828L5.78569 59.3479L5.43213 59.7014L5.07856 60.055L16.9125 71.8899L17.2661 71.5364Z" fill="#04412B"/>
<line x1="0.353553" y1="0.646447" x2="142.354" y2="142.646" stroke="#04412B" stroke-dasharray="6 6"/>
</svg>
